# Blender 4.0.2
# www.blender.org
mtllib PSXDroneWing.mtl
o DroneWing
v 0.363236 -0.052991 0.982977
v 0.363236 0.009396 0.982977
v -0.004227 0.043050 -0.982977
v -0.004227 0.109083 -0.982977
v 10.241532 -0.023929 1.000000
v 10.241532 -0.006071 1.000000
v 10.241532 0.003562 -1.000000
v 10.241532 0.022464 -1.000000
v 0.087639 -0.240265 -0.491488
v 0.179504 -0.290740 0.000000
v 0.271370 -0.240265 0.491488
v 0.271370 0.194308 0.491488
v 0.179504 0.230192 0.000000
v 0.087639 0.194308 -0.491488
v 10.241532 -0.077536 0.500000
v 10.241532 -0.091984 0.000000
v 10.241532 -0.077536 -0.500000
v 10.241532 0.046859 -0.500000
v 10.241532 0.057131 0.000000
v 10.241532 0.046859 0.500000
vn -0.9830 -0.0000 0.1837
vn -0.0017 -0.0000 -1.0000
vn 1.0000 -0.0000 -0.0000
vn -0.0017 -0.0000 1.0000
vn 0.0150 -0.9353 0.3536
vn 0.0014 0.9944 0.1053
vn 0.0145 0.9987 -0.0487
vn 0.0172 0.9996 -0.0205
vn 0.0148 0.9997 0.0205
vn -0.0042 -0.8667 -0.4988
vn 0.0158 -0.9943 -0.1051
vn 0.0197 -0.9949 0.0985
vn 0.0027 -0.9943 0.1066
vn 0.0136 0.9367 0.3499
vn 0.0080 0.9850 -0.1723
vn 0.0144 0.9970 -0.0755
vn 0.0172 0.9974 0.0696
vn 0.0157 -0.9870 -0.1601
vn 0.0197 -0.9994 -0.0289
vn 0.0163 -0.9995 0.0289
vt 0.893626 0.144727
vt 0.882394 0.194457
vt 0.851322 0.147763
vt 0.818010 0.000054
vt 0.824455 0.999985
vt 0.822610 1.000000
vt 0.976686 0.243138
vt 0.984596 0.194492
vt 0.988824 0.243388
vt 0.971429 0.000000
vt 0.974682 0.964086
vt 0.968593 0.964086
vt 0.919389 0.000086
vt 0.968593 0.964070
vt 0.917720 0.973242
vt 0.713966 0.999760
vt 0.760995 0.035663
vt 0.762648 0.999729
vt 0.572022 0.999984
vt 0.616800 0.008836
vt 0.618973 0.999897
vt 0.662682 0.017708
vt 0.666240 0.999821
vt 0.710170 0.026632
vt 0.818010 0.999956
vt 0.762648 0.008992
vt 0.818010 -0.000000
vt 0.824455 0.000159
vt 0.869945 0.982290
vt 0.824455 0.991245
vt 0.871594 0.000136
vt 0.977904 0.389589
vt 0.974682 0.340714
vt 0.986820 0.340963
vt 0.974682 0.291906
vt 0.989232 0.292204
vt 0.859073 0.000436
vt 0.886639 0.047381
vt 0.844335 0.050417
vt 0.893626 0.095803
vt 0.842915 0.099443
vt 0.888822 0.193995
vt 0.824455 -0.000000
vt 0.982853 0.194457
vt 0.973172 0.000000
vt 0.968069 0.000000
vt 0.572022 -0.000000
vt 0.771769 0.999906
vt 0.976060 0.389551
vt 0.865146 -0.000000
s 0
usemtl DroneWings
f 14/1/1 3/2/1 9/3/1
f 3/4/2 8/5/2 7/6/2
f 20/7/3 5/8/3 15/9/3
f 5/10/4 2/11/4 1/12/4
f 15/13/5 1/14/5 11/15/5
f 20/16/6 2/17/6 6/18/6
f 8/19/7 14/20/7 18/21/7
f 18/21/8 13/22/8 19/23/8
f 19/23/9 12/24/9 20/16/9
f 7/25/10 9/26/10 3/27/10
f 17/28/11 10/29/11 9/30/11
f 16/31/12 11/15/12 10/29/12
f 7/32/3 18/33/3 17/34/3
f 17/34/3 19/35/3 16/36/3
f 19/35/3 15/9/3 16/36/3
f 1/37/1 12/38/1 11/39/1
f 11/39/1 13/40/1 10/41/1
f 13/40/1 9/3/1 10/41/1
f 14/1/1 4/42/1 3/2/1
f 3/4/2 4/43/2 8/5/2
f 20/7/3 6/44/3 5/8/3
f 5/10/4 6/45/4 2/11/4
f 15/13/13 5/46/13 1/14/13
f 20/16/14 12/24/14 2/17/14
f 8/19/15 4/47/15 14/20/15
f 18/21/16 14/20/16 13/22/16
f 19/23/17 13/22/17 12/24/17
f 7/25/18 17/48/18 9/26/18
f 17/28/19 16/31/19 10/29/19
f 16/31/20 15/13/20 11/15/20
f 7/32/3 8/49/3 18/33/3
f 17/34/3 18/33/3 19/35/3
f 19/35/3 20/7/3 15/9/3
f 1/37/1 2/50/1 12/38/1
f 11/39/1 12/38/1 13/40/1
f 13/40/1 14/1/1 9/3/1
