# Blender 4.0.2
# www.blender.org
mtllib PSXDrone.mtl
o DroneBody
v 0.179504 0.455703 1.000000
v 0.179504 0.518090 1.000000
v 0.179504 0.551744 -1.000000
v 0.179504 0.617777 -1.000000
v 10.241532 0.484765 1.000000
v 10.241532 0.502623 1.000000
v 10.241532 0.512256 -1.000000
v 10.241532 0.531158 -1.000000
v 0.179504 0.268428 -0.500000
v 0.179504 0.217954 0.000000
v 0.179504 0.268428 0.500000
v 0.179504 0.703002 0.500000
v 0.179504 0.738886 0.000000
v 0.179504 0.703002 -0.500000
v 10.241532 0.431158 0.500000
v 10.241532 0.416710 0.000000
v 10.241532 0.431158 -0.500000
v 10.241532 0.555553 -0.500000
v 10.241532 0.565825 0.000000
v 10.241532 0.555553 0.500000
v 0.275862 -0.306618 9.161556
v 0.382514 -0.154303 9.202942
v 0.275862 -0.306618 9.135610
v 0.382514 -0.154303 9.109089
v 2.282567 -1.710959 9.147671
v 2.389720 -1.561970 9.164017
v 2.283287 -1.709945 9.146320
v 2.390362 -1.561066 9.159616
v -0.382477 -0.154356 9.161556
v -0.275825 -0.306670 9.202942
v -0.382477 -0.154356 9.135610
v -0.275825 -0.306670 9.109089
v -2.388459 -1.559729 9.147671
v -2.285105 -1.711377 9.164017
v -2.387753 -1.560753 9.146320
v -2.284474 -1.712290 9.159616
v 0.092939 0.401842 9.161556
v -0.093003 0.401842 9.202942
v 0.092939 0.401842 9.135610
v -0.093003 0.401842 9.109089
v 0.092308 2.851135 9.147671
v -0.091196 2.853454 9.164017
v 0.091065 2.851144 9.146320
v -0.092305 2.853460 9.159616
v 0.000000 1.091414 -8.270216
v 0.000000 1.091413 8.270216
v 0.545707 0.945192 -8.270216
v 0.545707 0.945191 8.270216
v 0.945192 0.545707 -8.270216
v 0.945192 0.545706 8.270216
v 1.091413 0.000000 -8.270216
v 1.091413 -0.000000 8.270216
v 0.945192 -0.545706 -8.270216
v 0.945192 -0.545707 8.270216
v 0.545707 -0.945191 -8.270216
v 0.545707 -0.945192 8.270216
v -0.000000 -1.091413 -8.270216
v -0.000000 -1.091414 8.270216
v -0.545707 -0.945191 -8.270216
v -0.545707 -0.945192 8.270216
v -0.945192 -0.545706 -8.270216
v -0.945192 -0.545707 8.270216
v -1.091413 0.000000 -8.270216
v -1.091413 -0.000000 8.270216
v -0.945192 0.545707 -8.270216
v -0.945192 0.545706 8.270216
v -0.545707 0.945192 -8.270216
v -0.545707 0.945191 8.270216
v -0.000000 0.020920 -9.770451
v 0.010460 0.018117 -9.770451
v 0.018117 0.010460 -9.770451
v 0.020919 0.000000 -9.770451
v 0.018117 -0.010459 -9.770451
v 0.010460 -0.018116 -9.770451
v -0.000000 -0.020919 -9.770451
v -0.010460 -0.018116 -9.770451
v -0.018117 -0.010459 -9.770451
v -0.020919 0.000000 -9.770451
v -0.018117 0.010460 -9.770451
v -0.010460 0.018117 -9.770451
v 0.420293 -0.727968 -8.770294
v 0.287117 -0.497300 -9.270372
v 0.497301 -0.287116 -9.270370
v 0.727969 -0.420293 -8.770294
v 0.574233 0.000000 -9.270370
v 0.840586 0.000000 -8.770294
v 0.000000 0.840586 -8.770294
v 0.000000 0.574234 -9.270372
v -0.287117 0.497301 -9.270370
v -0.420293 0.727969 -8.770294
v 0.420293 0.727969 -8.770294
v 0.287117 0.497301 -9.270372
v 0.497301 0.287117 -9.270370
v 0.727969 0.420293 -8.770294
v -0.497301 0.287117 -9.270370
v -0.727969 0.420293 -8.770294
v -0.574233 0.000000 -9.270370
v -0.840586 0.000000 -8.770294
v -0.497301 -0.287116 -9.270370
v -0.727969 -0.420293 -8.770294
v -0.287117 -0.497300 -9.270370
v -0.420293 -0.727968 -8.770294
v 0.000000 -0.574233 -9.270370
v -0.000000 -0.840586 -8.770294
v 0.280054 0.485067 9.002994
v 0.000000 0.560107 9.002994
v 0.485067 0.280053 9.002994
v 0.560107 -0.000000 9.002994
v 0.485067 -0.280054 9.002994
v 0.280054 -0.485068 9.002994
v -0.000000 -0.560108 9.002994
v -0.280054 -0.485068 9.002994
v -0.485067 -0.280054 9.002994
v -0.560107 -0.000000 9.002994
v -0.485067 0.280053 9.002994
v -0.280054 0.485067 9.002994
v 0.336908 0.583541 9.002994
v 0.000000 0.673815 9.002994
v 0.583542 0.336908 9.002994
v 0.673816 -0.000000 9.002994
v 0.583542 -0.336908 9.002994
v 0.336908 -0.583542 9.002994
v -0.000000 -0.673816 9.002994
v -0.336908 -0.583542 9.002994
v -0.583542 -0.336908 9.002994
v -0.673816 -0.000000 9.002994
v -0.583542 0.336908 9.002994
v -0.336908 0.583541 9.002994
v 0.280054 0.485067 9.255174
v 0.000000 0.560107 9.255174
v 0.485067 0.280053 9.255174
v 0.560107 -0.000000 9.255174
v 0.485067 -0.280054 9.255174
v 0.280054 -0.485068 9.255174
v -0.000000 -0.560108 9.255174
v -0.280054 -0.485067 9.255174
v -0.485067 -0.280054 9.255174
v -0.560107 -0.000000 9.255174
v -0.485067 0.280053 9.255174
v -0.280054 0.485067 9.255174
v 0.275292 0.489149 9.294969
v -0.004761 0.564189 9.294969
v 0.480306 0.284136 9.294969
v 0.555346 0.004082 9.294969
v 0.480306 -0.275972 9.294969
v 0.275292 -0.480985 9.294969
v -0.004761 -0.556025 9.294969
v -0.284815 -0.480985 9.294969
v -0.489828 -0.275972 9.294969
v -0.564869 0.004082 9.294969
v -0.489828 0.284136 9.294969
v -0.284815 0.489149 9.294969
v 0.334079 0.590970 9.294969
v -0.004761 0.681762 9.294969
v 0.582127 0.342922 9.294969
v 0.672919 0.004082 9.294969
v 0.582127 -0.334758 9.294969
v 0.334079 -0.582806 9.294969
v -0.004761 -0.673598 9.294969
v -0.343601 -0.582806 9.294969
v -0.591649 -0.334758 9.294969
v -0.682441 0.004082 9.294969
v -0.591649 0.342922 9.294969
v -0.343601 0.590970 9.294969
v 0.003306 0.018055 10.147495
v -0.004761 0.020216 10.147495
v 0.009211 0.012149 10.147495
v 0.011373 0.004082 10.147495
v 0.009211 -0.003985 10.147495
v 0.003306 -0.009891 10.147495
v -0.004761 -0.012052 10.147495
v -0.012828 -0.009891 10.147495
v -0.018734 -0.003985 10.147495
v -0.020896 0.004082 10.147495
v -0.018734 0.012149 10.147495
v -0.012828 0.018055 10.147495
v 0.467232 0.741809 8.312799
v 2.761538 4.018417 8.312799
v 0.568440 0.670943 8.312799
v 2.862746 3.947551 8.312799
v 0.508382 0.712996 6.312800
v 2.802688 3.989604 6.312800
v 0.527290 0.699757 6.312800
v 2.821595 3.976365 6.312800
v 0.550951 0.683189 7.462800
v 2.845257 3.959797 7.462800
v 0.484721 0.729564 7.462800
v 2.779027 4.006172 7.462800
v -0.580719 0.662354 8.312803
v -2.875436 3.939549 8.312803
v -0.479511 0.733220 8.312803
v -2.774228 4.010416 8.312803
v -0.539569 0.691168 6.312803
v -2.834286 3.968363 6.312803
v -0.520662 0.704407 6.312803
v -2.815379 3.981602 6.312803
v -0.497000 0.720975 7.462803
v -2.791717 3.998170 7.462803
v -0.563231 0.674600 7.462803
v -2.857947 3.951795 7.462803
v -1.154399 1.481653 8.312803
v -1.053191 1.552519 8.312803
v -1.094341 1.523705 6.312803
v -1.113248 1.510466 6.312803
v -1.136910 1.493898 7.462803
v -1.070680 1.540273 7.462803
v -3.405903 0.660482 0.855538
v -3.403030 0.721404 0.842405
v -2.984018 0.323297 -1.072555
v -2.980977 0.387779 -1.086455
v -0.034280 0.688861 0.872048
v -0.034280 0.706300 0.868199
v -0.034280 0.284736 -1.086891
v -0.034280 0.303194 -1.090964
v -3.101433 0.154380 -0.535947
v -3.208123 0.212834 -0.048353
v -3.310164 0.369865 0.417991
v -3.290147 0.794229 0.326511
v -3.184129 0.721527 -0.158011
v -3.081417 0.578744 -0.627427
v -0.034280 0.528771 0.395345
v -0.034280 0.406920 -0.089795
v -0.034280 0.313286 -0.581162
v -0.034280 0.434759 -0.607967
v -0.034280 0.552532 -0.121927
v -0.034280 0.650244 0.368540
vn -0.6907 0.7180 -0.0861
vn -0.6065 -0.4034 -0.6852
vn -0.6572 -0.7187 -0.2273
vn 0.5822 0.5591 -0.5903
vn 0.5853 -0.5262 -0.6169
vn 0.7006 0.7119 0.0479
vn 0.5839 -0.5420 0.6044
vn 0.7019 -0.7104 0.0513
vn -0.5953 0.4620 0.6574
vn -0.5952 -0.4610 0.6582
vn -0.6729 -0.7206 0.1672
vn 0.5835 0.5429 0.6040
vn -0.5833 0.5267 -0.6183
vn 0.7081 0.7056 -0.0258
vn 0.7077 0.7065 -0.0000
vn -0.6710 0.7249 0.1559
vn 0.6949 -0.7154 -0.0727
vn 0.7064 -0.7078 -0.0000
vn -0.6780 -0.7351 -0.0000
vn -0.6851 0.7284 -0.0000
vn -0.8433 -0.1786 0.5069
vn -0.1571 0.7670 -0.6221
vn -0.8297 -0.1667 -0.5327
vn 0.3401 -0.5991 -0.7249
vn 0.7545 0.0405 0.6551
vn 0.0071 -0.9550 0.2965
vn -0.1671 0.7460 0.6447
vn 0.8547 0.2095 -0.4750
vn 0.1206 0.8535 0.5069
vn 0.7745 -0.1147 -0.6221
vn 0.1271 0.8367 -0.5327
vn -0.6794 -0.1144 -0.7248
vn -0.2200 -0.7228 0.6551
vn -0.8997 0.3202 0.2966
vn 0.7581 -0.0981 0.6447
vn -0.0954 -0.8748 -0.4750
vn 0.6300 -0.5883 0.5069
vn -0.5382 -0.5686 -0.6221
vn 0.6125 -0.5840 -0.5327
vn 0.2958 0.6222 -0.7248
vn -0.4659 0.5948 0.6551
vn 0.7783 0.5535 0.2966
vn -0.5152 -0.5648 0.6447
vn -0.6619 0.5799 -0.4750
vn -0.0000 0.9750 -0.2223
vn 0.4846 0.8394 0.2462
vn 0.4875 0.8444 -0.2223
vn 0.8444 0.4875 -0.2223
vn 0.9692 -0.0000 0.2462
vn 0.9750 -0.0000 -0.2223
vn 0.8444 -0.4875 -0.2223
vn 0.8394 -0.4846 0.2462
vn 0.4875 -0.8444 -0.2223
vn -0.0000 -0.9692 0.2462
vn -0.0000 -0.9750 -0.2223
vn -0.4875 -0.8444 -0.2223
vn -0.8394 -0.4846 0.2462
vn -0.8444 -0.4875 -0.2223
vn -0.9750 -0.0000 -0.2223
vn -0.9692 -0.0000 0.2462
vn -0.8444 0.4875 -0.2223
vn -0.4848 0.2799 0.8286
vn -0.8394 0.4846 0.2462
vn -0.4875 0.8444 -0.2223
vn -0.4846 0.8394 0.2462
vn 0.3993 -0.6917 -0.6017
vn 0.3542 -0.2047 -0.9125
vn 0.6917 -0.3993 -0.6017
vn 0.4090 -0.0000 -0.9125
vn -0.2045 -0.3543 -0.9125
vn -0.2045 0.3543 -0.9125
vn 0.7987 -0.0000 -0.6017
vn -0.0000 0.7987 -0.6017
vn -0.3994 0.6917 -0.6017
vn 0.2045 0.3542 -0.9125
vn -0.0000 0.4091 -0.9125
vn 0.6917 0.3993 -0.6017
vn 0.3542 0.2045 -0.9125
vn -0.6917 0.3993 -0.6017
vn -0.3542 0.2045 -0.9125
vn 0.3994 0.6917 -0.6017
vn -0.4090 -0.0000 -0.9125
vn -0.7987 -0.0000 -0.6017
vn -0.6917 -0.3993 -0.6017
vn -0.3542 -0.2045 -0.9125
vn -0.3993 -0.6917 -0.6017
vn -0.0000 -0.7987 -0.6017
vn -0.0000 -0.4091 -0.9125
vn 0.2045 -0.3543 -0.9125
vn -0.0000 -0.8887 -0.4584
vn 0.4444 -0.7697 -0.4584
vn -0.4444 -0.7697 -0.4584
vn -0.7697 -0.4444 -0.4584
vn -0.8887 -0.0000 -0.4584
vn -0.7697 0.4444 -0.4584
vn 0.7697 0.4444 -0.4584
vn 0.4444 0.7697 -0.4584
vn -0.4444 0.7697 -0.4584
vn -0.0000 0.8887 -0.4584
vn 0.8887 -0.0000 -0.4584
vn 0.7697 -0.4444 -0.4584
vn 0.3189 -0.5523 0.7703
vn 0.0094 -0.9986 0.0518
vn -0.0000 -0.6377 0.7703
vn -0.4848 -0.2799 0.8286
vn -0.5598 -0.0000 0.8286
vn -0.4846 -0.8394 0.2462
vn -0.2799 -0.4848 0.8286
vn 0.2799 -0.4848 0.8286
vn -0.0000 -0.5598 0.8286
vn 0.4846 -0.8394 0.2462
vn 0.4848 -0.2799 0.8286
vn 0.5598 -0.0000 0.8286
vn -0.0000 0.5598 0.8286
vn -0.0000 0.9692 0.2462
vn 0.2799 0.4848 0.8286
vn 0.8394 0.4846 0.2462
vn -0.2799 0.4848 0.8286
vn 0.4848 0.2799 0.8286
vn 0.3189 0.5523 0.7703
vn -0.0000 0.6377 0.7703
vn 0.5523 0.3189 0.7703
vn 0.6377 -0.0000 0.7703
vn 0.5523 -0.3189 0.7703
vn -0.3189 -0.5523 0.7703
vn -0.5523 -0.3189 0.7703
vn -0.6377 -0.0000 0.7703
vn -0.5523 0.3189 0.7703
vn -0.3189 0.5523 0.7703
vn -0.9982 -0.0086 -0.0592
vn -0.5413 -0.2955 -0.7872
vn -0.5918 0.0096 -0.8060
vn 0.8716 0.4894 0.0278
vn 0.9982 -0.0080 0.0597
vn -0.8646 0.4964 -0.0777
vn -0.4890 -0.8721 0.0164
vn 0.8624 -0.5005 0.0759
vn -0.4948 0.8658 -0.0744
vn 0.0100 0.9987 -0.0503
vn 0.5110 0.8595 -0.0126
vn -0.8595 -0.5105 -0.0244
vn 0.5022 -0.8617 0.0731
vn 0.2990 0.5493 -0.7803
vn 0.7973 0.4603 -0.3903
vn 0.5598 0.3418 -0.7548
vn 0.3407 -0.6023 -0.7219
vn -0.0135 -0.6747 -0.7380
vn 0.6811 0.0117 -0.7321
vn -0.5002 0.2918 -0.8153
vn -0.3378 -0.5521 -0.7623
vn 0.6030 -0.3442 -0.7196
vn -0.2948 0.5010 -0.8137
vn -0.0114 0.5980 -0.8014
vn -0.0000 0.9207 -0.3903
vn -0.2476 0.4288 0.8688
vn -0.0000 0.4951 0.8688
vn -0.9207 -0.0000 -0.3903
vn 0.4603 -0.7973 -0.3903
vn -0.0000 -0.9207 -0.3903
vn 0.9207 -0.0000 -0.3903
vn -0.7973 0.4603 -0.3903
vn -0.4603 -0.7973 -0.3903
vn 0.7973 -0.4603 -0.3903
vn -0.4603 0.7973 -0.3903
vn 0.4603 0.7973 -0.3903
vn -0.7973 -0.4603 -0.3903
vn 0.4288 -0.2476 0.8688
vn 0.4288 0.2475 0.8688
vn -0.4288 0.2475 0.8688
vn 0.2475 0.4288 0.8688
vn -0.4288 -0.2475 0.8688
vn -0.4951 -0.0000 0.8688
vn -0.0000 -0.4951 0.8688
vn 0.4951 -0.0000 0.8688
vn -0.2476 -0.4288 0.8688
vn 0.2475 -0.4289 0.8688
vn 0.1490 -0.8075 -0.5707
vn -0.1490 0.8075 -0.5707
vn 0.8098 0.1362 -0.5707
vn -0.1735 0.9847 0.0178
vn -0.7983 -0.1474 0.5839
vn -0.1345 0.8006 0.5839
vn 0.1345 -0.8006 0.5839
vn 0.7983 0.1474 0.5839
vn 0.1735 -0.9847 0.0178
vn 0.9846 0.1738 0.0178
vn -0.8098 -0.1362 -0.5707
vn -0.9846 -0.1738 0.0178
vn 0.5865 0.4106 -0.6982
vn -0.1490 -0.8075 -0.5707
vn -0.5865 -0.4106 -0.6982
vn -0.1735 -0.9847 0.0178
vn -0.5719 -0.4005 0.7159
vn -0.8189 -0.5734 0.0251
vn 0.7983 -0.1474 0.5839
vn 0.5719 0.4005 0.7159
vn 0.9846 -0.1738 0.0178
vn 0.8189 0.5734 0.0251
vn -0.7983 0.1474 0.5839
vn 0.1735 0.9847 0.0178
vn -0.9846 0.1738 0.0178
vn 0.8098 -0.1362 -0.5707
vn -0.1345 -0.8006 0.5839
vn 0.1490 0.8075 -0.5707
vn -0.8098 0.1362 -0.5707
vn 0.1345 0.8006 0.5839
vn -0.6377 0.6732 -0.3744
vn -0.5311 -0.5474 -0.6467
vn -0.6225 -0.7613 -0.1812
vn -0.4910 0.3982 -0.7748
vn 0.5813 -0.6493 -0.4905
vn 0.7152 0.6909 -0.1053
vn 0.5919 -0.3845 0.7084
vn 0.7177 -0.6673 0.1988
vn -0.6565 0.5888 0.4715
vn -0.6811 -0.3047 0.6658
vn -0.6911 -0.6968 0.1920
vn -0.6524 0.7445 -0.1416
vn 0.5912 0.6481 0.4800
vn 0.7174 0.6735 -0.1779
vn 0.5849 0.4119 -0.6988
vn 0.7206 0.6767 -0.1510
vn -0.6411 0.7084 -0.2952
vn 0.7012 -0.7093 0.0721
vn 0.7212 -0.6768 0.1474
vn -0.6677 -0.7439 0.0290
vt 0.525103 0.535295
vt 0.550206 0.527701
vt 0.525103 0.513477
vt 0.690981 0.000059
vt 0.697504 0.999830
vt 0.695637 0.999847
vt 0.956664 0.384547
vt 0.964717 0.335020
vt 0.969022 0.384800
vt 1.014186 0.524338
vt 0.509012 0.526011
vt 0.509012 0.522879
vt 0.435448 0.000061
vt 0.489857 0.999606
vt 0.436929 0.999957
vt 0.541361 0.999869
vt 0.591598 0.000093
vt 0.591097 0.999880
vt 0.591598 0.000057
vt 0.642474 0.999530
vt 0.593634 0.999337
vt 0.641871 0.000000
vt 0.690981 0.999781
vt 0.492467 0.999885
vt 0.539256 -0.000000
vt 0.285236 0.999371
vt 0.343403 0.000185
vt 0.341991 1.000000
vt 0.389623 0.000000
vt 0.389623 0.999924
vt 0.389623 0.000000
vt 0.389623 0.999981
vt 0.957904 0.533649
vt 0.954624 0.483889
vt 0.966981 0.484143
vt 0.954624 0.434197
vt 0.969437 0.434501
vt 0.449794 0.522879
vt 0.474897 0.535295
vt 0.474897 0.513477
vt 0.500000 0.537097
vt 0.500000 0.510943
vt 0.040035 0.484606
vt 0.042669 0.492253
vt 0.041338 0.484606
vt 0.227528 0.000000
vt 0.152743 0.999026
vt 0.151670 0.000012
vt 0.602020 0.221746
vt 0.603841 0.151202
vt 0.602606 0.222178
vt 0.568725 0.996195
vt 0.493619 0.000750
vt 0.570293 0.000000
vt 0.602020 -0.000000
vt 0.599561 0.934362
vt 0.591437 0.000018
vt 0.475946 0.999965
vt 0.493619 0.000000
vt 0.477745 0.999962
vt 0.040035 0.492250
vt 0.042669 0.484603
vt 0.041338 0.492250
vt 0.075847 -0.000000
vt 0.001057 0.999067
vt -0.000000 0.000042
vt 0.603843 0.000466
vt 0.602020 0.075140
vt 0.603256 0.000000
vt 0.377320 0.997645
vt 0.302243 -0.000000
vt 0.378784 0.001136
vt 0.591437 -0.000000
vt 0.586512 0.999016
vt 0.580865 -0.000000
vt 0.437668 0.999965
vt 0.455341 0.000000
vt 0.439468 0.999962
vt 0.504666 0.040035
vt 0.495331 0.042669
vt 0.504666 0.041338
vt 0.075847 0.999952
vt 0.150898 0.000942
vt 0.151670 0.999958
vt 0.602020 0.150457
vt 0.603843 0.075783
vt 0.602606 0.150922
vt 0.228290 0.001027
vt 0.301559 0.999846
vt 0.227528 0.999991
vt 0.570293 0.999020
vt 0.575195 0.000004
vt 0.580865 0.999020
vt 0.396451 0.000000
vt 0.378784 0.999965
vt 0.394652 0.000002
vt 0.491387 1.098480
vt 0.523328 0.130363
vt 0.523328 1.098480
vt 0.546710 1.098480
vt 0.975446 0.752988
vt 0.007329 0.721048
vt 0.975446 0.721048
vt 0.975446 0.689107
vt 0.546710 0.130363
vt 0.491387 0.130363
vt 0.459447 1.098480
vt 0.436065 0.130363
vt 0.436065 1.098480
vt 0.007329 0.582481
vt 0.975446 0.614422
vt 0.975446 0.582481
vt 0.007329 0.614422
vt 0.975446 0.646362
vt 0.293175 0.360323
vt 0.431933 0.452372
vt 0.333125 0.509419
vt 0.459447 0.130363
vt 0.547177 0.215679
vt 0.608422 0.326523
vt 0.499322 0.263534
vt 0.607784 0.328905
vt 0.614929 0.324780
vt 0.614929 0.333029
vt 0.481806 0.328905
vt 0.612547 0.459646
vt 0.677918 0.442130
vt 0.610166 0.333029
vt 0.612547 0.333667
vt 0.499322 0.394275
vt 0.608422 0.331286
vt 0.725772 0.394275
vt 0.616672 0.331286
vt 0.547177 0.442130
vt 0.617310 0.328905
vt 0.743288 0.328905
vt 0.725772 0.263534
vt 0.616672 0.326523
vt 0.677918 0.215679
vt 0.612547 0.198163
vt 0.612547 0.324142
vt 0.610166 0.324780
vt 0.488301 0.113704
vt 0.612547 0.137520
vt 0.516855 0.163161
vt 0.736793 0.113704
vt 0.612547 0.080412
vt 0.827748 0.204658
vt 0.708239 0.163161
vt 0.861040 0.328905
vt 0.778291 0.233213
vt 0.803931 0.328905
vt 0.827748 0.453151
vt 0.778291 0.424597
vt 0.488301 0.544105
vt 0.446804 0.424597
vt 0.516855 0.494648
vt 0.736793 0.544105
vt 0.708239 0.494648
vt 0.364055 0.328905
vt 0.397347 0.453151
vt 0.612547 0.520289
vt 0.612547 0.577397
vt 0.397347 0.204658
vt 0.421163 0.328905
vt 0.446804 0.233213
vt 0.603458 0.344341
vt 0.721415 0.480241
vt 0.603458 0.480241
vt 0.431933 0.268275
vt 0.407269 0.360323
vt 0.442270 0.102082
vt 0.333125 0.211228
vt 0.591366 0.062132
vt 0.499317 0.200891
vt 0.683414 0.200891
vt 0.591366 0.176226
vt 0.740461 0.102082
vt 0.750799 0.268275
vt 0.849607 0.211228
vt 0.775463 0.360323
vt 0.442270 0.618565
vt 0.591366 0.544420
vt 0.591366 0.658515
vt 0.683414 0.519756
vt 0.740461 0.618565
vt 0.849607 0.509419
vt 0.889557 0.360323
vt 0.499317 0.519756
vt 0.750799 0.452372
vt 0.580258 0.563737
vt 0.503743 0.615306
vt 0.503743 0.584240
vt 0.636271 0.507725
vt 0.595791 0.590642
vt 0.656773 0.431210
vt 0.663175 0.523258
vt 0.636271 0.354695
vt 0.687840 0.431210
vt 0.580258 0.298682
vt 0.663175 0.339161
vt 0.503743 0.247113
vt 0.595791 0.271777
vt 0.427228 0.298682
vt 0.503743 0.278180
vt 0.371215 0.354695
vt 0.411694 0.271777
vt 0.350713 0.431210
vt 0.344310 0.339161
vt 0.344310 0.523258
vt 0.319646 0.431210
vt 0.371215 0.507725
vt 0.411694 0.590642
vt 0.427228 0.563737
vt 0.622237 0.069610
vt 0.603529 0.203084
vt 0.603529 0.067184
vt 0.603458 0.344341
vt 0.721546 0.208441
vt 0.721546 0.344341
vt 0.876890 0.481512
vt 0.758979 0.345612
vt 0.876889 0.345612
vt 0.603458 0.208666
vt 0.485323 0.344566
vt 0.485323 0.208666
vt 0.466754 0.481737
vt 0.584664 0.345837
vt 0.584664 0.481737
vt 0.740479 0.342685
vt 0.876379 0.224841
vt 0.876379 0.342686
vt 0.329816 0.344566
vt 0.447951 0.208666
vt 0.447951 0.344566
vt 0.603529 0.070115
vt 0.485327 0.206015
vt 0.485327 0.070115
vt 0.740326 0.203854
vt 0.876225 0.086009
vt 0.876225 0.203854
vt 0.466544 0.480466
vt 0.348588 0.344566
vt 0.466544 0.344566
vt 0.329816 0.206015
vt 0.448018 0.070115
vt 0.448018 0.206015
vt 0.740325 0.205510
vt 0.740325 0.069610
vt 0.414471 0.469941
vt 0.344611 0.436648
vt 0.367793 0.423264
vt 0.740186 0.346001
vt 0.740186 0.481902
vt 0.740254 0.341915
vt 0.740186 0.480241
vt 0.740186 0.344341
vt 0.466637 0.341915
vt 0.466637 0.206015
vt 0.603457 0.480466
vt 0.740479 0.224840
vt 0.876154 0.206015
vt 0.466637 0.341915
vt 0.466672 0.203084
vt 0.466672 0.067184
vt 0.740551 0.067184
vt 0.876450 0.067184
vt 0.348588 0.480466
vt 0.329817 0.346227
vt 0.466673 0.203084
vt 0.592955 0.562517
vt 0.590751 0.381182
vt 0.592955 0.381773
vt 0.588673 0.295739
vt 0.632527 0.359501
vt 0.605758 0.359501
vt 0.478233 0.231976
vt 0.401086 0.225879
vt 0.478233 0.205207
vt 0.323939 0.359501
vt 0.350708 0.359501
vt 0.588673 0.423264
vt 0.611855 0.436648
vt 0.555380 0.225879
vt 0.541996 0.249061
vt 0.344611 0.282354
vt 0.367793 0.295739
vt 0.541996 0.469941
vt 0.555380 0.493124
vt 0.478233 0.487026
vt 0.401086 0.493124
vt 0.611855 0.282354
vt 0.414471 0.249061
vt 0.478233 0.513795
vt 0.596773 0.375161
vt 0.596773 0.379569
vt 0.589138 0.379569
vt 0.753302 0.469941
vt 0.595160 0.381182
vt 0.407803 0.377365
vt 0.589138 0.375161
vt 0.588547 0.377365
vt 0.685532 0.217018
vt 0.592955 0.372957
vt 0.592955 0.192212
vt 0.597364 0.377365
vt 0.778108 0.377365
vt 0.432609 0.469941
vt 0.500379 0.217018
vt 0.590751 0.373547
vt 0.753302 0.284788
vt 0.500379 0.537712
vt 0.685532 0.537712
vt 0.432609 0.284788
vt 0.595160 0.373547
vt 0.941835 0.000000
vt 0.970918 0.941539
vt 0.941835 0.941539
vt 0.671058 0.941539
vt 0.941835 0.000000
vt 0.941835 0.941539
vt 0.526473 0.535132
vt 0.640712 0.700302
vt 0.525524 0.535797
vt 0.334989 0.004857
vt 0.005205 0.899477
vt 0.334989 0.899477
vt 0.982742 0.000000
vt 0.994974 0.270693
vt 0.975943 0.270693
vt 1.000000 0.941538
vt 0.975943 0.741462
vt 0.994974 0.741462
vt 0.982742 0.470769
vt 0.988175 0.470769
vt 1.000000 0.470769
vt 0.970918 0.470769
vt 0.716191 0.000000
vt 0.986968 0.941539
vt 0.716191 0.941539
vt 0.001208 0.000000
vt 0.286609 0.941539
vt 0.001208 0.941539
vt 0.936746 0.702464
vt 0.965671 0.000000
vt 0.965671 0.702464
vt 0.236263 0.000000
vt 0.505578 0.702464
vt 0.236263 0.702464
vt 0.965671 0.702464
vt 0.971075 0.000000
vt 0.971075 0.702464
vt 0.262326 -0.000000
vt 0.003554 0.702463
vt 0.262326 0.702463
vt 0.982836 -0.000000
vt 0.995002 0.269229
vt 0.976073 0.269229
vt 0.995002 0.737455
vt 0.971075 0.936450
vt 0.976073 0.737455
vt 0.982836 0.468225
vt 0.988239 0.468225
vt 1.000000 0.468225
vt 0.971075 0.468225
vt 0.229421 -0.000000
vt 0.448802 0.702463
vt 0.229421 0.702464
vt 0.008613 0.702464
vt 0.199059 0.936618
vt 0.008613 0.936618
vt 0.468373 0.936618
vt 0.737687 0.702463
vt 0.737687 0.936618
vt 0.936746 0.936618
vt 0.971075 0.936618
vt 0.965671 0.936618
vt 0.468373 0.702464
vt 0.468373 0.936618
vt 0.936746 0.936618
vt 0.965671 0.936618
vt 0.968912 0.159749
vt 0.957477 0.210379
vt 0.925842 0.162840
vt 0.952938 0.000223
vt 0.946416 0.293124
vt 0.946416 -0.000000
vt 0.481497 0.532646
vt 0.456218 0.534585
vt 0.480151 0.526547
vt 0.498279 0.534585
vt 0.339577 0.536219
vt 0.339577 0.533160
vt 0.796132 0.326070
vt 0.847732 0.000000
vt 0.847732 0.334983
vt 0.848722 0.334983
vt 0.899430 0.659025
vt 0.849878 0.658835
vt 0.702799 0.366146
vt 0.750539 0.658894
vt 0.700816 0.659025
vt 0.751593 0.355783
vt 0.800231 0.658822
vt 0.800254 0.345399
vt 0.899430 0.626791
vt 0.954624 0.334983
vt 0.954624 0.640166
vt 0.700816 0.305645
vt 0.749135 0.000465
vt 0.747411 0.316208
vt 0.798030 0.000279
vt 0.554568 0.514295
vt 0.530524 0.521828
vt 0.529178 0.515729
vt 0.506121 0.527740
vt 0.504508 0.520430
vt 0.969388 0.000444
vt 0.997454 0.048239
vt 0.954384 0.051330
vt 0.918729 0.063732
vt 0.968912 0.109940
vt 0.917283 0.113645
vt 0.550206 0.531016
vt 0.697504 -0.000000
vt 0.962943 0.334983
vt 0.700816 0.999797
vt 0.699041 0.999797
vt 0.697504 0.000000
vt 0.482883 0.000029
vt 0.690981 0.000146
vt 0.489857 -0.000000
vt 0.294571 0.000169
vt 0.956027 0.533610
vt 0.449794 0.526011
vt 0.037957 0.492253
vt 0.227528 0.999942
vt 0.602020 0.150922
vt 0.493619 0.997185
vt 0.600113 0.934185
vt 0.455340 0.000000
vt 0.037957 0.484603
vt 0.075847 1.000000
vt 0.603843 0.075461
vt 0.302243 0.998233
vt 0.587085 0.999020
vt 0.417063 0.000000
vt 0.495331 0.037957
vt 0.076096 0.000000
vt 0.602020 0.075461
vt 0.302243 0.000000
vt 0.574622 0.000000
vt 0.417062 0.999965
vt 0.007329 0.752988
vt 0.007329 0.689107
vt 0.007329 0.646362
vt 0.500000 0.501050
vt 0.500525 0.500910
vt 0.501050 0.500000
vt 0.500910 0.500525
vt 0.500910 0.499475
vt 0.500525 0.499090
vt 0.500000 0.498950
vt 0.499475 0.499090
vt 0.499090 0.499475
vt 0.498950 0.500000
vt 0.499090 0.500525
vt 0.499475 0.500910
vt 0.721415 0.344341
vt 0.622238 0.205510
vt 0.603458 0.208441
vt 0.758980 0.481512
vt 0.603458 0.344566
vt 0.466754 0.345837
vt 0.329816 0.208666
vt 0.603529 0.206015
vt 0.740325 0.086009
vt 0.329816 0.070115
vt 0.740254 0.206015
vt 0.603458 0.344566
vt 0.740254 0.206015
vt 0.466637 0.206015
vt 0.329817 0.482127
vt 0.466673 0.067184
vt 0.499059 0.500610
vt 0.498951 0.500205
vt 0.499059 0.499800
vt 0.970918 -0.000000
vt 0.671058 -0.000000
vt 0.641661 0.699637
vt 0.005205 0.004857
vt 0.988175 0.000000
vt 0.970918 0.941538
vt 0.986969 -0.000000
vt 0.286609 -0.000000
vt 0.936746 -0.000000
vt 0.505578 -0.000000
vt 0.965671 0.000000
vt 0.003554 -0.000000
vt 0.988239 -0.000000
vt 1.000000 0.936450
vt 0.448802 -0.000000
vt 0.008613 0.000000
vt 0.199058 0.702464
vt 0.468373 0.702464
vt 0.936746 0.702463
vt 0.964022 0.209909
vt 0.948283 0.293101
vt 0.456411 0.535460
vt 0.498279 0.535460
vt 0.847732 0.010801
vt 0.899501 -0.000000
vt 0.899501 0.334742
vt 0.899501 0.292969
vt 0.899501 -0.000000
vt 0.946416 0.000874
vt 0.700836 0.000583
vt 0.554773 0.515222
vt 0.975571 0.000000
vt 0.961799 0.060641
s 1
usemtl DroneBody
f 14/1/1 3/2/2 9/3/3
f 1/38/10 12/39/16 11/40/11
f 11/40/11 13/41/20 10/42/19
f 13/41/20 9/3/3 10/42/19
f 64/115/60 127/116/62 66/117/63
f 110/167/102 135/168/103 111/169/104
f 64/115/60 125/170/105 126/171/106
f 60/172/107 125/170/105 62/173/57
f 58/174/54 124/175/108 60/172/107
f 58/174/54 122/176/109 123/177/110
f 56/178/111 121/179/112 122/176/109
f 54/180/52 120/181/113 121/179/112
f 68/182/65 118/183/114 46/184/115
f 46/184/115 117/185/116 48/186/46
f 50/187/117 120/181/113 52/188/49
f 66/117/63 128/189/118 68/182/65
f 50/187/117 117/185/116 119/190/119
f 105/191/120 118/192/114 106/193/121
f 107/194/122 117/195/116 105/191/120
f 108/196/123 119/197/119 107/194/122
f 109/198/124 120/199/113 108/196/123
f 110/200/102 121/201/112 109/198/124
f 110/200/102 123/202/110 122/203/109
f 112/204/125 123/202/110 111/205/104
f 113/206/126 124/207/108 112/204/125
f 114/208/127 125/209/105 113/206/126
f 114/208/127 127/210/62 126/211/106
f 115/212/128 128/213/118 127/210/62
f 116/214/129 118/192/114 128/213/118
f 138/215/130 149/216/131 150/217/132
f 108/218/123 131/219/133 132/220/134
f 114/221/127 139/222/135 115/223/128
f 112/224/125 135/225/103 136/226/136
f 109/227/124 132/228/134 133/229/137
f 115/230/128 140/231/138 116/232/129
f 105/233/120 130/234/139 129/235/140
f 113/236/126 136/237/136 137/238/141
f 109/239/124 134/240/142 110/241/102
f 116/242/129 130/243/139 106/244/121
f 107/245/122 129/246/140 131/247/133
f 113/248/126 138/215/130 114/249/127
f 141/250/143 155/251/144 143/252/145
f 135/168/103 146/253/146 147/254/147
f 131/219/133 144/255/148 132/220/134
f 139/222/135 150/256/132 151/257/149
f 136/226/136 147/258/147 148/259/150
f 132/228/134 145/260/151 133/229/137
f 139/261/135 152/262/152 140/231/138
f 130/234/139 141/263/143 129/235/140
f 137/238/141 148/264/150 149/265/131
f 134/240/142 145/266/151 146/267/146
f 140/268/138 142/269/153 130/243/139
f 129/246/140 143/270/145 131/247/133
f 154/271/154 176/272/155 166/273/156
f 149/274/131 162/275/157 150/276/132
f 147/277/147 158/278/158 159/279/159
f 143/252/145 156/280/160 144/281/148
f 151/282/149 162/275/157 163/283/161
f 147/277/147 160/284/162 148/285/150
f 144/281/148 157/286/163 145/287/151
f 152/288/152 163/283/161 164/289/164
f 142/290/153 153/291/165 141/250/143
f 148/285/150 161/292/166 149/274/131
f 145/287/151 158/278/158 146/293/146
f 152/288/152 154/294/154 142/290/153
f 169/295/167 167/296/168 175/297/169
f 155/298/144 165/299/170 167/296/168
f 162/300/157 173/301/171 174/302/172
f 158/303/158 171/304/173 159/305/159
f 155/298/144 168/306/174 156/307/160
f 162/300/157 175/297/169 163/308/161
f 160/309/162 171/304/173 172/310/175
f 157/311/163 168/306/174 169/295/167
f 164/312/164 175/297/169 176/272/155
f 154/271/154 165/299/170 153/313/165
f 160/309/162 173/301/171 161/314/166
f 157/311/163 170/315/176 158/303/158
f 183/322/182 182/323/183 181/324/184
f 226/388/212 211/389/213 221/390/214
f 213/413/211 224/414/220 223/415/224
f 223/415/224 225/416/222 222/417/225
f 225/416/222 221/390/214 222/417/225
f 14/1/1 4/424/13 3/2/2
f 1/38/10 2/435/9 12/39/16
f 11/40/11 12/39/16 13/41/20
f 13/41/20 14/1/1 9/3/3
f 64/115/60 126/171/106 127/116/62
f 110/167/102 134/469/142 135/168/103
f 64/115/60 62/173/57 125/170/105
f 60/172/107 124/175/108 125/170/105
f 58/174/54 123/177/110 124/175/108
f 58/174/54 56/178/111 122/176/109
f 56/178/111 54/180/52 121/179/112
f 54/180/52 52/188/49 120/181/113
f 68/182/65 128/189/118 118/183/114
f 46/184/115 118/183/114 117/185/116
f 50/187/117 119/190/119 120/181/113
f 66/117/63 127/116/62 128/189/118
f 50/187/117 48/186/46 117/185/116
f 105/191/120 117/195/116 118/192/114
f 107/194/122 119/197/119 117/195/116
f 108/196/123 120/199/113 119/197/119
f 109/198/124 121/201/112 120/199/113
f 110/200/102 122/203/109 121/201/112
f 110/200/102 111/205/104 123/202/110
f 112/204/125 124/207/108 123/202/110
f 113/206/126 125/209/105 124/207/108
f 114/208/127 126/211/106 125/209/105
f 114/208/127 115/212/128 127/210/62
f 115/212/128 116/214/129 128/213/118
f 116/214/129 106/193/121 118/192/114
f 138/215/130 137/470/141 149/216/131
f 108/218/123 107/471/122 131/219/133
f 114/221/127 138/472/130 139/222/135
f 112/224/125 111/473/104 135/225/103
f 109/227/124 108/474/123 132/228/134
f 115/230/128 139/261/135 140/231/138
f 105/233/120 106/475/121 130/234/139
f 113/236/126 112/476/125 136/237/136
f 109/239/124 133/477/137 134/240/142
f 116/242/129 140/268/138 130/243/139
f 107/245/122 105/478/120 129/246/140
f 113/248/126 137/470/141 138/215/130
f 141/250/143 153/291/165 155/251/144
f 135/168/103 134/469/142 146/253/146
f 131/219/133 143/479/145 144/255/148
f 139/222/135 138/472/130 150/256/132
f 136/226/136 135/225/103 147/258/147
f 132/228/134 144/480/148 145/260/151
f 139/261/135 151/481/149 152/262/152
f 130/234/139 142/482/153 141/263/143
f 137/238/141 136/237/136 148/264/150
f 134/240/142 133/477/137 145/266/151
f 140/268/138 152/483/152 142/269/153
f 129/246/140 141/484/143 143/270/145
f 154/271/154 164/312/164 176/272/155
f 149/274/131 161/292/166 162/275/157
f 147/277/147 146/293/146 158/278/158
f 143/252/145 155/251/144 156/280/160
f 151/282/149 150/276/132 162/275/157
f 147/277/147 159/279/159 160/284/162
f 144/281/148 156/280/160 157/286/163
f 152/288/152 151/282/149 163/283/161
f 142/290/153 154/294/154 153/291/165
f 148/285/150 160/284/162 161/292/166
f 145/287/151 157/286/163 158/278/158
f 152/288/152 164/289/164 154/294/154
f 167/296/168 165/299/170 166/273/156
f 166/273/156 176/272/155 167/296/168
f 176/272/155 175/297/169 167/296/168
f 175/485/169 174/486/172 173/487/171
f 173/301/171 172/310/175 175/297/169
f 172/310/175 171/304/173 175/297/169
f 171/304/173 170/315/176 169/295/167
f 169/295/167 168/306/174 167/296/168
f 171/304/173 169/295/167 175/297/169
f 155/298/144 153/313/165 165/299/170
f 162/300/157 161/314/166 173/301/171
f 158/303/158 170/315/176 171/304/173
f 155/298/144 167/296/168 168/306/174
f 162/300/157 174/302/172 175/297/169
f 160/309/162 159/305/159 171/304/173
f 157/311/163 156/307/160 168/306/174
f 164/312/164 163/308/161 175/297/169
f 154/271/154 166/273/156 165/299/170
f 160/309/162 172/310/175 173/301/171
f 157/311/163 169/295/167 170/315/176
f 183/322/182 184/490/181 182/323/183
f 226/388/212 212/509/219 211/389/213
f 213/413/211 214/518/221 224/414/220
f 223/415/224 224/414/220 225/416/222
f 225/416/222 226/388/212 221/390/214
usemtl DroneWings
f 3/4/2 8/5/4 7/6/5
f 20/7/6 5/8/7 15/9/8
f 5/10/7 2/11/9 1/12/10
f 15/13/8 1/14/10 11/15/11
f 20/16/6 2/17/9 6/18/12
f 4/19/13 18/20/14 8/21/4
f 14/22/1 19/23/15 18/20/14
f 19/24/15 12/25/16 20/16/6
f 3/26/2 17/27/17 9/28/3
f 9/28/3 16/29/18 10/30/19
f 16/31/18 11/15/11 10/32/19
f 7/33/5 18/34/14 17/35/17
f 17/35/17 19/36/15 16/37/18
f 19/36/15 15/9/8 16/37/18
f 45/97/45 48/98/46 47/99/47
f 48/98/46 49/100/48 47/99/47
f 49/101/48 52/102/49 51/103/50
f 52/102/49 53/104/51 51/103/50
f 54/105/52 55/99/53 53/100/51
f 55/99/53 58/106/54 57/97/55
f 58/106/54 59/107/56 57/97/55
f 59/107/56 62/108/57 61/109/58
f 62/110/57 63/111/59 61/112/58
f 64/113/60 65/114/61 63/111/59
f 66/108/63 67/107/64 65/109/61
f 68/118/65 45/97/45 67/107/64
f 82/119/66 73/120/67 83/121/68
f 72/122/69 76/123/70 80/124/71
f 83/121/68 72/122/69 85/125/72
f 88/126/73 80/124/71 89/127/74
f 88/126/73 70/128/75 69/129/76
f 93/130/77 72/122/69 71/131/78
f 95/132/79 80/124/71 79/133/80
f 93/130/77 70/128/75 92/134/81
f 95/132/79 78/135/82 97/136/83
f 99/137/84 78/135/82 77/138/85
f 99/137/84 76/123/70 101/139/86
f 103/140/87 76/123/70 75/141/88
f 103/140/87 74/142/89 82/119/66
f 55/143/53 104/144/90 81/145/91
f 81/145/91 103/140/87 82/119/66
f 59/146/56 104/144/90 57/147/55
f 104/144/90 101/139/86 103/140/87
f 61/148/58 102/149/92 59/146/56
f 102/149/92 99/137/84 101/139/86
f 63/150/59 100/151/93 61/148/58
f 98/152/94 99/137/84 100/151/93
f 65/153/61 98/152/94 63/150/59
f 96/154/95 97/136/83 98/152/94
f 47/155/47 94/156/96 91/157/97
f 91/157/97 93/130/77 92/134/81
f 67/158/64 96/154/95 65/153/61
f 90/159/98 95/132/79 96/154/95
f 51/160/50 94/156/96 49/161/48
f 94/156/96 85/125/72 93/130/77
f 47/155/47 87/162/99 45/163/45
f 91/157/97 88/126/73 87/162/99
f 45/163/45 90/159/98 67/158/64
f 87/162/99 89/127/74 90/159/98
f 53/164/51 86/165/100 51/160/50
f 84/166/101 85/125/72 86/165/100
f 53/164/51 81/145/91 84/166/101
f 81/145/91 83/121/68 84/166/101
f 178/316/177 179/317/178 177/318/179
f 185/319/180 184/320/181 183/321/182
f 188/325/185 177/326/179 187/327/186
f 183/328/182 187/329/186 185/330/180
f 180/331/187 188/332/185 186/333/188
f 186/333/188 182/334/183 184/335/181
f 185/330/180 177/336/179 179/337/178
f 182/338/183 187/339/186 181/340/184
f 180/341/187 185/342/180 179/343/178
f 201/344/189 192/345/190 202/346/191
f 198/347/192 203/348/193 206/349/194
f 203/350/193 194/351/195 204/352/196
f 200/353/197 201/354/189 205/355/198
f 195/356/199 199/357/200 197/358/201
f 198/359/192 190/360/202 200/361/197
f 198/359/192 194/362/195 196/363/203
f 197/358/201 189/364/204 191/365/205
f 194/366/195 205/367/198 204/368/196
f 202/369/191 198/347/192 206/349/194
f 202/369/191 197/370/201 191/371/205
f 193/372/206 205/373/198 199/374/200
f 205/373/198 189/375/204 199/374/200
f 203/350/193 193/376/206 195/377/199
f 197/370/201 203/378/193 195/379/199
f 189/380/204 202/346/191 191/381/205
f 220/382/207 209/383/208 215/384/209
f 210/385/210 213/386/211 209/387/208
f 211/391/213 208/392/215 207/393/216
f 217/394/217 211/395/213 207/396/216
f 218/397/218 212/398/219 226/399/212
f 210/400/210 224/401/220 214/402/221
f 220/403/207 225/404/222 224/401/220
f 219/405/223 226/399/212 225/404/222
f 209/406/208 223/407/224 215/408/209
f 215/409/209 222/410/225 216/411/226
f 216/411/226 221/412/214 217/394/217
f 207/418/216 218/419/218 217/420/217
f 217/421/217 219/422/223 216/423/226
f 219/422/223 215/384/209 216/423/226
f 3/4/2 4/425/13 8/5/4
f 20/7/6 6/426/12 5/8/7
f 5/427/7 6/428/12 2/429/9
f 15/13/8 5/430/7 1/14/10
f 20/16/6 12/25/16 2/17/9
f 4/19/13 14/22/1 18/20/14
f 14/22/1 13/431/20 19/23/15
f 19/24/15 13/432/20 12/25/16
f 3/26/2 7/433/5 17/27/17
f 9/28/3 17/27/17 16/29/18
f 16/31/18 15/13/8 11/15/11
f 7/33/5 8/434/4 18/34/14
f 17/35/17 18/34/14 19/36/15
f 19/36/15 20/7/6 15/9/8
f 45/97/45 46/106/115 48/98/46
f 48/98/46 50/105/117 49/100/48
f 49/101/48 50/454/117 52/102/49
f 52/102/49 54/455/52 53/104/51
f 54/105/52 56/98/111 55/99/53
f 55/99/53 56/98/111 58/106/54
f 58/106/54 60/118/107 59/107/56
f 59/107/56 60/118/107 62/108/57
f 62/110/57 64/113/60 63/111/59
f 64/113/60 66/456/63 65/114/61
f 66/108/63 68/118/65 67/107/64
f 68/118/65 46/106/115 45/97/45
f 82/119/66 74/142/89 73/120/67
f 80/124/71 69/129/76 72/122/69
f 69/457/76 70/458/75 72/459/69
f 70/458/75 71/460/78 72/459/69
f 72/459/69 73/461/67 74/462/89
f 74/462/89 75/463/88 72/459/69
f 75/141/88 76/123/70 72/122/69
f 76/464/70 77/465/85 78/466/82
f 78/466/82 79/467/80 76/464/70
f 79/467/80 80/468/71 76/464/70
f 83/121/68 73/120/67 72/122/69
f 88/126/73 69/129/76 80/124/71
f 88/126/73 92/134/81 70/128/75
f 93/130/77 85/125/72 72/122/69
f 95/132/79 89/127/74 80/124/71
f 93/130/77 71/131/78 70/128/75
f 95/132/79 79/133/80 78/135/82
f 99/137/84 97/136/83 78/135/82
f 99/137/84 77/138/85 76/123/70
f 103/140/87 101/139/86 76/123/70
f 103/140/87 75/141/88 74/142/89
f 55/143/53 57/147/55 104/144/90
f 81/145/91 104/144/90 103/140/87
f 59/146/56 102/149/92 104/144/90
f 104/144/90 102/149/92 101/139/86
f 61/148/58 100/151/93 102/149/92
f 102/149/92 100/151/93 99/137/84
f 63/150/59 98/152/94 100/151/93
f 98/152/94 97/136/83 99/137/84
f 65/153/61 96/154/95 98/152/94
f 96/154/95 95/132/79 97/136/83
f 47/155/47 49/161/48 94/156/96
f 91/157/97 94/156/96 93/130/77
f 67/158/64 90/159/98 96/154/95
f 90/159/98 89/127/74 95/132/79
f 51/160/50 86/165/100 94/156/96
f 94/156/96 86/165/100 85/125/72
f 47/155/47 91/157/97 87/162/99
f 91/157/97 92/134/81 88/126/73
f 45/163/45 87/162/99 90/159/98
f 87/162/99 88/126/73 89/127/74
f 53/164/51 84/166/101 86/165/100
f 84/166/101 83/121/68 85/125/72
f 53/164/51 55/143/53 81/145/91
f 81/145/91 82/119/66 83/121/68
f 178/316/177 180/488/187 179/317/178
f 185/319/180 186/489/188 184/320/181
f 188/325/185 178/491/177 177/326/179
f 183/328/182 181/492/184 187/329/186
f 180/331/187 178/493/177 188/332/185
f 186/333/188 188/332/185 182/334/183
f 185/330/180 187/329/186 177/336/179
f 182/338/183 188/494/185 187/339/186
f 180/341/187 186/495/188 185/342/180
f 201/344/189 190/496/202 192/345/190
f 198/347/192 196/497/203 203/348/193
f 203/350/193 196/498/203 194/351/195
f 200/353/197 190/499/202 201/354/189
f 195/356/199 193/500/206 199/357/200
f 198/359/192 192/501/190 190/360/202
f 198/359/192 200/361/197 194/362/195
f 197/358/201 199/357/200 189/364/204
f 194/366/195 200/502/197 205/367/198
f 202/369/191 192/503/190 198/347/192
f 202/369/191 206/504/194 197/370/201
f 193/372/206 204/505/196 205/373/198
f 205/373/198 201/506/189 189/375/204
f 203/350/193 204/352/196 193/376/206
f 197/370/201 206/504/194 203/378/193
f 189/380/204 201/344/189 202/346/191
f 220/382/207 210/507/210 209/383/208
f 210/385/210 214/508/221 213/386/211
f 211/391/213 212/510/219 208/392/215
f 217/394/217 221/412/214 211/395/213
f 218/511/218 208/512/215 212/513/219
f 210/400/210 220/403/207 224/401/220
f 220/403/207 219/405/223 225/404/222
f 219/405/223 218/397/218 226/399/212
f 209/514/208 213/515/211 223/516/224
f 215/409/209 223/517/224 222/410/225
f 216/411/226 222/410/225 221/412/214
f 207/418/216 208/519/215 218/419/218
f 217/421/217 218/520/218 219/422/223
f 219/422/223 220/382/207 215/384/209
usemtl Drone_Propeler
f 21/43/21 24/44/22 23/45/23
f 24/46/22 27/47/24 23/48/23
f 27/49/24 26/50/25 25/51/26
f 25/52/26 22/53/27 21/54/21
f 23/55/23 25/56/26 21/57/21
f 28/58/28 22/59/27 26/60/25
f 29/61/29 32/62/30 31/63/31
f 32/64/30 35/65/32 31/66/31
f 35/67/32 34/68/33 33/69/34
f 33/70/34 30/71/35 29/72/29
f 31/73/31 33/74/34 29/75/29
f 36/76/36 30/77/35 34/78/33
f 37/79/37 40/80/38 39/81/39
f 40/82/38 43/83/40 39/84/39
f 43/85/40 42/86/41 41/87/42
f 41/88/42 38/89/43 37/90/37
f 39/91/39 41/92/42 37/93/37
f 44/94/44 38/95/43 42/96/41
f 21/43/21 22/436/27 24/44/22
f 24/46/22 28/437/28 27/47/24
f 27/49/24 28/438/28 26/50/25
f 25/52/26 26/439/25 22/53/27
f 23/55/23 27/440/24 25/56/26
f 28/58/28 24/441/22 22/59/27
f 29/61/29 30/442/35 32/62/30
f 32/64/30 36/443/36 35/65/32
f 35/67/32 36/444/36 34/68/33
f 33/70/34 34/445/33 30/71/35
f 31/73/31 35/446/32 33/74/34
f 36/76/36 32/447/30 30/77/35
f 37/79/37 38/448/43 40/80/38
f 40/82/38 44/449/44 43/83/40
f 43/85/40 44/450/44 42/86/41
f 41/88/42 42/451/41 38/89/43
f 39/91/39 43/452/40 41/92/42
f 44/94/44 40/453/38 38/95/43
