# Blender 4.0.2
# www.blender.org
mtllib PSXBlood.mtl
o Sphere.001
v 0.000000 0.009732 -0.005556
v 0.000000 0.005582 -0.008315
v 0.000000 0.001951 -0.009808
v 0.000000 0.000000 -0.010000
v 0.000000 -0.001951 -0.009808
v 0.000000 -0.005556 -0.008315
v 0.000381 0.015016 -0.001913
v 0.000747 0.012236 -0.003753
v 0.001084 0.009732 -0.005449
v 0.001379 0.007515 -0.006935
v 0.001622 0.005582 -0.008155
v 0.001802 0.003827 -0.009061
v 0.001913 0.001951 -0.009619
v 0.001951 0.000000 -0.009808
v 0.001913 -0.001951 -0.009619
v 0.001802 -0.003827 -0.009061
v 0.001622 -0.005556 -0.008155
v 0.001379 -0.007071 -0.006935
v 0.001084 -0.008315 -0.005449
v 0.000747 -0.009239 -0.003753
v 0.000381 -0.009808 -0.001913
v 0.000747 0.015016 -0.001802
v 0.001464 0.012236 -0.003536
v 0.002126 0.009732 -0.005133
v 0.002706 0.007515 -0.006533
v 0.003182 0.005582 -0.007682
v 0.003536 0.003827 -0.008536
v 0.003753 0.001951 -0.009061
v 0.003827 0.000000 -0.009239
v 0.003753 -0.001951 -0.009061
v 0.003536 -0.003827 -0.008536
v 0.003182 -0.005556 -0.007682
v 0.002706 -0.007071 -0.006533
v 0.002126 -0.008315 -0.005133
v 0.001464 -0.009239 -0.003536
v 0.000747 -0.009808 -0.001802
v 0.001084 0.015016 -0.001622
v 0.002126 0.012236 -0.003182
v 0.003087 0.009732 -0.004619
v 0.003928 0.007515 -0.005879
v 0.004619 0.005582 -0.006913
v 0.005133 0.003827 -0.007682
v 0.005449 0.001951 -0.008155
v 0.005556 0.000000 -0.008315
v 0.005449 -0.001951 -0.008155
v 0.005133 -0.003827 -0.007682
v 0.004619 -0.005556 -0.006913
v 0.003928 -0.007071 -0.005879
v 0.003087 -0.008315 -0.004619
v 0.002126 -0.009239 -0.003182
v 0.001084 -0.009808 -0.001622
v 0.001379 0.015016 -0.001379
v 0.002706 0.012236 -0.002706
v 0.003928 0.009732 -0.003928
v 0.005000 0.007515 -0.005000
v 0.005879 0.005582 -0.005879
v 0.006533 0.003827 -0.006533
v 0.006935 0.001951 -0.006935
v 0.007071 0.000000 -0.007071
v 0.006935 -0.001951 -0.006935
v 0.006533 -0.003827 -0.006533
v 0.005879 -0.005556 -0.005879
v 0.005000 -0.007071 -0.005000
v 0.003928 -0.008315 -0.003928
v 0.002706 -0.009239 -0.002706
v 0.001379 -0.009808 -0.001379
v 0.001622 0.015016 -0.001084
v 0.003182 0.012236 -0.002126
v 0.004619 0.009732 -0.003087
v 0.005879 0.007515 -0.003928
v 0.006913 0.005582 -0.004619
v 0.007682 0.003827 -0.005133
v 0.008155 0.001951 -0.005449
v 0.008315 0.000000 -0.005556
v 0.008155 -0.001951 -0.005449
v 0.007682 -0.003827 -0.005133
v 0.006913 -0.005556 -0.004619
v 0.005879 -0.007071 -0.003928
v 0.004619 -0.008315 -0.003087
v 0.003182 -0.009239 -0.002126
v 0.001622 -0.009808 -0.001084
v 0.000000 0.018058 0.000000
v 0.001802 0.015016 -0.000747
v 0.003536 0.012236 -0.001464
v 0.005133 0.009732 -0.002126
v 0.006533 0.007515 -0.002706
v 0.007682 0.005582 -0.003182
v 0.008536 0.003827 -0.003536
v 0.009061 0.001951 -0.003753
v 0.009239 0.000000 -0.003827
v 0.009061 -0.001951 -0.003753
v 0.008536 -0.003827 -0.003536
v 0.007682 -0.005556 -0.003182
v 0.006533 -0.007071 -0.002706
v 0.005133 -0.008315 -0.002126
v 0.003536 -0.009239 -0.001464
v 0.001802 -0.009808 -0.000747
v 0.001913 0.015016 -0.000381
v 0.003753 0.012236 -0.000747
v 0.005449 0.009732 -0.001084
v 0.006935 0.007515 -0.001379
v 0.008155 0.005582 -0.001622
v 0.009061 0.003827 -0.001802
v 0.009619 0.001951 -0.001913
v 0.009808 0.000000 -0.001951
v 0.009619 -0.001951 -0.001913
v 0.009061 -0.003827 -0.001802
v 0.008155 -0.005556 -0.001622
v 0.006935 -0.007071 -0.001379
v 0.005449 -0.008315 -0.001084
v 0.003753 -0.009239 -0.000747
v 0.001913 -0.009808 -0.000381
v 0.001951 0.015016 0.000000
v 0.003827 0.012236 0.000000
v 0.005556 0.009732 0.000000
v 0.007071 0.007515 -0.000000
v 0.008315 0.005582 0.000000
v 0.009239 0.003827 -0.000000
v 0.009808 0.001951 0.000000
v 0.010000 0.000000 0.000000
v 0.009808 -0.001951 0.000000
v 0.009239 -0.003827 -0.000000
v 0.008315 -0.005556 0.000000
v 0.007071 -0.007071 -0.000000
v 0.005556 -0.008315 0.000000
v 0.003827 -0.009239 0.000000
v 0.001951 -0.009808 0.000000
v 0.001913 0.015016 0.000381
v 0.003753 0.012236 0.000747
v 0.005449 0.009732 0.001084
v 0.006935 0.007515 0.001379
v 0.008155 0.005582 0.001622
v 0.009061 0.003827 0.001802
v 0.009619 0.001951 0.001913
v 0.009808 0.000000 0.001951
v 0.009619 -0.001951 0.001913
v 0.009061 -0.003827 0.001802
v 0.008155 -0.005556 0.001622
v 0.006935 -0.007071 0.001379
v 0.005449 -0.008315 0.001084
v 0.003753 -0.009239 0.000747
v 0.001913 -0.009808 0.000381
v 0.001802 0.015016 0.000747
v 0.003536 0.012236 0.001464
v 0.005133 0.009732 0.002126
v 0.006533 0.007515 0.002706
v 0.007682 0.005582 0.003182
v 0.008536 0.003827 0.003536
v 0.009061 0.001951 0.003753
v 0.009239 0.000000 0.003827
v 0.009061 -0.001951 0.003753
v 0.008536 -0.003827 0.003536
v 0.007682 -0.005556 0.003182
v 0.006533 -0.007071 0.002706
v 0.005133 -0.008315 0.002126
v 0.003536 -0.009239 0.001464
v 0.001802 -0.009808 0.000747
v 0.001622 0.015016 0.001084
v 0.003182 0.012236 0.002126
v 0.004619 0.009732 0.003087
v 0.005879 0.007515 0.003928
v 0.006913 0.005582 0.004619
v 0.007682 0.003827 0.005133
v 0.008155 0.001951 0.005449
v 0.008315 0.000000 0.005556
v 0.008155 -0.001951 0.005449
v 0.007682 -0.003827 0.005133
v 0.006913 -0.005556 0.004619
v 0.005879 -0.007071 0.003928
v 0.004619 -0.008315 0.003087
v 0.003182 -0.009239 0.002126
v 0.001622 -0.009808 0.001084
v 0.001379 0.015016 0.001379
v 0.002706 0.012236 0.002706
v 0.003928 0.009732 0.003928
v 0.005000 0.007515 0.005000
v 0.005879 0.005582 0.005879
v 0.006533 0.003827 0.006533
v 0.006935 0.001951 0.006935
v 0.007071 0.000000 0.007071
v 0.006935 -0.001951 0.006935
v 0.006533 -0.003827 0.006533
v 0.005879 -0.005556 0.005879
v 0.005000 -0.007071 0.005000
v 0.003928 -0.008315 0.003928
v 0.002706 -0.009239 0.002706
v 0.001379 -0.009808 0.001379
v 0.001084 0.015016 0.001622
v 0.002126 0.012236 0.003182
v 0.003087 0.009732 0.004619
v 0.003928 0.007515 0.005879
v 0.004619 0.005582 0.006913
v 0.005133 0.003827 0.007682
v 0.005449 0.001951 0.008155
v 0.005556 0.000000 0.008315
v 0.005449 -0.001951 0.008155
v 0.005133 -0.003827 0.007682
v 0.004619 -0.005556 0.006913
v 0.003928 -0.007071 0.005879
v 0.003087 -0.008315 0.004619
v 0.002126 -0.009239 0.003182
v 0.001084 -0.009808 0.001622
v 0.000747 0.015016 0.001802
v 0.001464 0.012236 0.003536
v 0.002126 0.009732 0.005133
v 0.002706 0.007515 0.006533
v 0.003182 0.005582 0.007682
v 0.003536 0.003827 0.008536
v 0.003753 0.001951 0.009061
v 0.003827 0.000000 0.009239
v 0.003753 -0.001951 0.009061
v 0.003536 -0.003827 0.008536
v 0.003182 -0.005556 0.007682
v 0.002706 -0.007071 0.006533
v 0.002126 -0.008315 0.005133
v 0.001464 -0.009239 0.003536
v 0.000747 -0.009808 0.001802
v 0.000381 0.015016 0.001913
v 0.000747 0.012236 0.003753
v 0.001084 0.009732 0.005449
v 0.001379 0.007515 0.006935
v 0.001622 0.005582 0.008155
v 0.001802 0.003827 0.009061
v 0.001913 0.001951 0.009619
v 0.001951 0.000000 0.009808
v 0.001913 -0.001951 0.009619
v 0.001802 -0.003827 0.009061
v 0.001622 -0.005556 0.008155
v 0.001379 -0.007071 0.006935
v 0.001084 -0.008315 0.005449
v 0.000747 -0.009239 0.003753
v 0.000381 -0.009808 0.001913
v -0.000000 0.015016 0.001951
v -0.000000 0.012236 0.003827
v -0.000000 0.009732 0.005556
v -0.000000 0.007515 0.007071
v -0.000000 0.005582 0.008315
v 0.000000 0.003827 0.009239
v -0.000000 0.001951 0.009808
v -0.000000 0.000000 0.010000
v -0.000000 -0.001951 0.009808
v 0.000000 -0.003827 0.009239
v -0.000000 -0.005556 0.008315
v -0.000000 -0.007071 0.007071
v -0.000000 -0.008315 0.005556
v -0.000000 -0.009239 0.003827
v -0.000000 -0.009808 0.001951
v -0.000381 0.015016 0.001913
v -0.000747 0.012236 0.003753
v -0.001084 0.009732 0.005449
v -0.001379 0.007515 0.006935
v -0.001622 0.005582 0.008155
v -0.001802 0.003827 0.009061
v -0.001913 0.001951 0.009619
v -0.001951 0.000000 0.009808
v -0.001913 -0.001951 0.009619
v -0.001802 -0.003827 0.009061
v -0.001622 -0.005556 0.008155
v -0.001379 -0.007071 0.006935
v -0.001084 -0.008315 0.005449
v -0.000747 -0.009239 0.003753
v -0.000381 -0.009808 0.001913
v -0.000747 0.015016 0.001802
v -0.001464 0.012236 0.003536
v -0.002126 0.009732 0.005133
v -0.002706 0.007515 0.006533
v -0.003182 0.005582 0.007682
v -0.003536 0.003827 0.008536
v -0.003753 0.001951 0.009061
v -0.003827 0.000000 0.009239
v -0.003753 -0.001951 0.009061
v -0.003536 -0.003827 0.008536
v -0.003182 -0.005556 0.007682
v -0.002706 -0.007071 0.006533
v -0.002126 -0.008315 0.005133
v -0.001464 -0.009239 0.003536
v -0.000747 -0.009808 0.001802
v -0.001084 0.015016 0.001622
v -0.002126 0.012236 0.003182
v -0.003087 0.009732 0.004619
v -0.003928 0.007515 0.005879
v -0.004619 0.005582 0.006913
v -0.005133 0.003827 0.007682
v -0.005449 0.001951 0.008155
v -0.005556 0.000000 0.008315
v -0.005449 -0.001951 0.008155
v -0.005133 -0.003827 0.007682
v -0.004619 -0.005556 0.006913
v -0.003928 -0.007071 0.005879
v -0.003087 -0.008315 0.004619
v -0.002126 -0.009239 0.003182
v -0.001084 -0.009808 0.001622
v -0.001379 0.015016 0.001379
v -0.002706 0.012236 0.002706
v -0.003928 0.009732 0.003928
v -0.005000 0.007515 0.005000
v -0.005879 0.005582 0.005879
v -0.006533 0.003827 0.006533
v -0.006935 0.001951 0.006935
v -0.007071 0.000000 0.007071
v -0.006935 -0.001951 0.006935
v -0.006533 -0.003827 0.006533
v -0.005879 -0.005556 0.005879
v -0.005000 -0.007071 0.005000
v -0.003928 -0.008315 0.003928
v -0.002706 -0.009239 0.002706
v -0.001379 -0.009808 0.001379
v 0.000000 -0.010000 0.000000
v -0.001622 0.015016 0.001084
v -0.003182 0.012236 0.002126
v -0.004619 0.009732 0.003087
v -0.005879 0.007515 0.003928
v -0.006913 0.005582 0.004619
v -0.007682 0.003827 0.005133
v -0.008155 0.001951 0.005449
v -0.008315 0.000000 0.005556
v -0.008155 -0.001951 0.005449
v -0.007682 -0.003827 0.005133
v -0.006913 -0.005556 0.004619
v -0.005879 -0.007071 0.003928
v -0.004619 -0.008315 0.003087
v -0.003182 -0.009239 0.002126
v -0.001622 -0.009808 0.001084
v -0.001802 0.015016 0.000747
v -0.003536 0.012236 0.001464
v -0.005133 0.009732 0.002126
v -0.006533 0.007515 0.002706
v -0.007682 0.005582 0.003182
v -0.008536 0.003827 0.003536
v -0.009061 0.001951 0.003753
v -0.009239 0.000000 0.003827
v -0.009061 -0.001951 0.003753
v -0.008536 -0.003827 0.003536
v -0.007682 -0.005556 0.003182
v -0.006533 -0.007071 0.002706
v -0.005133 -0.008315 0.002126
v -0.003536 -0.009239 0.001464
v -0.001802 -0.009808 0.000747
v -0.001913 0.015016 0.000381
v -0.003753 0.012236 0.000747
v -0.005449 0.009732 0.001084
v -0.006935 0.007515 0.001379
v -0.008155 0.005582 0.001622
v -0.009061 0.003827 0.001802
v -0.009619 0.001951 0.001913
v -0.009808 0.000000 0.001951
v -0.009619 -0.001951 0.001913
v -0.009061 -0.003827 0.001802
v -0.008155 -0.005556 0.001622
v -0.006935 -0.007071 0.001379
v -0.005449 -0.008315 0.001084
v -0.003753 -0.009239 0.000747
v -0.001913 -0.009808 0.000381
v -0.001951 0.015016 -0.000000
v -0.003827 0.012236 -0.000000
v -0.005556 0.009732 -0.000000
v -0.007071 0.007515 -0.000000
v -0.008315 0.005582 -0.000000
v -0.009239 0.003827 -0.000000
v -0.009808 0.001951 -0.000000
v -0.010000 0.000000 -0.000000
v -0.009808 -0.001951 -0.000000
v -0.009239 -0.003827 -0.000000
v -0.008315 -0.005556 -0.000000
v -0.007071 -0.007071 -0.000000
v -0.005556 -0.008315 -0.000000
v -0.003827 -0.009239 -0.000000
v -0.001951 -0.009808 -0.000000
v -0.001913 0.015016 -0.000381
v -0.003753 0.012236 -0.000747
v -0.005449 0.009732 -0.001084
v -0.006935 0.007515 -0.001379
v -0.008155 0.005582 -0.001622
v -0.009061 0.003827 -0.001802
v -0.009619 0.001951 -0.001913
v -0.009808 0.000000 -0.001951
v -0.009619 -0.001951 -0.001913
v -0.009061 -0.003827 -0.001802
v -0.008155 -0.005556 -0.001622
v -0.006935 -0.007071 -0.001379
v -0.005449 -0.008315 -0.001084
v -0.003753 -0.009239 -0.000747
v -0.001913 -0.009808 -0.000381
v -0.001802 0.015016 -0.000747
v -0.003536 0.012236 -0.001464
v -0.005133 0.009732 -0.002126
v -0.006533 0.007515 -0.002706
v -0.007682 0.005582 -0.003182
v -0.008536 0.003827 -0.003536
v -0.009061 0.001951 -0.003753
v -0.009239 0.000000 -0.003827
v -0.009061 -0.001951 -0.003753
v -0.008536 -0.003827 -0.003536
v -0.007682 -0.005556 -0.003182
v -0.006533 -0.007071 -0.002706
v -0.005133 -0.008315 -0.002126
v -0.003536 -0.009239 -0.001464
v -0.001802 -0.009808 -0.000747
v -0.001622 0.015016 -0.001084
v -0.003182 0.012236 -0.002126
v -0.004619 0.009732 -0.003087
v -0.005879 0.007515 -0.003928
v -0.006913 0.005582 -0.004619
v -0.007682 0.003827 -0.005133
v -0.008155 0.001951 -0.005449
v -0.008315 0.000000 -0.005556
v -0.008155 -0.001951 -0.005449
v -0.007682 -0.003827 -0.005133
v -0.006913 -0.005556 -0.004619
v -0.005879 -0.007071 -0.003928
v -0.004619 -0.008315 -0.003087
v -0.003182 -0.009239 -0.002126
v -0.001622 -0.009808 -0.001084
v -0.001379 0.015016 -0.001379
v -0.002706 0.012236 -0.002706
v -0.003928 0.009732 -0.003928
v -0.005000 0.007515 -0.005000
v -0.005879 0.005582 -0.005879
v -0.006533 0.003827 -0.006533
v -0.006935 0.001951 -0.006935
v -0.007071 0.000000 -0.007071
v -0.006935 -0.001951 -0.006935
v -0.006533 -0.003827 -0.006533
v -0.005879 -0.005556 -0.005879
v -0.005000 -0.007071 -0.005000
v -0.003928 -0.008315 -0.003928
v -0.002706 -0.009239 -0.002706
v -0.001379 -0.009808 -0.001379
v -0.001084 0.015016 -0.001622
v -0.002126 0.012236 -0.003182
v -0.003087 0.009732 -0.004619
v -0.003928 0.007515 -0.005879
v -0.004619 0.005582 -0.006913
v -0.005133 0.003827 -0.007682
v -0.005449 0.001951 -0.008155
v -0.005556 0.000000 -0.008315
v -0.005449 -0.001951 -0.008155
v -0.005133 -0.003827 -0.007682
v -0.004619 -0.005556 -0.006913
v -0.003928 -0.007071 -0.005879
v -0.003087 -0.008315 -0.004619
v -0.002126 -0.009239 -0.003182
v -0.001084 -0.009808 -0.001622
v -0.000747 0.015016 -0.001802
v -0.001464 0.012236 -0.003536
v -0.002126 0.009732 -0.005133
v -0.002706 0.007515 -0.006533
v -0.003182 0.005582 -0.007682
v -0.003536 0.003827 -0.008536
v -0.003753 0.001951 -0.009061
v -0.003827 0.000000 -0.009239
v -0.003753 -0.001951 -0.009061
v -0.003536 -0.003827 -0.008536
v -0.003182 -0.005556 -0.007682
v -0.002706 -0.007071 -0.006533
v -0.002126 -0.008315 -0.005133
v -0.001464 -0.009239 -0.003536
v -0.000747 -0.009808 -0.001802
v -0.000381 0.015016 -0.001913
v -0.000747 0.012236 -0.003753
v -0.001084 0.009732 -0.005449
v -0.001379 0.007515 -0.006935
v -0.001622 0.005582 -0.008155
v -0.001802 0.003827 -0.009061
v -0.001913 0.001951 -0.009619
v -0.001951 0.000000 -0.009808
v -0.001913 -0.001951 -0.009619
v -0.001802 -0.003827 -0.009061
v -0.001622 -0.005556 -0.008155
v -0.001379 -0.007071 -0.006935
v -0.001084 -0.008315 -0.005449
v -0.000747 -0.009239 -0.003753
v -0.000381 -0.009808 -0.001913
v 0.000000 0.015016 -0.001951
v 0.000000 0.012236 -0.003827
v 0.000000 0.007515 -0.007071
v 0.000000 0.003827 -0.009239
v 0.000000 -0.003827 -0.009239
v 0.000000 -0.007071 -0.007071
v 0.000000 -0.008315 -0.005556
v 0.000000 -0.009239 -0.003827
v 0.000000 -0.009808 -0.001951
vn -0.0000 -0.0000 -1.0000
vn -0.0000 0.1939 -0.9810
vn 0.1914 0.1939 -0.9622
vn 0.1951 -0.0000 -0.9808
vn -0.0000 0.5499 -0.8352
vn -0.0000 1.0000 -0.0000
vn 0.1629 0.5499 -0.8192
vn -0.0000 -1.0000 -0.0000
vn -0.0000 -0.9796 -0.2010
vn 0.0392 -0.9796 -0.1971
vn -0.0000 -0.1939 -0.9810
vn 0.1914 -0.1939 -0.9622
vn -0.0000 0.5639 -0.8258
vn 0.1611 0.5639 -0.8100
vn -0.0000 -0.3805 -0.9248
vn 0.1804 -0.3805 -0.9070
vn -0.0000 0.5662 -0.8243
vn 0.1608 0.5662 -0.8084
vn -0.0000 -0.5528 -0.8333
vn 0.1626 -0.5528 -0.8173
vn -0.0000 0.5523 -0.8336
vn 0.1626 0.5523 -0.8176
vn -0.0000 -0.7041 -0.7101
vn 0.1385 -0.7041 -0.6965
vn -0.0000 0.5028 -0.8644
vn 0.1686 0.5028 -0.8478
vn -0.0000 -0.8286 -0.5598
vn 0.1092 -0.8286 -0.5490
vn -0.0000 0.3777 -0.9259
vn 0.1806 0.3777 -0.9081
vn -0.0000 -0.9217 -0.3879
vn 0.0757 -0.9217 -0.3804
vn 0.2142 -0.8286 -0.5172
vn 0.1484 -0.9217 -0.3584
vn 0.3543 0.3777 -0.8554
vn 0.3754 0.1939 -0.9063
vn 0.0769 -0.9796 -0.1857
vn 0.3827 -0.0000 -0.9239
vn 0.3196 0.5499 -0.7716
vn 0.3754 -0.1939 -0.9063
vn 0.3160 0.5639 -0.7630
vn 0.3539 -0.3805 -0.8544
vn 0.3154 0.5662 -0.7615
vn 0.3189 -0.5528 -0.7699
vn 0.3190 0.5523 -0.7702
vn 0.2718 -0.7041 -0.6561
vn 0.3308 0.5028 -0.7986
vn 0.5138 -0.3805 -0.7689
vn 0.4630 -0.5528 -0.6929
vn 0.4580 0.5662 -0.6854
vn 0.4631 0.5523 -0.6931
vn 0.3945 -0.7041 -0.5905
vn 0.4802 0.5028 -0.7187
vn 0.3110 -0.8286 -0.4654
vn 0.5144 0.3777 -0.7699
vn 0.2155 -0.9217 -0.3225
vn 0.5450 0.1939 -0.8157
vn 0.1117 -0.9796 -0.1671
vn 0.5556 -0.0000 -0.8315
vn 0.4640 0.5499 -0.6945
vn 0.5450 -0.1939 -0.8157
vn 0.4588 0.5639 -0.6866
vn 0.2743 -0.9217 -0.2743
vn 0.1421 -0.9796 -0.1421
vn 0.6937 0.1939 -0.6937
vn 0.7071 -0.0000 -0.7071
vn 0.5906 0.5499 -0.5906
vn 0.6937 -0.1939 -0.6937
vn 0.5839 0.5639 -0.5839
vn 0.6539 -0.3805 -0.6539
vn 0.5829 0.5662 -0.5829
vn 0.5893 -0.5528 -0.5893
vn 0.5895 0.5523 -0.5895
vn 0.5021 -0.7041 -0.5021
vn 0.6112 0.5028 -0.6112
vn 0.3958 -0.8286 -0.3958
vn 0.6547 0.3777 -0.6547
vn 0.6854 0.5662 -0.4580
vn 0.6931 0.5523 -0.4631
vn 0.6929 -0.5528 -0.4630
vn 0.5905 -0.7041 -0.3945
vn 0.7187 0.5028 -0.4802
vn 0.4654 -0.8286 -0.3110
vn 0.7699 0.3777 -0.5144
vn 0.3225 -0.9217 -0.2155
vn 0.8157 0.1939 -0.5450
vn 0.1671 -0.9796 -0.1117
vn 0.8315 -0.0000 -0.5556
vn 0.6945 0.5499 -0.4640
vn 0.8157 -0.1939 -0.5450
vn 0.6866 0.5639 -0.4588
vn 0.7689 -0.3805 -0.5138
vn 0.9063 0.1939 -0.3754
vn 0.9239 -0.0000 -0.3827
vn 0.7716 0.5499 -0.3196
vn 0.1857 -0.9796 -0.0769
vn 0.9063 -0.1939 -0.3754
vn 0.7630 0.5639 -0.3160
vn 0.8544 -0.3805 -0.3539
vn 0.7615 0.5662 -0.3154
vn 0.7699 -0.5528 -0.3189
vn 0.7702 0.5523 -0.3190
vn 0.6561 -0.7041 -0.2718
vn 0.7986 0.5028 -0.3308
vn 0.5172 -0.8286 -0.2142
vn 0.8554 0.3777 -0.3543
vn 0.3584 -0.9217 -0.1484
vn 0.8173 -0.5528 -0.1626
vn 0.6965 -0.7041 -0.1385
vn 0.8176 0.5523 -0.1626
vn 0.8478 0.5028 -0.1686
vn 0.5490 -0.8286 -0.1092
vn 0.9081 0.3777 -0.1806
vn 0.3804 -0.9217 -0.0757
vn 0.9622 0.1939 -0.1914
vn 0.1971 -0.9796 -0.0392
vn 0.9808 -0.0000 -0.1951
vn 0.8192 0.5499 -0.1629
vn 0.9622 -0.1939 -0.1914
vn 0.8100 0.5639 -0.1611
vn 0.9070 -0.3805 -0.1804
vn 0.8084 0.5662 -0.1608
vn 0.8352 0.5499 -0.0000
vn 0.2010 -0.9796 -0.0000
vn 1.0000 -0.0000 -0.0000
vn 0.9810 -0.1939 -0.0000
vn 0.8258 0.5639 -0.0000
vn 0.9248 -0.3805 -0.0000
vn 0.8243 0.5662 -0.0000
vn 0.8333 -0.5528 -0.0000
vn 0.8336 0.5523 -0.0000
vn 0.7101 -0.7041 -0.0000
vn 0.8644 0.5028 -0.0000
vn 0.5598 -0.8286 -0.0000
vn 0.9259 0.3777 -0.0000
vn 0.3879 -0.9217 -0.0000
vn 0.9810 0.1939 -0.0000
vn 0.8176 0.5523 0.1626
vn 0.8478 0.5028 0.1686
vn 0.6965 -0.7041 0.1385
vn 0.5490 -0.8286 0.1092
vn 0.9081 0.3777 0.1806
vn 0.3804 -0.9217 0.0757
vn 0.9622 0.1939 0.1914
vn 0.1971 -0.9796 0.0392
vn 0.9808 -0.0000 0.1951
vn 0.8192 0.5499 0.1629
vn 0.9622 -0.1939 0.1914
vn 0.8100 0.5639 0.1611
vn 0.9070 -0.3805 0.1804
vn 0.8084 0.5662 0.1608
vn 0.8173 -0.5528 0.1626
vn 0.9239 -0.0000 0.3827
vn 0.9063 -0.1939 0.3754
vn 0.7716 0.5499 0.3196
vn 0.7630 0.5639 0.3160
vn 0.8544 -0.3805 0.3539
vn 0.7615 0.5662 0.3154
vn 0.7699 -0.5528 0.3189
vn 0.7702 0.5523 0.3190
vn 0.6561 -0.7041 0.2718
vn 0.7986 0.5028 0.3308
vn 0.5172 -0.8286 0.2142
vn 0.8554 0.3777 0.3543
vn 0.3584 -0.9217 0.1484
vn 0.9063 0.1939 0.3754
vn 0.1857 -0.9796 0.0769
vn 0.5905 -0.7041 0.3945
vn 0.4654 -0.8286 0.3110
vn 0.7187 0.5028 0.4802
vn 0.7699 0.3777 0.5144
vn 0.3225 -0.9217 0.2155
vn 0.8157 0.1939 0.5450
vn 0.1671 -0.9796 0.1117
vn 0.8315 -0.0000 0.5556
vn 0.6945 0.5499 0.4640
vn 0.8157 -0.1939 0.5450
vn 0.6866 0.5639 0.4588
vn 0.7689 -0.3805 0.5138
vn 0.6854 0.5662 0.4580
vn 0.6929 -0.5528 0.4630
vn 0.6931 0.5523 0.4631
vn 0.6937 -0.1939 0.6937
vn 0.6539 -0.3805 0.6539
vn 0.5839 0.5639 0.5839
vn 0.5829 0.5662 0.5829
vn 0.5893 -0.5528 0.5893
vn 0.5895 0.5523 0.5895
vn 0.5021 -0.7041 0.5021
vn 0.6112 0.5028 0.6112
vn 0.3958 -0.8286 0.3958
vn 0.6547 0.3777 0.6547
vn 0.2743 -0.9217 0.2743
vn 0.6937 0.1939 0.6937
vn 0.1421 -0.9796 0.1421
vn 0.7071 -0.0000 0.7071
vn 0.5906 0.5499 0.5906
vn 0.3110 -0.8286 0.4654
vn 0.2155 -0.9217 0.3225
vn 0.5144 0.3777 0.7699
vn 0.5450 0.1939 0.8157
vn 0.1117 -0.9796 0.1671
vn 0.5556 -0.0000 0.8315
vn 0.4640 0.5499 0.6945
vn 0.5450 -0.1939 0.8157
vn 0.4588 0.5639 0.6866
vn 0.5138 -0.3805 0.7689
vn 0.4579 0.5662 0.6854
vn 0.4630 -0.5528 0.6929
vn 0.4631 0.5523 0.6931
vn 0.3945 -0.7041 0.5905
vn 0.4802 0.5028 0.7187
vn 0.3160 0.5639 0.7630
vn 0.3154 0.5662 0.7615
vn 0.3539 -0.3805 0.8544
vn 0.3189 -0.5528 0.7699
vn 0.3190 0.5523 0.7702
vn 0.2718 -0.7041 0.6561
vn 0.3308 0.5028 0.7986
vn 0.2142 -0.8286 0.5172
vn 0.3543 0.3777 0.8554
vn 0.1484 -0.9217 0.3584
vn 0.3754 0.1939 0.9063
vn 0.0769 -0.9796 0.1857
vn 0.3827 -0.0000 0.9239
vn 0.3196 0.5499 0.7716
vn 0.3754 -0.1939 0.9063
vn 0.1806 0.3777 0.9081
vn 0.1914 0.1939 0.9622
vn 0.0757 -0.9217 0.3804
vn 0.0392 -0.9796 0.1971
vn 0.1951 -0.0000 0.9808
vn 0.1629 0.5499 0.8192
vn 0.1914 -0.1939 0.9622
vn 0.1611 0.5639 0.8100
vn 0.1804 -0.3805 0.9070
vn 0.1608 0.5662 0.8084
vn 0.1626 -0.5528 0.8173
vn 0.1626 0.5523 0.8176
vn 0.1385 -0.7041 0.6965
vn 0.1686 0.5028 0.8478
vn 0.1092 -0.8286 0.5490
vn -0.0000 -0.3805 0.9248
vn -0.0000 -0.5528 0.8333
vn -0.0000 0.5662 0.8243
vn -0.0000 0.5523 0.8336
vn -0.0000 -0.7041 0.7101
vn -0.0000 0.5028 0.8644
vn -0.0000 -0.8286 0.5598
vn -0.0000 0.3777 0.9259
vn -0.0000 -0.9217 0.3879
vn -0.0000 0.1939 0.9810
vn -0.0000 -0.9796 0.2010
vn -0.0000 -0.0000 1.0000
vn -0.0000 0.5499 0.8352
vn -0.0000 -0.1939 0.9810
vn -0.0000 0.5639 0.8258
vn -0.0757 -0.9217 0.3804
vn -0.0392 -0.9796 0.1971
vn -0.1914 0.1939 0.9622
vn -0.1951 -0.0000 0.9808
vn -0.1629 0.5499 0.8192
vn -0.1914 -0.1939 0.9622
vn -0.1611 0.5639 0.8100
vn -0.1804 -0.3805 0.9070
vn -0.1608 0.5662 0.8084
vn -0.1626 -0.5528 0.8173
vn -0.1626 0.5523 0.8176
vn -0.1385 -0.7041 0.6965
vn -0.1686 0.5028 0.8478
vn -0.1092 -0.8286 0.5490
vn -0.1806 0.3777 0.9081
vn -0.3154 0.5662 0.7615
vn -0.3190 0.5523 0.7702
vn -0.3189 -0.5528 0.7699
vn -0.2718 -0.7041 0.6561
vn -0.3308 0.5028 0.7986
vn -0.2142 -0.8286 0.5172
vn -0.3543 0.3777 0.8554
vn -0.1484 -0.9217 0.3584
vn -0.3754 0.1939 0.9063
vn -0.0769 -0.9796 0.1857
vn -0.3827 -0.0000 0.9239
vn -0.3196 0.5499 0.7716
vn -0.3754 -0.1939 0.9063
vn -0.3160 0.5639 0.7630
vn -0.3539 -0.3805 0.8544
vn -0.5450 0.1939 0.8157
vn -0.5556 -0.0000 0.8315
vn -0.4640 0.5499 0.6945
vn -0.1117 -0.9796 0.1671
vn -0.5450 -0.1939 0.8157
vn -0.4588 0.5639 0.6866
vn -0.5138 -0.3805 0.7689
vn -0.4580 0.5662 0.6854
vn -0.4630 -0.5528 0.6929
vn -0.4631 0.5523 0.6931
vn -0.3945 -0.7041 0.5905
vn -0.4802 0.5028 0.7187
vn -0.3110 -0.8286 0.4654
vn -0.5144 0.3777 0.7699
vn -0.2155 -0.9217 0.3225
vn -0.5893 -0.5528 0.5893
vn -0.5021 -0.7041 0.5021
vn -0.5895 0.5523 0.5895
vn -0.6112 0.5028 0.6112
vn -0.3958 -0.8286 0.3958
vn -0.6547 0.3777 0.6547
vn -0.2743 -0.9217 0.2743
vn -0.6937 0.1939 0.6937
vn -0.1421 -0.9796 0.1421
vn -0.7071 -0.0000 0.7071
vn -0.5906 0.5499 0.5906
vn -0.6937 -0.1939 0.6937
vn -0.5839 0.5639 0.5839
vn -0.6539 -0.3805 0.6539
vn -0.5829 0.5662 0.5829
vn -0.1671 -0.9796 0.1117
vn -0.8315 -0.0000 0.5556
vn -0.8157 -0.1939 0.5450
vn -0.6945 0.5499 0.4640
vn -0.6866 0.5639 0.4588
vn -0.7689 -0.3805 0.5138
vn -0.6854 0.5662 0.4579
vn -0.6929 -0.5528 0.4630
vn -0.6931 0.5523 0.4631
vn -0.5905 -0.7041 0.3945
vn -0.7187 0.5028 0.4802
vn -0.4654 -0.8286 0.3110
vn -0.7699 0.3777 0.5144
vn -0.3225 -0.9217 0.2155
vn -0.8157 0.1939 0.5450
vn -0.6561 -0.7041 0.2718
vn -0.5172 -0.8286 0.2142
vn -0.7986 0.5028 0.3308
vn -0.8554 0.3777 0.3543
vn -0.3584 -0.9217 0.1484
vn -0.9063 0.1939 0.3754
vn -0.1857 -0.9796 0.0769
vn -0.9239 -0.0000 0.3827
vn -0.7716 0.5499 0.3196
vn -0.9063 -0.1939 0.3754
vn -0.7630 0.5639 0.3160
vn -0.8544 -0.3805 0.3539
vn -0.7615 0.5662 0.3154
vn -0.7699 -0.5528 0.3189
vn -0.7702 0.5523 0.3190
vn -0.8192 0.5499 0.1629
vn -0.8100 0.5639 0.1611
vn -0.9622 -0.1939 0.1914
vn -0.9070 -0.3805 0.1804
vn -0.8084 0.5662 0.1608
vn -0.8173 -0.5528 0.1626
vn -0.8176 0.5523 0.1626
vn -0.6965 -0.7041 0.1385
vn -0.8478 0.5028 0.1686
vn -0.5490 -0.8286 0.1092
vn -0.9081 0.3777 0.1806
vn -0.3804 -0.9217 0.0757
vn -0.9622 0.1939 0.1914
vn -0.1971 -0.9796 0.0392
vn -0.9808 -0.0000 0.1951
vn -0.8644 0.5028 -0.0000
vn -0.9259 0.3777 -0.0000
vn -0.5598 -0.8286 -0.0000
vn -0.3879 -0.9217 -0.0000
vn -0.9810 0.1939 -0.0000
vn -0.2010 -0.9796 -0.0000
vn -1.0000 -0.0000 -0.0000
vn -0.8352 0.5499 -0.0000
vn -0.9810 -0.1939 -0.0000
vn -0.8258 0.5639 -0.0000
vn -0.9248 -0.3805 -0.0000
vn -0.8243 0.5662 -0.0000
vn -0.8333 -0.5528 -0.0000
vn -0.8336 0.5523 -0.0000
vn -0.7101 -0.7041 -0.0000
vn -0.9622 -0.1939 -0.1914
vn -0.9070 -0.3805 -0.1804
vn -0.8100 0.5639 -0.1611
vn -0.8084 0.5662 -0.1608
vn -0.8173 -0.5528 -0.1626
vn -0.8176 0.5523 -0.1626
vn -0.6965 -0.7041 -0.1385
vn -0.8478 0.5028 -0.1686
vn -0.5490 -0.8286 -0.1092
vn -0.9081 0.3777 -0.1806
vn -0.3804 -0.9217 -0.0757
vn -0.9622 0.1939 -0.1914
vn -0.1971 -0.9796 -0.0392
vn -0.9808 -0.0000 -0.1951
vn -0.8192 0.5499 -0.1629
vn -0.5172 -0.8286 -0.2142
vn -0.3584 -0.9217 -0.1484
vn -0.8554 0.3777 -0.3543
vn -0.9063 0.1939 -0.3754
vn -0.1857 -0.9796 -0.0769
vn -0.9239 -0.0000 -0.3827
vn -0.7716 0.5499 -0.3196
vn -0.9063 -0.1939 -0.3754
vn -0.7630 0.5639 -0.3160
vn -0.8544 -0.3805 -0.3539
vn -0.7615 0.5662 -0.3154
vn -0.7699 -0.5528 -0.3189
vn -0.7702 0.5523 -0.3190
vn -0.6561 -0.7041 -0.2718
vn -0.7986 0.5028 -0.3308
vn -0.6866 0.5639 -0.4588
vn -0.6854 0.5662 -0.4580
vn -0.7689 -0.3805 -0.5138
vn -0.6929 -0.5528 -0.4630
vn -0.6931 0.5523 -0.4631
vn -0.5905 -0.7041 -0.3945
vn -0.7187 0.5028 -0.4802
vn -0.4654 -0.8286 -0.3110
vn -0.7699 0.3777 -0.5144
vn -0.3225 -0.9217 -0.2155
vn -0.8157 0.1939 -0.5450
vn -0.1671 -0.9796 -0.1117
vn -0.8315 -0.0000 -0.5556
vn -0.6945 0.5499 -0.4640
vn -0.8157 -0.1939 -0.5450
vn -0.6547 0.3777 -0.6547
vn -0.6937 0.1939 -0.6937
vn -0.2743 -0.9217 -0.2743
vn -0.1421 -0.9796 -0.1421
vn -0.7071 -0.0000 -0.7071
vn -0.5906 0.5499 -0.5906
vn -0.6937 -0.1939 -0.6937
vn -0.5839 0.5639 -0.5839
vn -0.6539 -0.3805 -0.6539
vn -0.5829 0.5662 -0.5829
vn -0.5893 -0.5528 -0.5893
vn -0.5895 0.5523 -0.5895
vn -0.5021 -0.7041 -0.5021
vn -0.6112 0.5028 -0.6112
vn -0.3958 -0.8286 -0.3958
vn -0.5138 -0.3805 -0.7689
vn -0.4630 -0.5528 -0.6929
vn -0.4579 0.5662 -0.6854
vn -0.4631 0.5523 -0.6931
vn -0.3945 -0.7041 -0.5905
vn -0.4802 0.5028 -0.7187
vn -0.3110 -0.8286 -0.4654
vn -0.5144 0.3777 -0.7699
vn -0.2155 -0.9217 -0.3225
vn -0.5450 0.1939 -0.8157
vn -0.1117 -0.9796 -0.1671
vn -0.5556 -0.0000 -0.8315
vn -0.4640 0.5499 -0.6945
vn -0.5450 -0.1939 -0.8157
vn -0.4588 0.5639 -0.6866
vn -0.1484 -0.9217 -0.3584
vn -0.0769 -0.9796 -0.1857
vn -0.3754 0.1939 -0.9063
vn -0.3827 -0.0000 -0.9239
vn -0.3196 0.5499 -0.7716
vn -0.3754 -0.1939 -0.9063
vn -0.3160 0.5639 -0.7630
vn -0.3539 -0.3805 -0.8544
vn -0.3154 0.5662 -0.7615
vn -0.3189 -0.5528 -0.7699
vn -0.3190 0.5523 -0.7702
vn -0.2718 -0.7041 -0.6561
vn -0.3308 0.5028 -0.7986
vn -0.2142 -0.8286 -0.5172
vn -0.3543 0.3777 -0.8554
vn -0.1626 -0.5528 -0.8173
vn -0.1385 -0.7041 -0.6965
vn -0.1626 0.5523 -0.8176
vn -0.1686 0.5028 -0.8478
vn -0.1092 -0.8286 -0.5490
vn -0.1806 0.3777 -0.9081
vn -0.0757 -0.9217 -0.3804
vn -0.1914 0.1939 -0.9622
vn -0.0392 -0.9796 -0.1971
vn -0.1951 -0.0000 -0.9808
vn -0.1629 0.5499 -0.8192
vn -0.1914 -0.1939 -0.9622
vn -0.1611 0.5639 -0.8100
vn -0.1804 -0.3805 -0.9070
vn -0.1608 0.5662 -0.8084
vt 0.500000 0.500000
vt 0.500000 0.546902
vt 0.568194 0.546902
vt 0.569530 0.500000
vt 0.500000 0.861010
vt 0.500000 0.934140
vt 0.513565 0.861010
vt 0.513565 0.546000
vt 0.500000 0.453098
vt 0.568194 0.453098
vt 0.500000 0.794154
vt 0.526608 0.794154
vt 0.500000 0.407999
vt 0.564238 0.407999
vt 0.500000 0.733975
vt 0.538629 0.733975
vt 0.500000 0.366436
vt 0.557812 0.366436
vt 0.500000 0.680661
vt 0.549165 0.680661
vt 0.500000 0.330005
vt 0.549165 0.330005
vt 0.500000 0.634198
vt 0.557812 0.634198
vt 0.500000 0.633564
vt 0.500000 0.669995
vt 0.549165 0.666729
vt 0.538629 0.630998
vt 0.500000 0.592001
vt 0.564238 0.592001
vt 0.500000 0.592001
vt 0.526608 0.590233
vt 0.575773 0.623397
vt 0.552194 0.584998
vt 0.626007 0.592001
vt 0.633768 0.546902
vt 0.526608 0.543331
vt 0.636389 0.500000
vt 0.526608 0.861010
vt 0.633768 0.453098
vt 0.552194 0.794154
vt 0.626007 0.407999
vt 0.575773 0.733975
vt 0.613403 0.366436
vt 0.596441 0.680661
vt 0.596441 0.330005
vt 0.613403 0.634198
vt 0.596441 0.657055
vt 0.682933 0.407999
vt 0.664635 0.366436
vt 0.610006 0.733975
vt 0.640011 0.680661
vt 0.640011 0.330005
vt 0.664635 0.634198
vt 0.640011 0.641346
vt 0.610006 0.611055
vt 0.682933 0.592001
vt 0.575773 0.576496
vt 0.694201 0.546902
vt 0.538629 0.538997
vt 0.698005 0.500000
vt 0.538629 0.861010
vt 0.694201 0.453098
vt 0.575773 0.794154
vt 0.596441 0.565054
vt 0.549165 0.533164
vt 0.747171 0.546902
vt 0.752013 0.500000
vt 0.549165 0.861010
vt 0.747171 0.453098
vt 0.596441 0.794154
vt 0.732830 0.407999
vt 0.640011 0.733975
vt 0.709541 0.366436
vt 0.678200 0.680661
vt 0.664635 0.666205
vt 0.709541 0.641346
vt 0.678200 0.620205
vt 0.709541 0.634198
vt 0.640011 0.594444
vt 0.732830 0.592001
vt 0.746394 0.611055
vt 0.709541 0.594444
vt 0.664635 0.634198
vt 0.664635 0.574204
vt 0.732830 0.592001
vt 0.613403 0.551113
vt 0.747171 0.546902
vt 0.694201 0.546902
vt 0.557812 0.526057
vt 0.752013 0.500000
vt 0.698005 0.500000
vt 0.747171 0.453098
vt 0.694201 0.453098
vt 0.596441 0.794154
vt 0.575773 0.794154
vt 0.732830 0.407999
vt 0.664635 0.366436
vt 0.633768 0.546902
vt 0.636388 0.500000
vt 0.564238 0.517948
vt 0.633768 0.453098
vt 0.552194 0.794154
vt 0.575773 0.733975
vt 0.613403 0.366436
vt 0.613403 0.634198
vt 0.732830 0.565054
vt 0.682933 0.551113
vt 0.626007 0.535207
vt 0.747171 0.533164
vt 0.694201 0.526057
vt 0.633768 0.517948
vt 0.568194 0.546902
vt 0.568194 0.509150
vt 0.569530 0.500000
vt 0.513565 0.861010
vt 0.568194 0.453098
vt 0.526608 0.794154
vt 0.500000 0.500000
vt 0.500000 0.453098
vt 0.500000 0.733975
vt 0.500000 0.366436
vt 0.500000 0.680661
vt 0.500000 0.330005
vt 0.500000 0.634198
vt 0.698005 0.500000
vt 0.636388 0.500000
vt 0.500000 0.546902
vt 0.450835 0.680661
vt 0.442188 0.634198
vt 0.747171 0.466836
vt 0.694201 0.473943
vt 0.435762 0.592001
vt 0.633768 0.482052
vt 0.431806 0.546902
vt 0.568194 0.490850
vt 0.430470 0.500000
vt 0.486435 0.861010
vt 0.431806 0.453098
vt 0.473392 0.794154
vt 0.435762 0.407999
vt 0.461371 0.733975
vt 0.442188 0.366436
vt 0.450835 0.330005
vt 0.363611 0.500000
vt 0.366232 0.453098
vt 0.473392 0.861010
vt 0.447806 0.794154
vt 0.373993 0.407999
vt 0.424227 0.733975
vt 0.386597 0.366436
vt 0.403559 0.680661
vt 0.403559 0.330005
vt 0.386597 0.634198
vt 0.732830 0.434946
vt 0.682933 0.448887
vt 0.373993 0.592001
vt 0.626007 0.464793
vt 0.366232 0.546902
vt 0.564238 0.482052
vt 0.709541 0.405556
vt 0.664635 0.425796
vt 0.335365 0.634198
vt 0.317067 0.592001
vt 0.613403 0.448887
vt 0.305799 0.546902
vt 0.557812 0.473943
vt 0.301995 0.500000
vt 0.461371 0.861010
vt 0.305799 0.453098
vt 0.424227 0.794154
vt 0.317067 0.407999
vt 0.389994 0.733975
vt 0.335365 0.366436
vt 0.359989 0.680661
vt 0.359989 0.330005
vt 0.252829 0.453098
vt 0.267170 0.407999
vt 0.403559 0.794154
vt 0.359989 0.733975
vt 0.290459 0.366436
vt 0.321800 0.680661
vt 0.746394 0.388945
vt 0.709541 0.358654
vt 0.678200 0.379795
vt 0.290459 0.634198
vt 0.640011 0.405556
vt 0.267170 0.592001
vt 0.596441 0.434946
vt 0.252829 0.546902
vt 0.549165 0.466836
vt 0.247987 0.500000
vt 0.450835 0.861010
vt 0.610006 0.388945
vt 0.575773 0.423504
vt 0.538629 0.461003
vt 0.752013 0.500000
vt 0.698005 0.500000
vt 0.549165 0.861010
vt 0.538629 0.861010
vt 0.596441 0.794154
vt 0.575773 0.794154
vt 0.640011 0.733975
vt 0.610006 0.733975
vt 0.709541 0.366436
vt 0.678200 0.680661
vt 0.664635 0.333795
vt 0.640011 0.358654
vt 0.709541 0.634198
vt 0.664635 0.634198
vt 0.552194 0.794154
vt 0.596441 0.680661
vt 0.596441 0.330005
vt 0.613403 0.634198
vt 0.596441 0.342945
vt 0.575773 0.376603
vt 0.552194 0.415002
vt 0.633768 0.546902
vt 0.526608 0.456669
vt 0.636388 0.500000
vt 0.526608 0.861010
vt 0.633768 0.453098
vt 0.526608 0.409767
vt 0.513565 0.454000
vt 0.569530 0.500000
vt 0.513565 0.861010
vt 0.538629 0.733975
vt 0.557812 0.366436
vt 0.557812 0.634198
vt 0.549165 0.333271
vt 0.538629 0.369002
vt 0.500000 0.634198
vt 0.500000 0.366436
vt 0.500000 0.407999
vt 0.500000 0.546902
vt 0.500000 0.500000
vt 0.500000 0.453098
vt 0.500000 0.794154
vt 0.473392 0.409767
vt 0.486435 0.454000
vt 0.430470 0.500000
vt 0.442188 0.366436
vt 0.442188 0.634198
vt 0.450835 0.333271
vt 0.461371 0.369002
vt 0.424227 0.733975
vt 0.403559 0.342945
vt 0.424227 0.376603
vt 0.373994 0.592001
vt 0.447806 0.415002
vt 0.473392 0.456669
vt 0.473392 0.861010
vt 0.373994 0.407999
vt 0.301995 0.500000
vt 0.461371 0.861010
vt 0.461371 0.461003
vt 0.317067 0.407999
vt 0.389994 0.733975
vt 0.335365 0.366436
vt 0.335365 0.634198
vt 0.359989 0.358654
vt 0.389994 0.388945
vt 0.317067 0.592001
vt 0.424227 0.423504
vt 0.335365 0.333795
vt 0.290459 0.358654
vt 0.321800 0.379795
vt 0.321800 0.680661
vt 0.290459 0.634198
vt 0.359989 0.405556
vt 0.267170 0.592001
vt 0.403559 0.434946
vt 0.252829 0.546902
vt 0.450835 0.466836
vt 0.247987 0.500000
vt 0.450835 0.861010
vt 0.252829 0.453098
vt 0.403559 0.794154
vt 0.267170 0.407999
vt 0.359989 0.733975
vt 0.290459 0.366436
vt 0.442188 0.473943
vt 0.252829 0.453098
vt 0.247987 0.500000
vt 0.301995 0.500000
vt 0.305799 0.453098
vt 0.424227 0.794154
vt 0.359989 0.733975
vt 0.389994 0.733975
vt 0.290459 0.366436
vt 0.335365 0.366436
vt 0.253606 0.388945
vt 0.290459 0.405556
vt 0.290459 0.634198
vt 0.335365 0.634198
vt 0.335365 0.425796
vt 0.386597 0.448887
vt 0.252829 0.546902
vt 0.305799 0.546902
vt 0.267170 0.434946
vt 0.317067 0.448887
vt 0.386597 0.634198
vt 0.373993 0.464793
vt 0.366232 0.546902
vt 0.435762 0.482052
vt 0.363612 0.500000
vt 0.366232 0.453098
vt 0.447806 0.794154
vt 0.424227 0.733975
vt 0.386597 0.366436
vt 0.473392 0.794154
vt 0.431806 0.453098
vt 0.461371 0.733975
vt 0.442188 0.366436
vt 0.442188 0.634198
vt 0.252829 0.466836
vt 0.305799 0.473943
vt 0.366232 0.482052
vt 0.431806 0.546902
vt 0.431806 0.490850
vt 0.430470 0.500000
vt 0.500000 0.634198
vt 0.301995 0.500000
vt 0.363612 0.500000
vt 0.500000 0.546902
vt 0.430470 0.500000
vt 0.500000 0.500000
vt 0.500000 0.453098
vt 0.500000 0.733975
vt 0.500000 0.366436
vt 0.247987 0.500000
vt 0.568194 0.453098
vt 0.526608 0.794154
vt 0.557812 0.366436
vt 0.557812 0.634198
vt 0.252829 0.533164
vt 0.305799 0.526057
vt 0.366232 0.517949
vt 0.568194 0.546902
vt 0.431806 0.509150
vt 0.569530 0.500000
vt 0.317067 0.551113
vt 0.373994 0.535207
vt 0.626006 0.592001
vt 0.435762 0.517948
vt 0.626006 0.407999
vt 0.613403 0.634198
vt 0.267170 0.565054
vt 0.682933 0.407999
vt 0.290459 0.594444
vt 0.335365 0.574204
vt 0.682933 0.592001
vt 0.386597 0.551113
vt 0.442188 0.526057
vt 0.698005 0.500000
vt 0.732830 0.592001
vt 0.403559 0.565054
vt 0.450835 0.533164
vt 0.752013 0.500000
vt 0.549165 0.861010
vt 0.732830 0.407999
vt 0.253606 0.611055
vt 0.290459 0.641346
vt 0.321800 0.620205
vt 0.359989 0.594444
vt 0.290459 0.366436
vt 0.267170 0.407999
vt 0.317067 0.407999
vt 0.335365 0.366436
vt 0.359989 0.733975
vt 0.389994 0.733975
vt 0.359989 0.680661
vt 0.335365 0.666205
vt 0.359989 0.641346
vt 0.290459 0.634198
vt 0.335365 0.634198
vt 0.389994 0.611055
vt 0.267170 0.592001
vt 0.317067 0.592001
vt 0.424227 0.576496
vt 0.252829 0.546902
vt 0.305799 0.546902
vt 0.461371 0.538997
vt 0.247987 0.500000
vt 0.301995 0.500000
vt 0.450835 0.861010
vt 0.252829 0.453098
vt 0.305799 0.453098
vt 0.403559 0.794154
vt 0.447806 0.584998
vt 0.473392 0.543331
vt 0.366232 0.546902
vt 0.363612 0.500000
vt 0.366232 0.453098
vt 0.424227 0.733975
vt 0.386597 0.366436
vt 0.403559 0.680661
vt 0.359989 0.330005
vt 0.403559 0.330005
vt 0.386597 0.634198
vt 0.403559 0.657055
vt 0.424227 0.623397
vt 0.442188 0.366436
vt 0.450835 0.330005
vt 0.450835 0.680661
vt 0.442188 0.634198
vt 0.450835 0.666729
vt 0.461371 0.630998
vt 0.435762 0.592001
vt 0.473392 0.590233
vt 0.431806 0.546902
vt 0.486435 0.546000
vt 0.430470 0.500000
vt 0.486435 0.861010
vt 0.431806 0.453098
vt 0.435762 0.407999
vt 0.461371 0.733975
s 1
usemtl Blood
f 4/1/1 3/2/2 13/3/3 14/4/4
f 474/5/5 82/6/6 7/7/7
f 308/1/8 482/2/9 21/8/10
f 5/9/11 4/1/1 14/4/4 15/10/12
f 475/11/13 474/5/5 7/7/7 8/12/14
f 478/13/15 5/9/11 15/10/12 16/14/16
f 1/15/17 475/11/13 8/12/14 9/16/18
f 6/17/19 478/13/15 16/14/16 17/18/20
f 476/19/21 1/15/17 9/16/18 10/20/22
f 479/21/23 6/17/19 17/18/20 18/22/24
f 2/23/25 476/19/21 10/20/22 11/24/26
f 480/25/27 479/26/23 18/27/24 19/28/28
f 477/29/29 2/23/25 11/24/26 12/30/30
f 481/31/31 480/25/27 19/28/28 20/32/32
f 3/2/2 477/29/29 12/30/30 13/3/3
f 482/2/9 481/31/31 20/32/32 21/8/10
f 20/32/32 19/28/28 34/33/33 35/34/34
f 13/3/3 12/30/30 27/35/35 28/36/36
f 21/8/10 20/32/32 35/34/34 36/37/37
f 14/4/4 13/3/3 28/36/36 29/38/38
f 7/7/7 82/6/6 22/39/39
f 308/1/8 21/8/10 36/37/37
f 15/10/12 14/4/4 29/38/38 30/40/40
f 8/12/14 7/7/7 22/39/39 23/41/41
f 16/14/16 15/10/12 30/40/40 31/42/42
f 9/16/18 8/12/14 23/41/41 24/43/43
f 17/18/20 16/14/16 31/42/42 32/44/44
f 10/20/22 9/16/18 24/43/43 25/45/45
f 18/22/24 17/18/20 32/44/44 33/46/46
f 11/24/26 10/20/22 25/45/45 26/47/47
f 19/28/28 18/27/24 33/48/46 34/33/33
f 12/30/30 11/24/26 26/47/47 27/35/35
f 32/44/44 31/42/42 46/49/48 47/50/49
f 25/45/45 24/43/43 39/51/50 40/52/51
f 33/46/46 32/44/44 47/50/49 48/53/52
f 26/47/47 25/45/45 40/52/51 41/54/53
f 34/33/33 33/48/46 48/55/52 49/56/54
f 27/35/35 26/47/47 41/54/53 42/57/55
f 35/34/34 34/33/33 49/56/54 50/58/56
f 28/36/36 27/35/35 42/57/55 43/59/57
f 36/37/37 35/34/34 50/58/56 51/60/58
f 29/38/38 28/36/36 43/59/57 44/61/59
f 22/39/39 82/6/6 37/62/60
f 308/1/8 36/37/37 51/60/58
f 30/40/40 29/38/38 44/61/59 45/63/61
f 23/41/41 22/39/39 37/62/60 38/64/62
f 31/42/42 30/40/40 45/63/61 46/49/48
f 24/43/43 23/41/41 38/64/62 39/51/50
f 51/60/58 50/58/56 65/65/63 66/66/64
f 44/61/59 43/59/57 58/67/65 59/68/66
f 37/62/60 82/6/6 52/69/67
f 308/1/8 51/60/58 66/66/64
f 45/63/61 44/61/59 59/68/66 60/70/68
f 38/64/62 37/62/60 52/69/67 53/71/69
f 46/49/48 45/63/61 60/70/68 61/72/70
f 39/51/50 38/64/62 53/71/69 54/73/71
f 47/50/49 46/49/48 61/72/70 62/74/72
f 40/52/51 39/51/50 54/73/71 55/75/73
f 48/55/52 47/76/49 62/77/72 63/78/74
f 41/54/53 40/52/51 55/75/73 56/79/75
f 49/56/54 48/55/52 63/78/74 64/80/76
f 42/57/55 41/54/53 56/79/75 57/81/77
f 50/58/56 49/56/54 64/80/76 65/65/63
f 43/59/57 42/57/55 57/81/77 58/67/65
f 55/75/73 54/73/71 69/51/78 70/52/79
f 63/78/74 62/77/72 77/82/80 78/83/81
f 56/79/75 55/75/73 70/52/79 71/84/82
f 64/80/76 63/78/74 78/83/81 79/85/83
f 57/86/77 56/79/75 71/84/82 72/57/84
f 65/65/63 64/80/76 79/85/83 80/87/85
f 58/88/65 57/86/77 72/57/84 73/89/86
f 66/66/64 65/65/63 80/87/85 81/90/87
f 59/91/66 58/88/65 73/89/86 74/92/88
f 52/69/67 82/6/6 67/62/89
f 308/1/8 66/66/64 81/90/87
f 60/93/68 59/91/66 74/92/88 75/94/90
f 53/95/69 52/69/67 67/62/89 68/96/91
f 61/97/70 60/93/68 75/94/90 76/49/92
f 54/73/71 53/95/69 68/96/91 69/51/78
f 62/74/72 61/97/70 76/49/92 77/98/80
f 74/92/88 73/89/86 89/99/93 90/100/94
f 67/62/89 82/6/6 83/39/95
f 308/1/8 81/90/87 97/101/96
f 75/94/90 74/92/88 90/100/94 91/102/97
f 68/96/91 67/62/89 83/39/95 84/103/98
f 76/49/92 75/94/90 91/102/97 92/42/99
f 69/51/78 68/96/91 84/103/98 85/104/100
f 77/98/80 76/49/92 92/42/99 93/105/101
f 70/52/79 69/51/78 85/104/100 86/45/102
f 78/53/81 77/98/80 93/105/101 94/46/103
f 71/84/82 70/52/79 86/45/102 87/106/104
f 79/85/83 78/83/81 94/107/103 95/108/105
f 72/57/84 71/84/82 87/106/104 88/35/106
f 80/87/85 79/85/83 95/108/105 96/109/107
f 73/89/86 72/57/84 88/35/106 89/99/93
f 81/90/87 80/87/85 96/109/107 97/101/96
f 94/46/103 93/105/101 108/18/108 109/22/109
f 87/106/104 86/45/102 101/20/110 102/24/111
f 95/108/105 94/107/103 109/110/109 110/111/112
f 88/35/106 87/106/104 102/24/111 103/30/113
f 96/109/107 95/108/105 110/111/112 111/112/114
f 89/99/93 88/35/106 103/30/113 104/113/115
f 97/101/96 96/109/107 111/112/114 112/114/116
f 90/100/94 89/99/93 104/113/115 105/115/117
f 83/39/95 82/6/6 98/116/118
f 308/1/8 97/101/96 112/114/116
f 91/102/97 90/100/94 105/115/117 106/117/119
f 84/103/98 83/39/95 98/116/118 99/118/120
f 92/42/99 91/102/97 106/117/119 107/14/121
f 85/104/100 84/103/98 99/118/120 100/16/122
f 93/105/101 92/42/99 107/14/121 108/18/108
f 86/45/102 85/104/100 100/16/122 101/20/110
f 98/116/118 82/6/6 113/5/123
f 308/1/8 112/114/116 127/4/124
f 106/117/119 105/115/117 120/119/125 121/120/126
f 99/118/120 98/116/118 113/5/123 114/11/127
f 107/14/121 106/117/119 121/120/126 122/13/128
f 100/16/122 99/118/120 114/11/127 115/121/129
f 108/18/108 107/14/121 122/13/128 123/122/130
f 101/20/110 100/16/122 115/121/129 116/123/131
f 109/22/109 108/18/108 123/122/130 124/124/132
f 102/24/111 101/20/110 116/123/131 117/125/133
f 110/111/112 109/110/109 124/68/132 125/126/134
f 103/30/113 102/24/111 117/125/133 118/29/135
f 111/112/114 110/111/112 125/126/134 126/127/136
f 104/113/115 103/30/113 118/29/135 119/128/137
f 112/114/116 111/112/114 126/127/136 127/4/124
f 105/115/117 104/113/115 119/128/137 120/119/125
f 117/125/133 116/123/131 131/129/138 132/130/139
f 125/126/134 124/68/132 139/131/140 140/132/141
f 118/29/135 117/125/133 132/130/139 133/133/142
f 126/127/136 125/126/134 140/132/141 141/134/143
f 119/128/137 118/29/135 133/133/142 134/135/144
f 127/4/124 126/127/136 141/134/143 142/136/145
f 120/119/125 119/128/137 134/135/144 135/137/146
f 113/5/123 82/6/6 128/138/147
f 308/1/8 127/4/124 142/136/145
f 121/120/126 120/119/125 135/137/146 136/139/148
f 114/11/127 113/5/123 128/138/147 129/140/149
f 122/13/128 121/120/126 136/139/148 137/141/150
f 115/121/129 114/11/127 129/140/149 130/142/151
f 123/122/130 122/13/128 137/141/150 138/143/152
f 116/123/131 115/121/129 130/142/151 131/129/138
f 124/124/132 123/122/130 138/143/152 139/144/140
f 136/139/148 135/137/146 150/145/153 151/146/154
f 129/140/149 128/138/147 143/147/155 144/148/156
f 137/141/150 136/139/148 151/146/154 152/149/157
f 130/142/151 129/140/149 144/148/156 145/150/158
f 138/143/152 137/141/150 152/149/157 153/151/159
f 131/129/138 130/142/151 145/150/158 146/152/160
f 139/144/140 138/143/152 153/151/159 154/153/161
f 132/130/139 131/129/138 146/152/160 147/154/162
f 140/132/141 139/131/140 154/155/161 155/156/163
f 133/133/142 132/130/139 147/154/162 148/157/164
f 141/134/143 140/132/141 155/156/163 156/158/165
f 134/135/144 133/133/142 148/157/164 149/159/166
f 142/136/145 141/134/143 156/158/165 157/160/167
f 135/137/146 134/135/144 149/159/166 150/145/153
f 128/138/147 82/6/6 143/147/155
f 308/1/8 142/136/145 157/160/167
f 155/156/163 154/155/161 169/161/168 170/162/169
f 148/157/164 147/154/162 162/163/170 163/164/171
f 156/158/165 155/156/163 170/162/169 171/165/172
f 149/159/166 148/157/164 163/164/171 164/166/173
f 157/160/167 156/158/165 171/165/172 172/167/174
f 150/145/153 149/159/166 164/166/173 165/168/175
f 143/147/155 82/6/6 158/169/176
f 308/1/8 157/160/167 172/167/174
f 151/146/154 150/145/153 165/168/175 166/170/177
f 144/148/156 143/147/155 158/169/176 159/171/178
f 152/149/157 151/146/154 166/170/177 167/172/179
f 145/150/158 144/148/156 159/171/178 160/173/180
f 153/151/159 152/149/157 167/172/179 168/174/181
f 146/152/160 145/150/158 160/173/180 161/175/182
f 154/153/161 153/151/159 168/174/181 169/176/168
f 147/154/162 146/152/160 161/175/182 162/163/170
f 167/172/179 166/170/177 181/177/183 182/178/184
f 160/173/180 159/171/178 174/179/185 175/180/186
f 168/174/181 167/172/179 182/178/184 183/181/187
f 161/175/182 160/173/180 175/180/186 176/182/188
f 169/161/168 168/183/181 183/184/187 184/185/189
f 162/163/170 161/175/182 176/182/188 177/186/190
f 170/162/169 169/161/168 184/185/189 185/187/191
f 163/164/171 162/163/170 177/186/190 178/188/192
f 171/165/172 170/162/169 185/187/191 186/189/193
f 164/166/173 163/164/171 178/188/192 179/190/194
f 172/167/174 171/165/172 186/189/193 187/191/195
f 165/168/175 164/166/173 179/190/194 180/192/196
f 158/169/176 82/6/6 173/193/197
f 308/1/8 172/167/174 187/191/195
f 166/170/177 165/168/175 180/192/196 181/177/183
f 159/171/178 158/169/176 173/193/197 174/179/185
f 186/189/193 185/187/191 200/194/198 201/195/199
f 179/88/194 178/81/192 193/57/200 194/89/201
f 187/191/195 186/189/193 201/195/199 202/196/202
f 180/197/196 179/88/194 194/89/201 195/198/203
f 173/199/197 82/6/6 188/200/204
f 308/1/8 187/191/195 202/196/202
f 181/93/183 180/197/196 195/198/203 196/94/205
f 174/201/185 173/199/197 188/200/204 189/202/206
f 182/72/184 181/93/183 196/94/205 197/49/207
f 175/203/186 174/201/185 189/202/206 190/204/208
f 183/205/187 182/72/184 197/49/207 198/98/209
f 176/206/188 175/203/186 190/204/208 191/52/210
f 184/185/189 183/184/187 198/207/209 199/208/211
f 177/209/190 176/206/188 191/52/210 192/210/212
f 185/187/191 184/185/189 199/208/211 200/194/198
f 178/81/192 177/209/190 192/210/212 193/57/200
f 190/204/208 189/202/206 204/211/213 205/104/214
f 198/98/209 197/49/207 212/42/215 213/105/216
f 191/52/210 190/204/208 205/104/214 206/212/217
f 199/53/211 198/98/209 213/105/216 214/213/218
f 192/210/212 191/52/210 206/212/217 207/214/219
f 200/194/198 199/208/211 214/215/218 215/216/220
f 193/57/200 192/210/212 207/214/219 208/35/221
f 201/195/199 200/194/198 215/216/220 216/217/222
f 194/89/201 193/57/200 208/35/221 209/218/223
f 202/196/202 201/195/199 216/217/222 217/219/224
f 195/198/203 194/89/201 209/218/223 210/220/225
f 188/200/204 82/6/6 203/221/226
f 308/1/8 202/196/202 217/219/224
f 196/94/205 195/198/203 210/220/225 211/222/227
f 189/202/206 188/200/204 203/221/226 204/211/213
f 197/49/207 196/94/205 211/222/227 212/42/215
f 209/218/223 208/35/221 223/30/228 224/113/229
f 217/219/224 216/217/222 231/223/230 232/224/231
f 210/220/225 209/218/223 224/113/229 225/225/232
f 203/221/226 82/6/6 218/226/233
f 308/1/8 217/219/224 232/224/231
f 211/222/227 210/220/225 225/225/232 226/117/234
f 204/211/213 203/221/226 218/226/233 219/118/235
f 212/42/215 211/222/227 226/117/234 227/14/236
f 205/104/214 204/211/213 219/118/235 220/227/237
f 213/105/216 212/42/215 227/14/236 228/228/238
f 206/212/217 205/104/214 220/227/237 221/20/239
f 214/213/218 213/105/216 228/228/238 229/22/240
f 207/214/219 206/212/217 221/20/239 222/229/241
f 215/216/220 214/215/218 229/230/240 230/231/242
f 208/35/221 207/214/219 222/229/241 223/30/228
f 216/217/222 215/216/220 230/231/242 231/223/230
f 228/228/238 227/14/236 242/13/243 243/122/244
f 221/20/239 220/227/237 235/121/245 236/123/246
f 229/22/240 228/228/238 243/122/244 244/124/247
f 222/229/241 221/20/239 236/123/246 237/232/248
f 230/231/242 229/230/240 244/124/247 245/233/249
f 223/30/228 222/229/241 237/232/248 238/29/250
f 231/223/230 230/231/242 245/233/249 246/234/251
f 224/113/229 223/30/228 238/29/250 239/235/252
f 232/224/231 231/223/230 246/234/251 247/9/253
f 225/225/232 224/113/229 239/235/252 240/236/254
f 218/226/233 82/6/6 233/5/255
f 308/1/8 232/224/231 247/9/253
f 226/117/234 225/225/232 240/236/254 241/237/256
f 219/118/235 218/226/233 233/5/255 234/238/257
f 227/14/236 226/117/234 241/237/256 242/13/243
f 220/227/237 219/118/235 234/238/257 235/121/245
f 247/9/253 246/234/251 261/239/258 262/240/259
f 240/236/254 239/235/252 254/135/260 255/241/261
f 233/5/255 82/6/6 248/138/262
f 308/1/8 247/9/253 262/240/259
f 241/237/256 240/236/254 255/241/261 256/139/263
f 234/238/257 233/5/255 248/138/262 249/140/264
f 242/13/243 241/237/256 256/139/263 257/141/265
f 235/121/245 234/238/257 249/140/264 250/142/266
f 243/122/244 242/13/243 257/141/265 258/242/267
f 236/123/246 235/121/245 250/142/266 251/129/268
f 244/124/247 243/122/244 258/242/267 259/144/269
f 237/232/248 236/123/246 251/129/268 252/243/270
f 245/233/249 244/124/247 259/244/269 260/245/271
f 238/29/250 237/232/248 252/243/270 253/133/272
f 246/234/251 245/233/249 260/245/271 261/239/258
f 239/235/252 238/29/250 253/133/272 254/135/260
f 251/129/268 250/142/266 265/246/273 266/152/274
f 259/144/269 258/242/267 273/151/275 274/153/276
f 252/243/270 251/129/268 266/152/274 267/154/277
f 260/245/271 259/244/269 274/247/276 275/248/278
f 253/133/272 252/243/270 267/154/277 268/249/279
f 261/239/258 260/245/271 275/248/278 276/250/280
f 254/135/260 253/133/272 268/249/279 269/159/281
f 262/240/259 261/239/258 276/250/280 277/251/282
f 255/241/261 254/135/260 269/159/281 270/145/283
f 248/138/262 82/6/6 263/252/284
f 308/1/8 262/240/259 277/251/282
f 256/139/263 255/241/261 270/145/283 271/146/285
f 249/140/264 248/138/262 263/252/284 264/148/286
f 257/141/265 256/139/263 271/146/285 272/253/287
f 250/142/266 249/140/264 264/148/286 265/246/273
f 258/242/267 257/141/265 272/253/287 273/151/275
f 270/145/283 269/159/281 284/166/288 285/254/289
f 263/252/284 82/6/6 278/255/290
f 308/1/8 277/251/282 292/256/291
f 271/146/285 270/145/283 285/254/289 286/170/292
f 264/148/286 263/252/284 278/255/290 279/171/293
f 272/253/287 271/146/285 286/170/292 287/257/294
f 265/246/273 264/148/286 279/171/293 280/258/295
f 273/151/275 272/253/287 287/257/294 288/259/296
f 266/152/274 265/246/273 280/258/295 281/175/297
f 274/153/276 273/151/275 288/259/296 289/176/298
f 267/154/277 266/152/274 281/175/297 282/260/299
f 275/248/278 274/247/276 289/261/298 290/262/300
f 268/249/279 267/154/277 282/260/299 283/263/301
f 276/250/280 275/248/278 290/262/300 291/264/302
f 269/159/281 268/249/279 283/263/301 284/166/288
f 277/251/282 276/250/280 291/264/302 292/256/291
f 289/261/298 288/265/296 303/266/303 304/267/304
f 282/260/299 281/175/297 296/268/305 297/269/306
f 290/262/300 289/261/298 304/267/304 305/270/307
f 283/263/301 282/260/299 297/269/306 298/271/308
f 291/264/302 290/262/300 305/270/307 306/272/309
f 284/166/288 283/263/301 298/271/308 299/273/310
f 292/256/291 291/264/302 306/272/309 307/274/311
f 285/254/289 284/166/288 299/273/310 300/275/312
f 278/255/290 82/6/6 293/276/313
f 308/1/8 292/256/291 307/274/311
f 286/170/292 285/254/289 300/275/312 301/277/314
f 279/171/293 278/255/290 293/276/313 294/278/315
f 287/257/294 286/170/292 301/277/314 302/279/316
f 280/258/295 279/171/293 294/278/315 295/280/317
f 288/259/296 287/257/294 302/279/316 303/281/303
f 281/175/297 280/258/295 295/280/317 296/268/305
f 308/1/8 307/274/311 323/282/318
f 301/283/314 300/284/312 316/285/319 317/286/320
f 294/278/315 293/276/313 309/255/321 310/287/322
f 302/178/316 301/283/314 317/286/320 318/257/323
f 295/288/317 294/278/315 310/287/322 311/289/324
f 303/290/303 302/178/316 318/257/323 319/291/325
f 296/268/305 295/288/317 311/289/324 312/175/326
f 304/267/304 303/266/303 319/292/325 320/293/327
f 297/294/306 296/268/305 312/175/326 313/295/328
f 305/270/307 304/267/304 320/293/327 321/296/329
f 298/188/308 297/294/306 313/295/328 314/263/330
f 306/272/309 305/270/307 321/296/329 322/297/331
f 299/298/310 298/188/308 314/263/330 315/299/332
f 307/274/311 306/272/309 322/297/331 323/282/318
f 300/284/312 299/298/310 315/299/332 316/285/319
f 293/276/313 82/6/6 309/255/321
f 321/296/329 320/293/327 335/300/333 336/301/334
f 314/263/330 313/295/328 328/302/335 329/157/336
f 322/297/331 321/296/329 336/301/334 337/303/337
f 315/299/332 314/263/330 329/157/336 330/304/338
f 323/282/318 322/297/331 337/303/337 338/305/339
f 316/285/319 315/299/332 330/304/338 331/306/340
f 309/255/321 82/6/6 324/252/341
f 308/1/8 323/282/318 338/305/339
f 317/286/320 316/285/319 331/306/340 332/307/342
f 310/287/322 309/255/321 324/252/341 325/308/343
f 318/257/323 317/286/320 332/307/342 333/149/344
f 311/289/324 310/287/322 325/308/343 326/309/345
f 319/291/325 318/257/323 333/149/344 334/310/346
f 312/175/326 311/289/324 326/309/345 327/152/347
f 320/176/327 319/291/325 334/310/346 335/153/333
f 313/295/328 312/175/326 327/152/347 328/302/335
f 325/308/343 324/252/341 339/138/348 340/311/349
f 333/149/344 332/307/342 347/312/350 348/141/351
f 326/309/345 325/308/343 340/311/349 341/313/352
f 334/310/346 333/149/344 348/141/351 349/314/353
f 327/152/347 326/309/345 341/313/352 342/129/354
f 335/153/333 334/310/346 349/314/353 350/144/355
f 328/302/335 327/152/347 342/129/354 343/315/356
f 336/301/334 335/300/333 350/316/355 351/317/357
f 329/157/336 328/302/335 343/315/356 344/133/358
f 337/303/337 336/301/334 351/317/357 352/318/359
f 330/304/338 329/157/336 344/133/358 345/319/360
f 338/305/339 337/303/337 352/318/359 353/320/361
f 331/306/340 330/304/338 345/319/360 346/321/362
f 324/252/341 82/6/6 339/138/348
f 308/1/8 338/305/339 353/320/361
f 332/307/342 331/306/340 346/321/362 347/312/350
f 344/133/358 343/315/356 358/322/363 359/29/364
f 352/318/359 351/317/357 366/323/365 367/324/366
f 345/319/360 344/133/358 359/29/364 360/325/367
f 353/320/361 352/318/359 367/324/366 368/326/368
f 346/321/362 345/319/360 360/325/367 361/327/369
f 339/138/348 82/6/6 354/5/370
f 308/1/8 353/320/361 368/326/368
f 347/312/350 346/321/362 361/327/369 362/328/371
f 340/311/349 339/138/348 354/5/370 355/11/372
f 348/141/351 347/312/350 362/328/371 363/13/373
f 341/313/352 340/311/349 355/11/372 356/329/374
f 349/314/353 348/141/351 363/13/373 364/330/375
f 342/129/354 341/313/352 356/329/374 357/123/376
f 350/144/355 349/314/353 364/330/375 365/124/377
f 343/315/356 342/129/354 357/123/376 358/322/363
f 351/317/357 350/316/355 365/331/377 366/323/365
f 363/13/373 362/328/371 377/332/378 378/14/379
f 356/329/374 355/11/372 370/333/380 371/16/381
f 364/330/375 363/13/373 378/14/379 379/334/382
f 357/123/376 356/329/374 371/16/381 372/20/383
f 365/124/377 364/330/375 379/334/382 380/22/384
f 358/322/363 357/123/376 372/20/383 373/335/385
f 366/323/365 365/331/377 380/336/384 381/337/386
f 359/29/364 358/322/363 373/335/385 374/30/387
f 367/324/366 366/323/365 381/337/386 382/338/388
f 360/325/367 359/29/364 374/30/387 375/339/389
f 368/326/368 367/324/366 382/338/388 383/340/390
f 361/327/369 360/325/367 375/339/389 376/341/391
f 354/5/370 82/6/6 369/226/392
f 308/1/8 368/326/368 383/340/390
f 362/328/371 361/327/369 376/341/391 377/332/378
f 355/11/372 354/5/370 369/226/392 370/333/380
f 382/338/388 381/337/386 396/342/393 397/343/394
f 375/339/389 374/30/387 389/344/395 390/36/396
f 383/340/390 382/338/388 397/343/394 398/345/397
f 376/341/391 375/339/389 390/36/396 391/38/398
f 369/226/392 82/6/6 384/221/399
f 308/1/8 383/340/390 398/345/397
f 377/332/378 376/341/391 391/38/398 392/40/400
f 370/333/380 369/226/392 384/221/399 385/103/401
f 378/14/379 377/332/378 392/40/400 393/346/402
f 371/16/381 370/333/380 385/103/401 386/104/403
f 379/334/382 378/14/379 393/346/402 394/44/404
f 372/20/383 371/16/381 386/104/403 387/212/405
f 380/22/384 379/334/382 394/44/404 395/213/406
f 373/335/385 372/20/383 387/212/405 388/347/407
f 381/337/386 380/336/384 395/348/406 396/342/393
f 374/30/387 373/335/385 388/347/407 389/344/395
f 386/104/403 385/103/401 400/202/408 401/204/409
f 394/44/404 393/346/402 408/349/410 409/98/411
f 387/212/405 386/104/403 401/204/409 402/52/412
f 395/213/406 394/44/404 409/98/411 410/53/413
f 388/347/407 387/212/405 402/52/412 403/210/414
f 396/342/393 395/348/406 410/350/413 411/351/415
f 389/344/395 388/347/407 403/210/414 404/352/416
f 397/343/394 396/342/393 411/351/415 412/353/417
f 390/36/396 389/344/395 404/352/416 405/89/418
f 398/345/397 397/343/394 412/353/417 413/354/419
f 391/38/398 390/36/396 405/89/418 406/355/420
f 384/221/399 82/6/6 399/200/421
f 308/1/8 398/345/397 413/354/419
f 392/40/400 391/38/398 406/355/420 407/94/422
f 385/103/401 384/221/399 399/200/421 400/202/408
f 393/346/402 392/40/400 407/94/422 408/349/410
f 405/89/418 404/352/416 419/356/423 420/88/424
f 413/354/419 412/353/417 427/357/425 428/358/426
f 406/355/420 405/89/418 420/88/424 421/359/427
f 399/200/421 82/6/6 414/360/428
f 308/1/8 413/354/419 428/358/426
f 407/94/422 406/355/420 421/359/427 422/93/429
f 400/202/408 399/200/421 414/360/428 415/201/430
f 408/349/410 407/94/422 422/93/429 423/361/431
f 401/204/409 400/202/408 415/201/430 416/203/432
f 409/98/411 408/349/410 423/361/431 424/205/433
f 402/52/412 401/204/409 416/203/432 417/206/434
f 410/350/413 409/362/411 424/363/433 425/364/435
f 403/210/414 402/52/412 417/206/434 418/209/436
f 411/351/415 410/350/413 425/364/435 426/365/437
f 404/352/416 403/210/414 418/209/436 419/356/423
f 412/353/417 411/351/415 426/365/437 427/357/425
f 424/366/433 423/367/431 438/368/438 439/369/439
f 417/268/434 416/370/432 431/371/440 432/372/441
f 425/364/435 424/363/433 439/373/439 440/374/442
f 418/375/436 417/268/434 432/372/441 433/376/443
f 426/365/437 425/364/435 440/374/442 441/377/444
f 419/378/423 418/375/436 433/376/443 434/379/445
f 427/357/425 426/365/437 441/377/444 442/380/446
f 420/381/424 419/378/423 434/379/445 435/382/447
f 428/358/426 427/357/425 442/380/446 443/383/448
f 421/384/427 420/381/424 435/382/447 436/385/449
f 414/386/428 82/6/6 429/255/450
f 308/1/8 428/358/426 443/383/448
f 422/387/429 421/384/427 436/385/449 437/388/451
f 415/389/430 414/386/428 429/255/450 430/287/452
f 423/367/431 422/387/429 437/388/451 438/368/438
f 416/370/432 415/389/430 430/287/452 431/371/440
f 443/383/448 442/380/446 457/390/453 458/391/454
f 436/385/449 435/382/447 450/392/455 451/393/456
f 429/255/450 82/6/6 444/252/457
f 308/1/8 443/383/448 458/391/454
f 437/388/451 436/385/449 451/393/456 452/394/458
f 430/287/452 429/255/450 444/252/457 445/308/459
f 438/368/438 437/388/451 452/394/458 453/253/460
f 431/371/440 430/287/452 445/308/459 446/395/461
f 439/369/439 438/368/438 453/253/460 454/396/462
f 432/372/441 431/371/440 446/395/461 447/397/463
f 440/398/442 439/369/439 454/396/462 455/399/464
f 433/376/443 432/372/441 447/397/463 448/400/465
f 441/377/444 440/374/442 455/401/464 456/402/466
f 434/379/445 433/376/443 448/400/465 449/249/467
f 442/380/446 441/377/444 456/402/466 457/390/453
f 435/382/447 434/379/445 449/249/467 450/392/455
f 455/399/464 454/396/462 469/403/468 470/404/469
f 448/400/465 447/397/463 462/405/470 463/406/471
f 456/402/466 455/401/464 470/407/469 471/408/472
f 449/249/467 448/400/465 463/406/471 464/409/473
f 457/390/453 456/402/466 471/408/472 472/410/474
f 450/392/455 449/249/467 464/409/473 465/411/475
f 458/391/454 457/390/453 472/410/474 473/412/476
f 451/393/456 450/392/455 465/411/475 466/413/477
f 444/252/457 82/6/6 459/414/478
f 308/1/8 458/391/454 473/412/476
f 452/394/458 451/393/456 466/413/477 467/415/479
f 445/308/459 444/252/457 459/414/478 460/311/480
f 453/253/460 452/394/458 467/415/479 468/416/481
f 446/395/461 445/308/459 460/311/480 461/417/482
f 454/396/462 453/253/460 468/416/481 469/403/468
f 447/397/463 446/395/461 461/417/482 462/405/470
f 459/414/478 82/6/6 474/5/5
f 308/1/8 473/412/476 482/2/9
f 467/415/479 466/413/477 4/1/1 5/9/11
f 460/311/480 459/414/478 474/5/5 475/11/13
f 468/416/481 467/415/479 5/9/11 478/13/15
f 461/417/482 460/311/480 475/11/13 1/15/17
f 469/403/468 468/416/481 478/13/15 6/17/19
f 462/405/470 461/417/482 1/15/17 476/19/21
f 470/404/469 469/403/468 6/17/19 479/21/23
f 463/406/471 462/405/470 476/19/21 2/23/25
f 471/408/472 470/407/469 479/26/23 480/25/27
f 464/409/473 463/406/471 2/23/25 477/29/29
f 472/410/474 471/408/472 480/25/27 481/31/31
f 465/411/475 464/409/473 477/29/29 3/2/2
f 473/412/476 472/410/474 481/31/31 482/2/9
f 466/413/477 465/411/475 3/2/2 4/1/1
