# Blender 4.0.2
# www.blender.org
mtllib cylinder_thick.mtl
o Cylinder.029
v 0.000000 -1.000000 -1.327312
v 0.000000 1.000000 -1.000000
v 0.410162 -1.000000 -1.262349
v 0.309017 1.000000 -0.951057
v 0.780174 -1.000000 -1.073818
v 0.587785 1.000000 -0.809017
v 1.073818 -1.000000 -0.780174
v 0.809017 1.000000 -0.587785
v 1.262349 -1.000000 -0.410162
v 0.951057 1.000000 -0.309017
v 1.327312 -1.000000 -0.000000
v 1.000000 1.000000 0.000000
v 1.262349 -1.000000 0.410162
v 0.951057 1.000000 0.309017
v 1.073818 -1.000000 0.780174
v 0.809017 1.000000 0.587785
v 0.780174 -1.000000 1.073818
v 0.587785 1.000000 0.809017
v 0.410162 -1.000000 1.262349
v 0.309017 1.000000 0.951057
v 0.000000 -1.000000 1.327312
v 0.000000 1.000000 1.000000
v -0.410162 -1.000000 1.262349
v -0.309017 1.000000 0.951057
v -0.780174 -1.000000 1.073818
v -0.587785 1.000000 0.809017
v -1.073818 -1.000000 0.780174
v -0.809017 1.000000 0.587785
v -1.262349 -1.000000 0.410162
v -0.951057 1.000000 0.309017
v -1.327312 -1.000000 -0.000000
v -1.000000 1.000000 0.000000
v -1.262349 -1.000000 -0.410162
v -0.951057 1.000000 -0.309017
v -1.073818 -1.000000 -0.780174
v -0.809017 1.000000 -0.587785
v -0.780174 -1.000000 -1.073818
v -0.587785 1.000000 -0.809017
v -0.410162 -1.000000 -1.262349
v -0.309017 1.000000 -0.951057
v 0.000000 -1.000000 -1.327312
v 0.000000 -0.703860 -1.184562
v 0.000000 -0.458924 -1.082151
v 0.000000 -0.234576 -1.020566
v 0.000000 0.000000 -1.000000
v 0.000000 0.250000 -1.000000
v 0.000000 0.500000 -1.000000
v 0.309017 0.500000 -0.951057
v 0.309017 0.250000 -0.951057
v 0.309017 0.000000 -0.951057
v 0.315372 -0.234576 -0.970616
v 0.334403 -0.458924 -1.029187
v 0.366050 -0.703860 -1.126586
v 0.410162 -1.000000 -1.262349
v 0.587785 0.500000 -0.809017
v 0.587785 0.250000 -0.809017
v 0.587785 0.000000 -0.809017
v 0.599873 -0.234576 -0.825655
v 0.636073 -0.458924 -0.875479
v 0.696268 -0.703860 -0.958331
v 0.780174 -1.000000 -1.073818
v 0.809017 0.500000 -0.587785
v 0.809017 0.250000 -0.587785
v 0.809017 0.000000 -0.587785
v 0.825655 -0.234576 -0.599873
v 0.875479 -0.458924 -0.636073
v 0.958331 -0.703860 -0.696268
v 1.073818 -1.000000 -0.780174
v 0.951057 0.500000 -0.309017
v 0.951057 0.250000 -0.309017
v 0.951057 0.000000 -0.309017
v 0.970616 -0.234576 -0.315372
v 1.029187 -0.458924 -0.334403
v 1.126586 -0.703860 -0.366050
v 1.262349 -1.000000 -0.410162
v 1.000000 0.500000 0.000000
v 1.000000 0.250000 0.000000
v 1.000000 0.000000 0.000000
v 1.020566 -0.234576 -0.000000
v 1.082151 -0.458924 -0.000000
v 1.184562 -0.703860 -0.000000
v 1.327312 -1.000000 -0.000000
v 0.951057 0.500000 0.309017
v 0.951057 0.250000 0.309017
v 0.951057 0.000000 0.309017
v 0.970616 -0.234576 0.315372
v 1.029187 -0.458924 0.334403
v 1.126586 -0.703860 0.366050
v 1.262349 -1.000000 0.410162
v 0.809017 0.500000 0.587785
v 0.809017 0.250000 0.587785
v 0.809017 0.000000 0.587785
v 0.825655 -0.234576 0.599873
v 0.875479 -0.458924 0.636073
v 0.958331 -0.703860 0.696268
v 1.073818 -1.000000 0.780174
v 0.587785 0.500000 0.809017
v 0.587785 0.250000 0.809017
v 0.587785 0.000000 0.809017
v 0.599873 -0.234576 0.825655
v 0.636073 -0.458924 0.875479
v 0.696268 -0.703860 0.958331
v 0.780174 -1.000000 1.073818
v 0.309017 0.500000 0.951057
v 0.309017 0.250000 0.951057
v 0.309017 0.000000 0.951057
v 0.315372 -0.234576 0.970616
v 0.334403 -0.458924 1.029187
v 0.366050 -0.703860 1.126586
v 0.410162 -1.000000 1.262349
v 0.000000 0.500000 1.000000
v 0.000000 0.250000 1.000000
v 0.000000 0.000000 1.000000
v 0.000000 -0.234576 1.020566
v 0.000000 -0.458924 1.082151
v 0.000000 -0.703860 1.184562
v 0.000000 -1.000000 1.327312
v -0.309017 0.500000 0.951057
v -0.309017 0.250000 0.951057
v -0.309017 0.000000 0.951057
v -0.315372 -0.234576 0.970616
v -0.334403 -0.458924 1.029187
v -0.366050 -0.703860 1.126586
v -0.410162 -1.000000 1.262349
v -0.587785 0.500000 0.809017
v -0.587785 0.250000 0.809017
v -0.587785 0.000000 0.809017
v -0.599873 -0.234576 0.825655
v -0.636073 -0.458924 0.875479
v -0.696268 -0.703860 0.958331
v -0.780174 -1.000000 1.073818
v -0.809017 0.500000 0.587785
v -0.809017 0.250000 0.587785
v -0.809017 0.000000 0.587785
v -0.825655 -0.234576 0.599873
v -0.875479 -0.458924 0.636073
v -0.958331 -0.703860 0.696268
v -1.073818 -1.000000 0.780174
v -0.951057 0.500000 0.309017
v -0.951057 0.250000 0.309017
v -0.951057 0.000000 0.309017
v -0.970616 -0.234576 0.315372
v -1.029187 -0.458924 0.334403
v -1.126586 -0.703860 0.366050
v -1.262349 -1.000000 0.410162
v -1.000000 0.500000 0.000000
v -1.000000 0.250000 0.000000
v -1.000000 0.000000 0.000000
v -1.020566 -0.234576 -0.000000
v -1.082151 -0.458924 -0.000000
v -1.184562 -0.703860 -0.000000
v -1.327312 -1.000000 -0.000000
v -0.951057 0.500000 -0.309017
v -0.951057 0.250000 -0.309017
v -0.951057 0.000000 -0.309017
v -0.970616 -0.234576 -0.315372
v -1.029187 -0.458924 -0.334403
v -1.126586 -0.703860 -0.366050
v -1.262349 -1.000000 -0.410162
v -0.809017 0.500000 -0.587785
v -0.809017 0.250000 -0.587785
v -0.809017 0.000000 -0.587785
v -0.825655 -0.234576 -0.599873
v -0.875479 -0.458924 -0.636073
v -0.958331 -0.703860 -0.696268
v -1.073818 -1.000000 -0.780174
v -0.587785 0.500000 -0.809017
v -0.587785 0.250000 -0.809017
v -0.587785 0.000000 -0.809017
v -0.599873 -0.234576 -0.825655
v -0.636073 -0.458924 -0.875479
v -0.696268 -0.703860 -0.958331
v -0.780174 -1.000000 -1.073818
v -0.309017 0.500000 -0.951057
v -0.309017 0.250000 -0.951057
v -0.309017 0.000000 -0.951057
v -0.315372 -0.234576 -0.970616
v -0.334403 -0.458924 -1.029187
v -0.366050 -0.703860 -1.126586
v -0.410162 -1.000000 -1.262349
v 0.000000 -0.843632 -1.250942
v 0.386562 -0.843632 -1.189717
v 0.735285 -0.843632 -1.012033
v 1.012033 -0.843632 -0.735285
v 1.189717 -0.843632 -0.386562
v 1.250942 -0.843632 -0.000000
v 1.189717 -0.843632 0.386562
v 1.012033 -0.843632 0.735285
v 0.735285 -0.843632 1.012033
v 0.386562 -0.843632 1.189717
v 0.000000 -0.843632 1.250942
v -0.386562 -0.843632 1.189717
v -0.735285 -0.843632 1.012033
v -1.012033 -0.843632 0.735285
v -1.189717 -0.843632 0.386562
v -1.250942 -0.843632 -0.000000
v -1.189717 -0.843632 -0.386562
v -1.012033 -0.843632 -0.735285
v -0.735285 -0.843632 -1.012033
v -0.386562 -0.843632 -1.189717
v 0.000000 -0.576897 -1.128275
v 0.348656 -0.576897 -1.073053
v 0.663183 -0.576897 -0.912794
v 0.912794 -0.576897 -0.663183
v 1.073053 -0.576897 -0.348656
v 1.128275 -0.576897 -0.000000
v 1.073053 -0.576897 0.348656
v 0.912794 -0.576897 0.663183
v 0.663183 -0.576897 0.912794
v 0.348656 -0.576897 1.073053
v 0.000000 -0.576897 1.128275
v -0.348656 -0.576897 1.073053
v -0.663183 -0.576897 0.912794
v -0.912794 -0.576897 0.663183
v -1.073053 -0.576897 0.348656
v -1.128275 -0.576897 -0.000000
v -1.073053 -0.576897 -0.348656
v -0.912794 -0.576897 -0.663183
v -0.663183 -0.576897 -0.912794
v -0.348656 -0.576897 -1.073053
v 1.327312 -1.000000 -0.000000
v 1.073053 -0.576897 0.348656
v 0.000000 -1.000000 -1.327312
v 0.000000 -0.703860 -1.184562
v 0.000000 -0.458924 -1.082151
v 0.334403 -0.458924 -1.029187
v 0.366050 -0.703860 -1.126586
v 0.410162 -1.000000 -1.262349
v 0.636073 -0.458924 -0.875479
v 0.696268 -0.703860 -0.958331
v 0.780174 -1.000000 -1.073818
v 0.875479 -0.458924 -0.636073
v 0.958331 -0.703860 -0.696268
v 1.073818 -1.000000 -0.780174
v 1.029187 -0.458924 -0.334403
v 1.126586 -0.703860 -0.366050
v 1.262349 -1.000000 -0.410162
v 1.128275 -0.576897 -0.000000
v 1.073053 -0.576897 -0.348656
v 1.029187 -0.458924 0.334403
v 1.082151 -0.458924 -0.000000
v 1.029187 -0.458924 -0.334403
v 1.184562 -0.703860 -0.000000
v 1.327312 -1.000000 -0.000000
v 1.029187 -0.458924 0.334403
v 1.126586 -0.703860 0.366050
v 1.262349 -1.000000 0.410162
v 0.875479 -0.458924 0.636073
v 0.958331 -0.703860 0.696268
v 1.073818 -1.000000 0.780174
v 0.636073 -0.458924 0.875479
v 0.696268 -0.703860 0.958331
v 0.780174 -1.000000 1.073818
v 0.334403 -0.458924 1.029187
v 0.366050 -0.703860 1.126586
v 0.410162 -1.000000 1.262349
v 0.000000 -0.458924 1.082151
v 0.000000 -0.703860 1.184562
v 0.000000 -1.000000 1.327312
v -0.334403 -0.458924 1.029187
v -0.366050 -0.703860 1.126586
v -0.410162 -1.000000 1.262349
v -0.636073 -0.458924 0.875479
v -0.696268 -0.703860 0.958331
v -0.780174 -1.000000 1.073818
v -0.875479 -0.458924 0.636073
v -0.958331 -0.703860 0.696268
v -1.073818 -1.000000 0.780174
v -1.029187 -0.458924 0.334403
v -1.126586 -0.703860 0.366050
v -1.262349 -1.000000 0.410162
v -1.082151 -0.458924 -0.000000
v -1.184562 -0.703860 -0.000000
v -1.327312 -1.000000 -0.000000
v -1.029187 -0.458924 -0.334403
v -1.126586 -0.703860 -0.366050
v -1.262349 -1.000000 -0.410162
v -0.875479 -0.458924 -0.636073
v -0.958331 -0.703860 -0.696268
v -1.073818 -1.000000 -0.780174
v -0.636073 -0.458924 -0.875479
v -0.696268 -0.703860 -0.958331
v -0.780174 -1.000000 -1.073818
v -0.334403 -0.458924 -1.029187
v -0.366050 -0.703860 -1.126586
v -0.410162 -1.000000 -1.262349
v 0.000000 -0.843632 -1.250942
v 0.386562 -0.843632 -1.189717
v 0.735285 -0.843632 -1.012033
v 1.012033 -0.843632 -0.735285
v 1.189717 -0.843632 -0.386562
v 1.250942 -0.843632 -0.000000
v 1.189717 -0.843632 0.386562
v 1.012033 -0.843632 0.735285
v 0.735285 -0.843632 1.012033
v 0.386562 -0.843632 1.189717
v 0.000000 -0.843632 1.250942
v -0.386562 -0.843632 1.189717
v -0.735285 -0.843632 1.012033
v -1.012033 -0.843632 0.735285
v -1.189717 -0.843632 0.386562
v -1.250942 -0.843632 -0.000000
v -1.189717 -0.843632 -0.386562
v -1.012033 -0.843632 -0.735285
v -0.735285 -0.843632 -1.012033
v -0.386562 -0.843632 -1.189717
v 0.000000 -0.576897 -1.128275
v 0.348656 -0.576897 -1.073053
v 0.663183 -0.576897 -0.912794
v 0.912794 -0.576897 -0.663183
v 1.073053 -0.576897 -0.348656
v 1.128275 -0.576897 -0.000000
v 1.073053 -0.576897 0.348656
v 0.912794 -0.576897 0.663183
v 0.663183 -0.576897 0.912794
v 0.348656 -0.576897 1.073053
v 0.000000 -0.576897 1.128275
v -0.348656 -0.576897 1.073053
v -0.663183 -0.576897 0.912794
v -0.912794 -0.576897 0.663183
v -1.073053 -0.576897 0.348656
v -1.128275 -0.576897 -0.000000
v -1.073053 -0.576897 -0.348656
v -0.912794 -0.576897 -0.663183
v -0.663183 -0.576897 -0.912794
v -0.348656 -0.576897 -1.073053
v 0.000000 -1.000000 -1.327312
v 0.000000 -0.703860 -1.184562
v 0.000000 -0.458924 -1.082151
v 0.334403 -0.458924 -1.029187
v 0.366050 -0.703860 -1.126586
v 0.410162 -1.000000 -1.262349
v 0.636073 -0.458924 -0.875479
v 0.696268 -0.703860 -0.958331
v 0.780174 -1.000000 -1.073818
v 0.875479 -0.458924 -0.636073
v 0.958331 -0.703860 -0.696268
v 1.073818 -1.000000 -0.780174
v 1.029187 -0.458924 -0.334403
v 1.126586 -0.703860 -0.366050
v 1.262349 -1.000000 -0.410162
v 1.184562 -0.703860 -0.000000
v 1.327312 -1.000000 -0.000000
v 1.029187 -0.458924 0.334403
v 1.126586 -0.703860 0.366050
v 1.262349 -1.000000 0.410162
v 0.875479 -0.458924 0.636073
v 0.958331 -0.703860 0.696268
v 1.073818 -1.000000 0.780174
v 0.636073 -0.458924 0.875479
v 0.696268 -0.703860 0.958331
v 0.780174 -1.000000 1.073818
v 0.334403 -0.458924 1.029187
v 0.366050 -0.703860 1.126586
v 0.410162 -1.000000 1.262349
v 0.000000 -0.458924 1.082151
v 0.000000 -0.703860 1.184562
v 0.000000 -1.000000 1.327312
v -0.334403 -0.458924 1.029187
v -0.366050 -0.703860 1.126586
v -0.410162 -1.000000 1.262349
v -0.636073 -0.458924 0.875479
v -0.696268 -0.703860 0.958331
v -0.780174 -1.000000 1.073818
v -0.875479 -0.458924 0.636073
v -0.958331 -0.703860 0.696268
v -1.073818 -1.000000 0.780174
v -1.029187 -0.458924 0.334403
v -1.126586 -0.703860 0.366050
v -1.262349 -1.000000 0.410162
v -1.082151 -0.458924 -0.000000
v -1.184562 -0.703860 -0.000000
v -1.327312 -1.000000 -0.000000
v -1.029187 -0.458924 -0.334403
v -1.126586 -0.703860 -0.366050
v -1.262349 -1.000000 -0.410162
v -0.875479 -0.458924 -0.636073
v -0.958331 -0.703860 -0.696268
v -1.073818 -1.000000 -0.780174
v -0.636073 -0.458924 -0.875479
v -0.696268 -0.703860 -0.958331
v -0.780174 -1.000000 -1.073818
v -0.334403 -0.458924 -1.029187
v -0.366050 -0.703860 -1.126586
v -0.410162 -1.000000 -1.262349
v 0.000000 -0.843632 -1.250942
v 0.386562 -0.843632 -1.189717
v 0.735285 -0.843632 -1.012033
v 1.012033 -0.843632 -0.735285
v 1.189717 -0.843632 -0.386562
v 1.250942 -0.843632 -0.000000
v 1.189717 -0.843632 0.386562
v 1.012033 -0.843632 0.735285
v 0.735285 -0.843632 1.012033
v 0.386562 -0.843632 1.189717
v 0.000000 -0.843632 1.250942
v -0.386562 -0.843632 1.189717
v -0.735285 -0.843632 1.012033
v -1.012033 -0.843632 0.735285
v -1.189717 -0.843632 0.386562
v -1.250942 -0.843632 -0.000000
v -1.189717 -0.843632 -0.386562
v -1.012033 -0.843632 -0.735285
v -0.735285 -0.843632 -1.012033
v -0.386562 -0.843632 -1.189717
v 0.000000 -0.576897 -1.128275
v 0.348656 -0.576897 -1.073053
v 0.663183 -0.576897 -0.912794
v 0.912794 -0.576897 -0.663183
v 1.073053 -0.576897 -0.348656
v 1.128275 -0.576897 -0.000000
v 1.073053 -0.576897 0.348656
v 0.912794 -0.576897 0.663183
v 0.663183 -0.576897 0.912794
v 0.348656 -0.576897 1.073053
v 0.000000 -0.576897 1.128275
v -0.348656 -0.576897 1.073053
v -0.663183 -0.576897 0.912794
v -0.912794 -0.576897 0.663183
v -1.073053 -0.576897 0.348656
v -1.128275 -0.576897 -0.000000
v -1.073053 -0.576897 -0.348656
v -0.912794 -0.576897 -0.663183
v -0.663183 -0.576897 -0.912794
v -0.348656 -0.576897 -1.073053
v 1.073053 -0.576897 0.348656
v 1.128275 -0.576897 -0.000000
v 1.073053 -0.576897 -0.348656
v 1.029187 -0.458924 0.334403
v 1.082151 -0.458924 -0.000000
v 1.029187 -0.458924 -0.334403
v 0.000000 -1.000000 -1.327312
v 0.000000 -0.703860 -1.184562
v 0.000000 -0.458924 -1.082151
v 0.334403 -0.458924 -1.029187
v 0.366050 -0.703860 -1.126586
v 0.410162 -1.000000 -1.262349
v 0.636073 -0.458924 -0.875479
v 0.696268 -0.703860 -0.958331
v 0.780174 -1.000000 -1.073818
v 0.875479 -0.458924 -0.636073
v 0.958331 -0.703860 -0.696268
v 1.073818 -1.000000 -0.780174
v 1.029187 -0.458924 -0.334403
v 1.126586 -0.703860 -0.366050
v 1.262349 -1.000000 -0.410162
v 1.184562 -0.703860 -0.000000
v 1.327312 -1.000000 -0.000000
v 1.029187 -0.458924 0.334403
v 1.126586 -0.703860 0.366050
v 1.262349 -1.000000 0.410162
v 0.875479 -0.458924 0.636073
v 0.958331 -0.703860 0.696268
v 1.073818 -1.000000 0.780174
v 0.636073 -0.458924 0.875479
v 0.696268 -0.703860 0.958331
v 0.780174 -1.000000 1.073818
v 0.334403 -0.458924 1.029187
v 0.366050 -0.703860 1.126586
v 0.410162 -1.000000 1.262349
v 0.000000 -0.458924 1.082151
v 0.000000 -0.703860 1.184562
v 0.000000 -1.000000 1.327312
v -0.334403 -0.458924 1.029187
v -0.366050 -0.703860 1.126586
v -0.410162 -1.000000 1.262349
v -0.636073 -0.458924 0.875479
v -0.696268 -0.703860 0.958331
v -0.780174 -1.000000 1.073818
v -0.875479 -0.458924 0.636073
v -0.958331 -0.703860 0.696268
v -1.073818 -1.000000 0.780174
v -1.029187 -0.458924 0.334403
v -1.126586 -0.703860 0.366050
v -1.262349 -1.000000 0.410162
v -1.082151 -0.458924 -0.000000
v -1.184562 -0.703860 -0.000000
v -1.327312 -1.000000 -0.000000
v -1.029187 -0.458924 -0.334403
v -1.126586 -0.703860 -0.366050
v -1.262349 -1.000000 -0.410162
v -0.875479 -0.458924 -0.636073
v -0.958331 -0.703860 -0.696268
v -1.073818 -1.000000 -0.780174
v -0.636073 -0.458924 -0.875479
v -0.696268 -0.703860 -0.958331
v -0.780174 -1.000000 -1.073818
v -0.334403 -0.458924 -1.029187
v -0.366050 -0.703860 -1.126586
v -0.410162 -1.000000 -1.262349
v 0.000000 -0.843632 -1.250942
v 0.386562 -0.843632 -1.189717
v 0.735285 -0.843632 -1.012033
v 1.012033 -0.843632 -0.735285
v 1.189717 -0.843632 -0.386562
v 1.250942 -0.843632 -0.000000
v 1.189717 -0.843632 0.386562
v 1.012033 -0.843632 0.735285
v 0.735285 -0.843632 1.012033
v 0.386562 -0.843632 1.189717
v 0.000000 -0.843632 1.250942
v -0.386562 -0.843632 1.189717
v -0.735285 -0.843632 1.012033
v -1.012033 -0.843632 0.735285
v -1.189717 -0.843632 0.386562
v -1.250942 -0.843632 -0.000000
v -1.189717 -0.843632 -0.386562
v -1.012033 -0.843632 -0.735285
v -0.735285 -0.843632 -1.012033
v -0.386562 -0.843632 -1.189717
v 0.000000 -0.576897 -1.128275
v 0.348656 -0.576897 -1.073053
v 0.663183 -0.576897 -0.912794
v 0.912794 -0.576897 -0.663183
v 1.073053 -0.576897 -0.348656
v 1.128275 -0.576897 -0.000000
v 1.073053 -0.576897 0.348656
v 0.912794 -0.576897 0.663183
v 0.663183 -0.576897 0.912794
v 0.348656 -0.576897 1.073053
v 0.000000 -0.576897 1.128275
v -0.348656 -0.576897 1.073053
v -0.663183 -0.576897 0.912794
v -0.912794 -0.576897 0.663183
v -1.073053 -0.576897 0.348656
v -1.128275 -0.576897 -0.000000
v -1.073053 -0.576897 -0.348656
v -0.912794 -0.576897 -0.663183
v -0.663183 -0.576897 -0.912794
v -0.348656 -0.576897 -1.073053
vn -0.0000 -0.0000 -1.0000
vn 0.3090 -0.0000 -0.9511
vn 0.5878 -0.0000 -0.8090
vn 0.8090 -0.0000 -0.5878
vn 0.9511 -0.0000 -0.3090
vn 1.0000 -0.0000 -0.0000
vn 0.9511 -0.0000 0.3090
vn 0.8090 -0.0000 0.5878
vn 0.5878 -0.0000 0.8090
vn 0.3090 -0.0000 0.9511
vn -0.0000 -0.0000 1.0000
vn -0.3090 -0.0000 0.9511
vn -0.5878 -0.0000 0.8090
vn -0.8090 -0.0000 0.5878
vn -0.9511 -0.0000 0.3090
vn -1.0000 -0.0000 -0.0000
vn -0.9511 -0.0000 -0.3090
vn -0.8090 -0.0000 -0.5878
vn -0.5878 -0.0000 -0.8090
vn -0.3090 -0.0000 -0.9511
vn -0.0000 1.0000 -0.0000
vn -0.2784 0.4341 -0.8568
vn -0.2808 0.4177 -0.8641
vn -0.0000 0.4177 -0.9086
vn -0.0000 0.4341 -0.9008
vn -0.2851 0.3856 -0.8775
vn -0.2931 0.3164 -0.9022
vn -0.0000 0.3164 -0.9486
vn -0.0000 0.3856 -0.9227
vn -0.3041 0.1783 -0.9358
vn -0.0000 0.1783 -0.9840
vn -0.3087 0.0439 -0.9501
vn -0.0000 0.0439 -0.9990
vn -0.5295 0.4341 -0.7288
vn -0.5341 0.4177 -0.7351
vn -0.5423 0.3856 -0.7465
vn -0.5576 0.3164 -0.7674
vn -0.5784 0.1783 -0.7960
vn -0.5872 0.0439 -0.8082
vn -0.7288 0.4341 -0.5295
vn -0.7351 0.4177 -0.5341
vn -0.7465 0.3856 -0.5423
vn -0.7674 0.3164 -0.5576
vn -0.7960 0.1783 -0.5784
vn -0.8082 0.0439 -0.5872
vn -0.8568 0.4341 -0.2784
vn -0.8641 0.4177 -0.2808
vn -0.8775 0.3856 -0.2851
vn -0.9022 0.3164 -0.2931
vn -0.9358 0.1783 -0.3041
vn -0.9501 0.0439 -0.3087
vn -0.9008 0.4341 -0.0000
vn -0.9086 0.4177 -0.0000
vn -0.9227 0.3856 -0.0000
vn -0.9486 0.3164 -0.0000
vn -0.9840 0.1783 -0.0000
vn -0.9990 0.0439 -0.0000
vn -0.8568 0.4341 0.2784
vn -0.8641 0.4177 0.2808
vn -0.8775 0.3856 0.2851
vn -0.9022 0.3164 0.2931
vn -0.9358 0.1783 0.3041
vn -0.9501 0.0439 0.3087
vn -0.7288 0.4341 0.5295
vn -0.7351 0.4177 0.5341
vn -0.7465 0.3856 0.5423
vn -0.7674 0.3164 0.5576
vn -0.7960 0.1783 0.5784
vn -0.8082 0.0439 0.5872
vn -0.5295 0.4341 0.7288
vn -0.5341 0.4177 0.7351
vn -0.5423 0.3856 0.7465
vn -0.5576 0.3164 0.7674
vn -0.5784 0.1783 0.7960
vn -0.5872 0.0439 0.8082
vn -0.2784 0.4341 0.8568
vn -0.2808 0.4177 0.8641
vn -0.2851 0.3856 0.8775
vn -0.2931 0.3164 0.9022
vn -0.3041 0.1783 0.9358
vn -0.3087 0.0439 0.9501
vn -0.0000 0.4341 0.9008
vn -0.0000 0.4177 0.9086
vn -0.0000 0.3856 0.9227
vn -0.0000 0.3164 0.9486
vn -0.0000 0.1783 0.9840
vn -0.0000 0.0439 0.9990
vn 0.2784 0.4341 0.8568
vn 0.2808 0.4177 0.8641
vn 0.2851 0.3856 0.8775
vn 0.2931 0.3164 0.9022
vn 0.3041 0.1783 0.9358
vn 0.3087 0.0439 0.9501
vn 0.5295 0.4341 0.7288
vn 0.5341 0.4177 0.7351
vn 0.5423 0.3856 0.7465
vn 0.5576 0.3164 0.7674
vn 0.5784 0.1783 0.7960
vn 0.5872 0.0439 0.8082
vn 0.7288 0.4341 0.5295
vn 0.7351 0.4177 0.5341
vn 0.7465 0.3856 0.5423
vn 0.7674 0.3164 0.5576
vn 0.7960 0.1783 0.5784
vn 0.8082 0.0439 0.5872
vn 0.8568 0.4341 0.2784
vn 0.8641 0.4177 0.2808
vn 0.8775 0.3856 0.2851
vn 0.9022 0.3164 0.2931
vn 0.9358 0.1783 0.3041
vn 0.9501 0.0439 0.3087
vn 0.9008 0.4341 -0.0000
vn 0.9086 0.4177 -0.0000
vn 0.9227 0.3856 -0.0000
vn 0.9486 0.3164 -0.0000
vn 0.9840 0.1783 -0.0000
vn 0.9990 0.0439 -0.0000
vn 0.8568 0.4341 -0.2784
vn 0.8641 0.4177 -0.2808
vn 0.8775 0.3856 -0.2851
vn 0.9022 0.3164 -0.2931
vn 0.9358 0.1783 -0.3041
vn 0.9501 0.0439 -0.3087
vn 0.7288 0.4341 -0.5295
vn 0.7351 0.4177 -0.5341
vn 0.7465 0.3856 -0.5423
vn 0.7674 0.3164 -0.5576
vn 0.7960 0.1783 -0.5784
vn 0.8082 0.0439 -0.5872
vn 0.5295 0.4341 -0.7288
vn 0.5341 0.4177 -0.7351
vn 0.5423 0.3856 -0.7465
vn 0.5576 0.3164 -0.7674
vn 0.5784 0.1783 -0.7960
vn 0.5872 0.0439 -0.8082
vn 0.2784 0.4341 -0.8568
vn 0.2808 0.4177 -0.8641
vn 0.2851 0.3856 -0.8775
vn 0.2931 0.3164 -0.9022
vn 0.3041 0.1783 -0.9358
vn 0.3087 0.0439 -0.9501
vn -0.0000 0.4389 -0.8986
vn 0.2777 0.4389 -0.8546
vn 0.5282 0.4389 -0.7269
vn 0.7269 0.4389 -0.5282
vn 0.8546 0.4389 -0.2777
vn 0.8986 0.4389 -0.0000
vn 0.8546 0.4389 0.2777
vn 0.7269 0.4389 0.5282
vn 0.5282 0.4389 0.7269
vn 0.2777 0.4389 0.8546
vn -0.0000 0.4389 0.8986
vn -0.2777 0.4389 0.8546
vn -0.5282 0.4389 0.7269
vn -0.7269 0.4389 0.5282
vn -0.8546 0.4389 0.2777
vn -0.8986 0.4389 -0.0000
vn -0.8546 0.4389 -0.2777
vn -0.7269 0.4389 -0.5282
vn -0.5282 0.4389 -0.7269
vn -0.2777 0.4389 -0.8546
vn -0.2878 0.3641 -0.8858
vn -0.0000 0.3641 -0.9313
vn -0.5474 0.3641 -0.7535
vn -0.7535 0.3641 -0.5474
vn -0.8858 0.3641 -0.2878
vn -0.9313 0.3641 -0.0000
vn -0.8858 0.3641 0.2878
vn -0.7535 0.3641 0.5474
vn -0.5474 0.3641 0.7535
vn -0.2878 0.3641 0.8858
vn -0.0000 0.3641 0.9313
vn 0.2878 0.3641 0.8858
vn 0.5474 0.3641 0.7535
vn 0.7535 0.3641 0.5474
vn 0.8594 0.3919 0.3283
vn 0.8312 0.3602 0.4235
vn 0.9214 0.3602 -0.1459
vn 0.9313 0.3641 -0.0000
vn 0.9214 0.3602 0.1459
vn 0.7535 0.3641 -0.5474
vn 0.8312 0.3602 -0.4235
vn 0.8594 0.3919 -0.3283
vn 0.5474 0.3641 -0.7535
vn 0.2878 0.3641 -0.8858
vn 0.9142 0.4053 -0.0000
vt 1.000000 0.875000
vt 1.000000 1.000000
vt 0.950000 1.000000
vt 0.950000 0.875000
vt 0.900000 1.000000
vt 0.900000 0.875000
vt 0.850000 1.000000
vt 0.850000 0.875000
vt 0.800000 1.000000
vt 0.800000 0.875000
vt 0.750000 1.000000
vt 0.750000 0.875000
vt 0.700000 1.000000
vt 0.700000 0.875000
vt 0.650000 1.000000
vt 0.650000 0.875000
vt 0.600000 1.000000
vt 0.600000 0.875000
vt 0.550000 1.000000
vt 0.550000 0.875000
vt 0.500000 1.000000
vt 0.500000 0.875000
vt 0.450000 1.000000
vt 0.450000 0.875000
vt 0.400000 1.000000
vt 0.400000 0.875000
vt 0.350000 1.000000
vt 0.350000 0.875000
vt 0.300000 1.000000
vt 0.300000 0.875000
vt 0.250000 1.000000
vt 0.250000 0.875000
vt 0.200000 1.000000
vt 0.200000 0.875000
vt 0.150000 1.000000
vt 0.150000 0.875000
vt 0.100000 1.000000
vt 0.100000 0.875000
vt 0.050000 1.000000
vt 0.050000 0.875000
vt -0.000000 1.000000
vt -0.000000 0.875000
vt 0.050000 0.500000
vt -0.000000 0.500000
vt 0.050000 0.531250
vt 0.050000 0.562500
vt -0.000000 0.562500
vt -0.000000 0.531250
vt 0.050000 0.593750
vt 0.050000 0.625000
vt -0.000000 0.625000
vt -0.000000 0.593750
vt 0.050000 0.687500
vt -0.000000 0.687500
vt 0.050000 0.750000
vt -0.000000 0.750000
vt 0.050000 0.812500
vt -0.000000 0.812500
vt 0.100000 0.500000
vt 0.100000 0.531250
vt 0.100000 0.562500
vt 0.100000 0.593750
vt 0.100000 0.625000
vt 0.100000 0.687500
vt 0.100000 0.750000
vt 0.100000 0.812500
vt 0.150000 0.500000
vt 0.150000 0.500000
vt 0.150000 0.531250
vt 0.150000 0.562500
vt 0.150000 0.593750
vt 0.150000 0.625000
vt 0.150000 0.687500
vt 0.150000 0.750000
vt 0.150000 0.812500
vt 0.200000 0.500000
vt 0.200000 0.531250
vt 0.200000 0.562500
vt 0.200000 0.593750
vt 0.200000 0.625000
vt 0.200000 0.687500
vt 0.200000 0.750000
vt 0.200000 0.812500
vt 0.250000 0.500000
vt 0.250000 0.531250
vt 0.250000 0.562500
vt 0.250000 0.593750
vt 0.250000 0.625000
vt 0.250000 0.687500
vt 0.250000 0.750000
vt 0.250000 0.812500
vt 0.300000 0.500000
vt 0.300000 0.531250
vt 0.300000 0.562500
vt 0.300000 0.593750
vt 0.300000 0.625000
vt 0.300000 0.687500
vt 0.300000 0.750000
vt 0.300000 0.812500
vt 0.350000 0.500000
vt 0.350000 0.531250
vt 0.350000 0.562500
vt 0.350000 0.593750
vt 0.350000 0.625000
vt 0.350000 0.687500
vt 0.350000 0.750000
vt 0.350000 0.812500
vt 0.400000 0.500000
vt 0.400000 0.531250
vt 0.400000 0.562500
vt 0.400000 0.593750
vt 0.400000 0.625000
vt 0.400000 0.687500
vt 0.400000 0.750000
vt 0.400000 0.812500
vt 0.450000 0.500000
vt 0.450000 0.531250
vt 0.450000 0.562500
vt 0.450000 0.593750
vt 0.450000 0.625000
vt 0.450000 0.687500
vt 0.450000 0.750000
vt 0.450000 0.812500
vt 0.500000 0.500000
vt 0.500000 0.531250
vt 0.500000 0.562500
vt 0.500000 0.593750
vt 0.500000 0.625000
vt 0.500000 0.687500
vt 0.500000 0.750000
vt 0.500000 0.812500
vt 0.550000 0.500000
vt 0.550000 0.531250
vt 0.550000 0.562500
vt 0.550000 0.593750
vt 0.550000 0.625000
vt 0.550000 0.687500
vt 0.550000 0.750000
vt 0.550000 0.812500
vt 0.600000 0.500000
vt 0.600000 0.531250
vt 0.600000 0.562500
vt 0.600000 0.593750
vt 0.600000 0.625000
vt 0.600000 0.687500
vt 0.600000 0.750000
vt 0.600000 0.812500
vt 0.650000 0.500000
vt 0.650000 0.531250
vt 0.650000 0.562500
vt 0.650000 0.593750
vt 0.650000 0.625000
vt 0.650000 0.687500
vt 0.650000 0.750000
vt 0.650000 0.812500
vt 0.700000 0.500000
vt 0.700000 0.531250
vt 0.700000 0.562500
vt 0.700000 0.593750
vt 0.700000 0.625000
vt 0.700000 0.687500
vt 0.700000 0.750000
vt 0.700000 0.812500
vt 0.750000 0.500000
vt 0.750000 0.531250
vt 0.750000 0.562500
vt 0.750000 0.593750
vt 0.750000 0.625000
vt 0.750000 0.687500
vt 0.750000 0.750000
vt 0.750000 0.812500
vt 0.800000 0.500000
vt 0.800000 0.531250
vt 0.800000 0.562500
vt 0.800000 0.593750
vt 0.800000 0.625000
vt 0.800000 0.687500
vt 0.800000 0.750000
vt 0.800000 0.812500
vt 0.850000 0.500000
vt 0.850000 0.500000
vt 0.850000 0.531250
vt 0.850000 0.562500
vt 0.850000 0.593750
vt 0.850000 0.625000
vt 0.850000 0.687500
vt 0.850000 0.750000
vt 0.850000 0.812500
vt 0.900000 0.500000
vt 0.900000 0.531250
vt 0.900000 0.562500
vt 0.900000 0.593750
vt 0.900000 0.625000
vt 0.900000 0.687500
vt 0.900000 0.750000
vt 0.900000 0.812500
vt 0.950000 0.500000
vt 0.950000 0.531250
vt 0.950000 0.562500
vt 0.950000 0.593750
vt 0.950000 0.625000
vt 0.950000 0.687500
vt 0.950000 0.750000
vt 0.950000 0.812500
vt 1.000000 0.500000
vt 1.000000 0.531250
vt 1.000000 0.562500
vt 1.000000 0.593750
vt 1.000000 0.625000
vt 1.000000 0.687500
vt 1.000000 0.750000
vt 1.000000 0.812500
s 1
f 47/1/1 2/2/1 4/3/2 48/4/2
f 48/4/2 4/3/2 6/5/3 55/6/3
f 55/6/3 6/5/3 8/7/4 62/8/4
f 62/8/4 8/7/4 10/9/5 69/10/5
f 69/10/5 10/9/5 12/11/6 76/12/6
f 76/12/6 12/11/6 14/13/7 83/14/7
f 83/14/7 14/13/7 16/15/8 90/16/8
f 90/16/8 16/15/8 18/17/9 97/18/9
f 97/18/9 18/17/9 20/19/10 104/20/10
f 104/20/10 20/19/10 22/21/11 111/22/11
f 111/22/11 22/21/11 24/23/12 118/24/12
f 118/24/12 24/23/12 26/25/13 125/26/13
f 125/26/13 26/25/13 28/27/14 132/28/14
f 132/28/14 28/27/14 30/29/15 139/30/15
f 139/30/15 30/29/15 32/31/16 146/32/16
f 146/32/16 32/31/16 34/33/17 153/34/17
f 153/34/17 34/33/17 36/35/18 160/36/18
f 160/36/18 36/35/18 38/37/19 167/38/19
f 167/38/19 38/37/19 40/39/20 174/40/20
f 174/40/20 40/39/20 2/41/1 47/42/1
f 39/43/21 180/43/21 41/44/21 1/44/21
f 200/45/22 179/46/23 42/47/24 181/48/25
f 220/49/26 178/50/27 43/51/28 201/52/29
f 178/50/27 177/53/30 44/54/31 43/51/28
f 177/53/30 176/55/32 45/56/33 44/54/31
f 176/55/32 175/57/20 46/58/1 45/56/33
f 175/57/20 174/40/20 47/42/1 46/58/1
f 37/59/21 173/59/21 180/43/21 39/43/21
f 199/60/34 172/61/35 179/46/23 200/45/22
f 219/62/36 171/63/37 178/50/27 220/49/26
f 171/63/37 170/64/38 177/53/30 178/50/27
f 170/64/38 169/65/39 176/55/32 177/53/30
f 169/65/39 168/66/19 175/57/20 176/55/32
f 168/66/19 167/38/19 174/40/20 175/57/20
f 35/67/21 166/68/21 173/59/21 37/59/21
f 198/69/40 165/70/41 172/61/35 199/60/34
f 218/71/42 164/72/43 171/63/37 219/62/36
f 164/72/43 163/73/44 170/64/38 171/63/37
f 163/73/44 162/74/45 169/65/39 170/64/38
f 162/74/45 161/75/18 168/66/19 169/65/39
f 161/75/18 160/36/18 167/38/19 168/66/19
f 33/76/21 159/76/21 166/68/21 35/67/21
f 197/77/46 158/78/47 165/70/41 198/69/40
f 217/79/48 157/80/49 164/72/43 218/71/42
f 157/80/49 156/81/50 163/73/44 164/72/43
f 156/81/50 155/82/51 162/74/45 163/73/44
f 155/82/51 154/83/17 161/75/18 162/74/45
f 154/83/17 153/34/17 160/36/18 161/75/18
f 31/84/21 152/84/21 159/76/21 33/76/21
f 196/85/52 151/86/53 158/78/47 197/77/46
f 216/87/54 150/88/55 157/80/49 217/79/48
f 150/88/55 149/89/56 156/81/50 157/80/49
f 149/89/56 148/90/57 155/82/51 156/81/50
f 148/90/57 147/91/16 154/83/17 155/82/51
f 147/91/16 146/32/16 153/34/17 154/83/17
f 29/92/21 145/92/21 152/84/21 31/84/21
f 195/93/58 144/94/59 151/86/53 196/85/52
f 215/95/60 143/96/61 150/88/55 216/87/54
f 143/96/61 142/97/62 149/89/56 150/88/55
f 142/97/62 141/98/63 148/90/57 149/89/56
f 141/98/63 140/99/15 147/91/16 148/90/57
f 140/99/15 139/30/15 146/32/16 147/91/16
f 27/100/21 138/100/21 145/92/21 29/92/21
f 194/101/64 137/102/65 144/94/59 195/93/58
f 214/103/66 136/104/67 143/96/61 215/95/60
f 136/104/67 135/105/68 142/97/62 143/96/61
f 135/105/68 134/106/69 141/98/63 142/97/62
f 134/106/69 133/107/14 140/99/15 141/98/63
f 133/107/14 132/28/14 139/30/15 140/99/15
f 25/108/21 131/108/21 138/100/21 27/100/21
f 193/109/70 130/110/71 137/102/65 194/101/64
f 213/111/72 129/112/73 136/104/67 214/103/66
f 129/112/73 128/113/74 135/105/68 136/104/67
f 128/113/74 127/114/75 134/106/69 135/105/68
f 127/114/75 126/115/13 133/107/14 134/106/69
f 126/115/13 125/26/13 132/28/14 133/107/14
f 23/116/21 124/116/21 131/108/21 25/108/21
f 192/117/76 123/118/77 130/110/71 193/109/70
f 212/119/78 122/120/79 129/112/73 213/111/72
f 122/120/79 121/121/80 128/113/74 129/112/73
f 121/121/80 120/122/81 127/114/75 128/113/74
f 120/122/81 119/123/12 126/115/13 127/114/75
f 119/123/12 118/24/12 125/26/13 126/115/13
f 21/124/21 117/124/21 124/116/21 23/116/21
f 191/125/82 116/126/83 123/118/77 192/117/76
f 211/127/84 115/128/85 122/120/79 212/119/78
f 115/128/85 114/129/86 121/121/80 122/120/79
f 114/129/86 113/130/87 120/122/81 121/121/80
f 113/130/87 112/131/11 119/123/12 120/122/81
f 112/131/11 111/22/11 118/24/12 119/123/12
f 19/132/21 110/132/21 117/124/21 21/124/21
f 190/133/88 109/134/89 116/126/83 191/125/82
f 210/135/90 108/136/91 115/128/85 211/127/84
f 108/136/91 107/137/92 114/129/86 115/128/85
f 107/137/92 106/138/93 113/130/87 114/129/86
f 106/138/93 105/139/10 112/131/11 113/130/87
f 105/139/10 104/20/10 111/22/11 112/131/11
f 17/140/21 103/140/21 110/132/21 19/132/21
f 189/141/94 102/142/95 109/134/89 190/133/88
f 209/143/96 101/144/97 108/136/91 210/135/90
f 101/144/97 100/145/98 107/137/92 108/136/91
f 100/145/98 99/146/99 106/138/93 107/137/92
f 99/146/99 98/147/9 105/139/10 106/138/93
f 98/147/9 97/18/9 104/20/10 105/139/10
f 15/148/21 96/148/21 103/140/21 17/140/21
f 188/149/100 95/150/101 102/142/95 189/141/94
f 208/151/102 94/152/103 101/144/97 209/143/96
f 94/152/103 93/153/104 100/145/98 101/144/97
f 93/153/104 92/154/105 99/146/99 100/145/98
f 92/154/105 91/155/8 98/147/9 99/146/99
f 91/155/8 90/16/8 97/18/9 98/147/9
f 13/156/21 89/156/21 96/148/21 15/148/21
f 187/157/106 88/158/107 95/150/101 188/149/100
f 207/159/108 87/160/109 94/152/103 208/151/102
f 87/160/109 86/161/110 93/153/104 94/152/103
f 86/161/110 85/162/111 92/154/105 93/153/104
f 85/162/111 84/163/7 91/155/8 92/154/105
f 84/163/7 83/14/7 90/16/8 91/155/8
f 11/164/21 82/164/21 89/156/21 13/156/21
f 186/165/112 81/166/113 88/158/107 187/157/106
f 206/167/114 80/168/115 87/160/109 207/159/108
f 80/168/115 79/169/116 86/161/110 87/160/109
f 79/169/116 78/170/117 85/162/111 86/161/110
f 78/170/117 77/171/6 84/163/7 85/162/111
f 77/171/6 76/12/6 83/14/7 84/163/7
f 9/172/21 75/172/21 82/164/21 11/164/21
f 185/173/118 74/174/119 81/166/113 186/165/112
f 205/175/120 73/176/121 80/168/115 206/167/114
f 73/176/121 72/177/122 79/169/116 80/168/115
f 72/177/122 71/178/123 78/170/117 79/169/116
f 71/178/123 70/179/5 77/171/6 78/170/117
f 70/179/5 69/10/5 76/12/6 77/171/6
f 7/180/21 68/181/21 75/172/21 9/172/21
f 184/182/124 67/183/125 74/174/119 185/173/118
f 204/184/126 66/185/127 73/176/121 205/175/120
f 66/185/127 65/186/128 72/177/122 73/176/121
f 65/186/128 64/187/129 71/178/123 72/177/122
f 64/187/129 63/188/4 70/179/5 71/178/123
f 63/188/4 62/8/4 69/10/5 70/179/5
f 5/189/21 61/189/21 68/181/21 7/180/21
f 183/190/130 60/191/131 67/183/125 184/182/124
f 203/192/132 59/193/133 66/185/127 204/184/126
f 59/193/133 58/194/134 65/186/128 66/185/127
f 58/194/134 57/195/135 64/187/129 65/186/128
f 57/195/135 56/196/3 63/188/4 64/187/129
f 56/196/3 55/6/3 62/8/4 63/188/4
f 3/197/21 54/197/21 61/189/21 5/189/21
f 182/198/136 53/199/137 60/191/131 183/190/130
f 202/200/138 52/201/139 59/193/133 203/192/132
f 52/201/139 51/202/140 58/194/134 59/193/133
f 51/202/140 50/203/141 57/195/135 58/194/134
f 50/203/141 49/204/2 56/196/3 57/195/135
f 49/204/2 48/4/2 55/6/3 56/196/3
f 1/205/21 41/205/21 54/197/21 3/197/21
f 181/206/25 42/207/24 53/199/137 182/198/136
f 201/208/29 43/209/28 52/201/139 202/200/138
f 43/209/28 44/210/31 51/202/140 52/201/139
f 44/210/31 45/211/33 50/203/141 51/202/140
f 45/211/33 46/212/1 49/204/2 50/203/141
f 46/212/1 47/1/1 48/4/2 49/204/2
f 41/205/142 181/206/25 182/198/136 54/197/143
f 54/197/143 182/198/136 183/190/130 61/189/144
f 61/189/144 183/190/130 184/182/124 68/181/145
f 68/181/145 184/182/124 185/173/118 75/172/146
f 75/172/146 185/173/118 186/165/112 82/164/147
f 82/164/147 186/165/112 187/157/106 89/156/148
f 89/156/148 187/157/106 188/149/100 96/148/149
f 96/148/149 188/149/100 189/141/94 103/140/150
f 103/140/150 189/141/94 190/133/88 110/132/151
f 110/132/151 190/133/88 191/125/82 117/124/152
f 117/124/152 191/125/82 192/117/76 124/116/153
f 124/116/153 192/117/76 193/109/70 131/108/154
f 131/108/154 193/109/70 194/101/64 138/100/155
f 138/100/155 194/101/64 195/93/58 145/92/156
f 145/92/156 195/93/58 196/85/52 152/84/157
f 152/84/157 196/85/52 197/77/46 159/76/158
f 159/76/158 197/77/46 198/69/40 166/68/159
f 166/68/159 198/69/40 199/60/34 173/59/160
f 173/59/160 199/60/34 200/45/22 180/43/161
f 180/43/161 200/45/22 181/48/25 41/44/142
f 42/207/24 201/208/29 202/200/138 53/199/137
f 53/199/137 202/200/138 203/192/132 60/191/131
f 60/191/131 203/192/132 204/184/126 67/183/125
f 67/183/125 204/184/126 205/175/120 74/174/119
f 74/174/119 205/175/120 206/167/114 81/166/113
f 81/166/113 206/167/114 207/159/108 88/158/107
f 88/158/107 207/159/108 208/151/102 95/150/101
f 95/150/101 208/151/102 209/143/96 102/142/95
f 102/142/95 209/143/96 210/135/90 109/134/89
f 109/134/89 210/135/90 211/127/84 116/126/83
f 116/126/83 211/127/84 212/119/78 123/118/77
f 123/118/77 212/119/78 213/111/72 130/110/71
f 130/110/71 213/111/72 214/103/66 137/102/65
f 137/102/65 214/103/66 215/95/60 144/94/59
f 144/94/59 215/95/60 216/87/54 151/86/53
f 151/86/53 216/87/54 217/79/48 158/78/47
f 158/78/47 217/79/48 218/71/42 165/70/41
f 165/70/41 218/71/42 219/62/36 172/61/35
f 172/61/35 219/62/36 220/49/26 179/46/23
f 179/46/23 220/49/26 201/52/29 42/47/24
f 306/45/22 285/46/23 224/47/24 287/48/25
f 326/49/26 284/50/162 225/51/163 307/52/29
f 305/60/34 282/61/35 285/46/23 306/45/22
f 325/62/36 281/63/164 284/50/162 326/49/26
f 304/69/40 279/70/41 282/61/35 305/60/34
f 324/71/42 278/72/165 281/63/164 325/62/36
f 303/77/46 276/78/47 279/70/41 304/69/40
f 323/79/48 275/80/166 278/72/165 324/71/42
f 302/85/52 273/86/53 276/78/47 303/77/46
f 322/87/54 272/88/167 275/80/166 323/79/48
f 301/93/58 270/94/59 273/86/53 302/85/52
f 321/95/60 269/96/168 272/88/167 322/87/54
f 300/101/64 267/102/65 270/94/59 301/93/58
f 320/103/66 266/104/169 269/96/168 321/95/60
f 299/109/70 264/110/71 267/102/65 300/101/64
f 319/111/72 263/112/170 266/104/169 320/103/66
f 298/117/76 261/118/77 264/110/71 299/109/70
f 318/119/78 260/120/171 263/112/170 319/111/72
f 297/125/82 258/126/83 261/118/77 298/117/76
f 317/127/84 257/128/172 260/120/171 318/119/78
f 296/133/88 255/134/89 258/126/83 297/125/82
f 316/135/90 254/136/173 257/128/172 317/127/84
f 295/141/94 252/142/95 255/134/89 296/133/88
f 315/143/96 251/144/174 254/136/173 316/135/90
f 294/149/100 249/150/101 252/142/95 295/141/94
f 314/151/102 248/152/175 251/144/174 315/143/96
f 293/157/106 246/158/107 249/150/101 294/149/100
f 313/159/176 245/160/177 248/152/175 314/151/102
f 292/165/112 243/166/113 246/158/107 293/157/106
f 239/175/178 242/176/178 241/168/179 238/167/179
f 291/173/118 236/174/119 243/166/113 292/165/112
f 238/167/179 241/168/179 240/160/180 222/159/180
f 290/182/124 233/183/125 236/174/119 291/173/118
f 310/184/126 232/185/181 235/176/182 311/175/183
f 289/190/130 230/191/131 233/183/125 290/182/124
f 309/192/132 229/193/184 232/185/181 310/184/126
f 288/198/136 227/199/137 230/191/131 289/190/130
f 308/200/138 226/201/185 229/193/184 309/192/132
f 287/206/25 224/207/24 227/199/137 288/198/136
f 307/208/29 225/209/163 226/201/185 308/200/138
f 223/205/142 287/206/25 288/198/136 228/197/143
f 228/197/143 288/198/136 289/190/130 231/189/144
f 231/189/144 289/190/130 290/182/124 234/181/145
f 234/181/145 290/182/124 291/173/118 237/172/146
f 237/172/146 291/173/118 292/165/112 244/164/147
f 244/164/147 292/165/112 293/157/106 247/156/148
f 247/156/148 293/157/106 294/149/100 250/148/149
f 250/148/149 294/149/100 295/141/94 253/140/150
f 253/140/150 295/141/94 296/133/88 256/132/151
f 256/132/151 296/133/88 297/125/82 259/124/152
f 259/124/152 297/125/82 298/117/76 262/116/153
f 262/116/153 298/117/76 299/109/70 265/108/154
f 265/108/154 299/109/70 300/101/64 268/100/155
f 268/100/155 300/101/64 301/93/58 271/92/156
f 271/92/156 301/93/58 302/85/52 274/84/157
f 274/84/157 302/85/52 303/77/46 277/76/158
f 277/76/158 303/77/46 304/69/40 280/68/159
f 280/68/159 304/69/40 305/60/34 283/59/160
f 283/59/160 305/60/34 306/45/22 286/43/161
f 286/43/161 306/45/22 287/48/25 223/44/142
f 224/207/24 307/208/29 308/200/138 227/199/137
f 227/199/137 308/200/138 309/192/132 230/191/131
f 230/191/131 309/192/132 310/184/126 233/183/125
f 233/183/125 310/184/126 311/175/183 236/174/119
f 236/174/119 311/175/183 312/167/186 243/166/113
f 243/166/113 312/167/186 313/159/176 246/158/107
f 246/158/107 313/159/176 314/151/102 249/150/101
f 249/150/101 314/151/102 315/143/96 252/142/95
f 252/142/95 315/143/96 316/135/90 255/134/89
f 255/134/89 316/135/90 317/127/84 258/126/83
f 258/126/83 317/127/84 318/119/78 261/118/77
f 261/118/77 318/119/78 319/111/72 264/110/71
f 264/110/71 319/111/72 320/103/66 267/102/65
f 267/102/65 320/103/66 321/95/60 270/94/59
f 270/94/59 321/95/60 322/87/54 273/86/53
f 273/86/53 322/87/54 323/79/48 276/78/47
f 276/78/47 323/79/48 324/71/42 279/70/41
f 279/70/41 324/71/42 325/62/36 282/61/35
f 282/61/35 325/62/36 326/49/26 285/46/23
f 285/46/23 326/49/26 307/52/29 224/47/24
f 405/45/22 384/46/23 328/47/24 386/48/25
f 425/49/26 383/50/162 329/51/163 406/52/29
f 404/60/34 381/61/35 384/46/23 405/45/22
f 424/62/36 380/63/164 383/50/162 425/49/26
f 403/69/40 378/70/41 381/61/35 404/60/34
f 423/71/42 377/72/165 380/63/164 424/62/36
f 402/77/46 375/78/47 378/70/41 403/69/40
f 422/79/48 374/80/166 377/72/165 423/71/42
f 401/85/52 372/86/53 375/78/47 402/77/46
f 421/87/54 371/88/167 374/80/166 422/79/48
f 400/93/58 369/94/59 372/86/53 401/85/52
f 420/95/60 368/96/168 371/88/167 421/87/54
f 399/101/64 366/102/65 369/94/59 400/93/58
f 419/103/66 365/104/169 368/96/168 420/95/60
f 398/109/70 363/110/71 366/102/65 399/101/64
f 418/111/72 362/112/170 365/104/169 419/103/66
f 397/117/76 360/118/77 363/110/71 398/109/70
f 417/119/78 359/120/171 362/112/170 418/111/72
f 396/125/82 357/126/83 360/118/77 397/117/76
f 416/127/84 356/128/172 359/120/171 417/119/78
f 395/133/88 354/134/89 357/126/83 396/125/82
f 415/135/90 353/136/173 356/128/172 416/127/84
f 394/141/94 351/142/95 354/134/89 395/133/88
f 414/143/96 350/144/174 353/136/173 415/135/90
f 393/149/100 348/150/101 351/142/95 394/141/94
f 413/151/102 347/152/175 350/144/174 414/143/96
f 392/157/106 345/158/107 348/150/101 393/149/100
f 412/159/176 344/160/177 347/152/175 413/151/102
f 391/165/112 342/166/113 345/158/107 392/157/106
f 390/173/118 340/174/119 342/166/113 391/165/112
f 389/182/124 337/183/125 340/174/119 390/173/118
f 409/184/126 336/185/181 339/176/182 410/175/183
f 388/190/130 334/191/131 337/183/125 389/182/124
f 408/192/132 333/193/184 336/185/181 409/184/126
f 387/198/136 331/199/137 334/191/131 388/190/130
f 407/200/138 330/201/185 333/193/184 408/192/132
f 386/206/25 328/207/24 331/199/137 387/198/136
f 406/208/29 329/209/163 330/201/185 407/200/138
f 327/205/142 386/206/25 387/198/136 332/197/143
f 332/197/143 387/198/136 388/190/130 335/189/144
f 335/189/144 388/190/130 389/182/124 338/181/145
f 338/181/145 389/182/124 390/173/118 341/172/146
f 341/172/146 390/173/118 391/165/112 343/164/147
f 343/164/147 391/165/112 392/157/106 346/156/148
f 346/156/148 392/157/106 393/149/100 349/148/149
f 349/148/149 393/149/100 394/141/94 352/140/150
f 352/140/150 394/141/94 395/133/88 355/132/151
f 355/132/151 395/133/88 396/125/82 358/124/152
f 358/124/152 396/125/82 397/117/76 361/116/153
f 361/116/153 397/117/76 398/109/70 364/108/154
f 364/108/154 398/109/70 399/101/64 367/100/155
f 367/100/155 399/101/64 400/93/58 370/92/156
f 370/92/156 400/93/58 401/85/52 373/84/157
f 373/84/157 401/85/52 402/77/46 376/76/158
f 376/76/158 402/77/46 403/69/40 379/68/159
f 379/68/159 403/69/40 404/60/34 382/59/160
f 382/59/160 404/60/34 405/45/22 385/43/161
f 385/43/161 405/45/22 386/48/25 327/44/142
f 328/207/24 406/208/29 407/200/138 331/199/137
f 331/199/137 407/200/138 408/192/132 334/191/131
f 334/191/131 408/192/132 409/184/126 337/183/125
f 337/183/125 409/184/126 410/175/183 340/174/119
f 340/174/119 410/175/183 411/167/186 342/166/113
f 342/166/113 411/167/186 412/159/176 345/158/107
f 345/158/107 412/159/176 413/151/102 348/150/101
f 348/150/101 413/151/102 414/143/96 351/142/95
f 351/142/95 414/143/96 415/135/90 354/134/89
f 354/134/89 415/135/90 416/127/84 357/126/83
f 357/126/83 416/127/84 417/119/78 360/118/77
f 360/118/77 417/119/78 418/111/72 363/110/71
f 363/110/71 418/111/72 419/103/66 366/102/65
f 366/102/65 419/103/66 420/95/60 369/94/59
f 369/94/59 420/95/60 421/87/54 372/86/53
f 372/86/53 421/87/54 422/79/48 375/78/47
f 375/78/47 422/79/48 423/71/42 378/70/41
f 378/70/41 423/71/42 424/62/36 381/61/35
f 381/61/35 424/62/36 425/49/26 384/46/23
f 384/46/23 425/49/26 406/52/29 328/47/24
f 428/175/178 431/176/178 430/168/179 427/167/179
f 427/167/179 430/168/179 429/160/180 426/159/180
f 510/45/22 489/46/23 433/47/24 491/48/25
f 530/49/26 488/50/162 434/51/163 511/52/29
f 509/60/34 486/61/35 489/46/23 510/45/22
f 529/62/36 485/63/164 488/50/162 530/49/26
f 508/69/40 483/70/41 486/61/35 509/60/34
f 528/71/42 482/72/165 485/63/164 529/62/36
f 507/77/46 480/78/47 483/70/41 508/69/40
f 527/79/48 479/80/166 482/72/165 528/71/42
f 506/85/52 477/86/53 480/78/47 507/77/46
f 526/87/54 476/88/167 479/80/166 527/79/48
f 505/93/58 474/94/59 477/86/53 506/85/52
f 525/95/60 473/96/168 476/88/167 526/87/54
f 504/101/64 471/102/65 474/94/59 505/93/58
f 524/103/66 470/104/169 473/96/168 525/95/60
f 503/109/70 468/110/71 471/102/65 504/101/64
f 523/111/72 467/112/170 470/104/169 524/103/66
f 502/117/76 465/118/77 468/110/71 503/109/70
f 522/119/78 464/120/171 467/112/170 523/111/72
f 501/125/82 462/126/83 465/118/77 502/117/76
f 521/127/84 461/128/172 464/120/171 522/119/78
f 500/133/88 459/134/89 462/126/83 501/125/82
f 520/135/90 458/136/173 461/128/172 521/127/84
f 499/141/94 456/142/95 459/134/89 500/133/88
f 519/143/96 455/144/174 458/136/173 520/135/90
f 498/149/100 453/150/101 456/142/95 499/141/94
f 518/151/102 452/152/175 455/144/174 519/143/96
f 497/157/106 450/158/107 453/150/101 498/149/100
f 517/159/176 449/160/177 452/152/175 518/151/102
f 496/165/112 447/166/113 450/158/107 497/157/106
f 495/173/118 445/174/119 447/166/113 496/165/112
f 494/182/124 442/183/125 445/174/119 495/173/118
f 514/184/126 441/185/181 444/176/182 515/175/183
f 493/190/130 439/191/131 442/183/125 494/182/124
f 513/192/132 438/193/184 441/185/181 514/184/126
f 492/198/136 436/199/137 439/191/131 493/190/130
f 512/200/138 435/201/185 438/193/184 513/192/132
f 491/206/25 433/207/24 436/199/137 492/198/136
f 511/208/29 434/209/163 435/201/185 512/200/138
f 432/205/142 491/206/25 492/198/136 437/197/143
f 437/197/143 492/198/136 493/190/130 440/189/144
f 440/189/144 493/190/130 494/182/124 443/181/145
f 443/181/145 494/182/124 495/173/118 446/172/146
f 446/172/146 495/173/118 496/165/112 448/164/147
f 448/164/147 496/165/112 497/157/106 451/156/148
f 451/156/148 497/157/106 498/149/100 454/148/149
f 454/148/149 498/149/100 499/141/94 457/140/150
f 457/140/150 499/141/94 500/133/88 460/132/151
f 460/132/151 500/133/88 501/125/82 463/124/152
f 463/124/152 501/125/82 502/117/76 466/116/153
f 466/116/153 502/117/76 503/109/70 469/108/154
f 469/108/154 503/109/70 504/101/64 472/100/155
f 472/100/155 504/101/64 505/93/58 475/92/156
f 475/92/156 505/93/58 506/85/52 478/84/157
f 478/84/157 506/85/52 507/77/46 481/76/158
f 481/76/158 507/77/46 508/69/40 484/68/159
f 484/68/159 508/69/40 509/60/34 487/59/160
f 487/59/160 509/60/34 510/45/22 490/43/161
f 490/43/161 510/45/22 491/48/25 432/44/142
f 433/207/24 511/208/29 512/200/138 436/199/137
f 436/199/137 512/200/138 513/192/132 439/191/131
f 439/191/131 513/192/132 514/184/126 442/183/125
f 442/183/125 514/184/126 515/175/183 445/174/119
f 445/174/119 515/175/183 516/167/186 447/166/113
f 447/166/113 516/167/186 517/159/176 450/158/107
f 450/158/107 517/159/176 518/151/102 453/150/101
f 453/150/101 518/151/102 519/143/96 456/142/95
f 456/142/95 519/143/96 520/135/90 459/134/89
f 459/134/89 520/135/90 521/127/84 462/126/83
f 462/126/83 521/127/84 522/119/78 465/118/77
f 465/118/77 522/119/78 523/111/72 468/110/71
f 468/110/71 523/111/72 524/103/66 471/102/65
f 471/102/65 524/103/66 525/95/60 474/94/59
f 474/94/59 525/95/60 526/87/54 477/86/53
f 477/86/53 526/87/54 527/79/48 480/78/47
f 480/78/47 527/79/48 528/71/42 483/70/41
f 483/70/41 528/71/42 529/62/36 486/61/35
f 486/61/35 529/62/36 530/49/26 489/46/23
f 489/46/23 530/49/26 511/52/29 433/47/24
l 244 221
